<?xml version="1.0" encoding="UTF-8" standalone="no"?>
<!-- Created with Inkscape (http://www.inkscape.org/) -->

<svg
   version="1.1"
   id="svg1"
   width="352.45599"
   height="133.35201"
   viewBox="0 0 352.45599 133.35201"
   xmlns="http://www.w3.org/2000/svg"
   xmlns:svg="http://www.w3.org/2000/svg">
  <defs
     id="defs1" />
  <g
     id="g1">
    <path
       id="path1"
       d="M -31.60843,78.20798 H 31.60844 V 91.87285 H -31.60843 Z"
       style="fill:none;stroke:#000000;stroke-width:0.3985;stroke-linecap:butt;stroke-linejoin:miter;stroke-miterlimit:10;stroke-dasharray:none;stroke-opacity:1"
       transform="matrix(1.3333333,0,0,-1.3333333,166.46267,122.76133)" />
    <path
       id="path2"
       d="m 7.1714453,-6.5638828 c 0.011719,-0.046875 0.035156,-0.09375 0.035156,-0.1523438 0,-0.09375 -0.058594,-0.09375 -0.2578125,-0.09375 H 2.7534766 c -0.2460938,0 -0.2578125,0.011719 -0.3164063,0.1992188 l -0.5390625,1.7929687 c -0.023437,0.058594 -0.035156,0.1289063 -0.035156,0.140625 0,0.011719 0,0.1171875 0.1171875,0.1171875 0.09375,0 0.1171875,-0.070312 0.1289062,-0.1054687 0.3867188,-1.171875 0.9023438,-1.828125 2.4492188,-1.828125 h 1.6289062 l -5.56640624,6.22265624 c 0,0.0117188 -0.046875,0.15234375 -0.046875,0.17578125 0,0.09375 0.0703125,0.09375 0.2578125,0.09375 H 5.1558203 c 0.2460938,0 0.2578125,-0.01171875 0.3164063,-0.19921875 l 0.703125,-2.20312504 c 0.011719,-0.035156 0.035156,-0.1054687 0.035156,-0.1523437 0,-0.046875 -0.035156,-0.1054688 -0.1289062,-0.1054688 -0.082031,0 -0.09375,0.035156 -0.1640625,0.2460938 -0.4335938,1.359375 -0.9140625,2.07421874 -2.6132813,2.07421874 H 1.6050391 Z m 0,0"
       style="fill:#000000;fill-opacity:1;fill-rule:nonzero;stroke:none"
       aria-label="Z"
       transform="matrix(1.3333333,0,0,1.3333333,128.74667,13.912)" />
    <path
       id="path3"
       d="m 6.8435938,-3.2591953 c 0.1523437,0 0.3398437,0 0.3398437,-0.1992188 0,-0.1992187 -0.1875,-0.1992187 -0.328125,-0.1992187 H 0.89046875 c -0.140625,0 -0.328125,0 -0.328125,0.1992187 0,0.1992188 0.1875,0.1992188 0.33984375,0.1992188 z m 0.011719,1.9335937 c 0.140625,0 0.328125,0 0.328125,-0.1992187 0,-0.1992188 -0.1875,-0.1992188 -0.3398437,-0.1992188 H 0.9021875 c -0.15234375,0 -0.33984375,0 -0.33984375,0.1992188 0,0.1992187 0.1875,0.1992187 0.328125,0.1992187 z m 0,0"
       style="fill:#000000;fill-opacity:1;fill-rule:nonzero;stroke:none"
       aria-label="="
       transform="matrix(1.3333333,0,0,1.3333333,142.45333,13.912)" />
    <path
       id="path4"
       d="m 5.1926094,-2.1576328 c 0,-1.265625 -0.9726563,-2.25 -2.109375,-2.25 -0.7851563,0 -1.2070313,0.46875 -1.3710938,0.65625 v -3.1640625 l -1.42968748,0.1054687 v 0.3164063 c 0.69140625,0 0.77343748,0.070312 0.77343748,0.5507812 v 5.94140629 h 0.2460938 l 0.3632812,-0.62109375 c 0.1523438,0.234375 0.5625,0.7265625 1.3007813,0.7265625 1.1835937,0 2.2265625,-0.97265625 2.2265625,-2.26171874 z m -0.8320313,0 c 0,0.3632812 -0.011719,0.9609375 -0.3046875,1.40624999 -0.2109375,0.31640625 -0.5859375,0.64453125 -1.125,0.64453125 -0.4453125,0 -0.8085937,-0.24609375 -1.0429687,-0.609375 -0.140625,-0.2109375 -0.140625,-0.24609375 -0.140625,-0.42187504 v -2.0507812 c 0,-0.1875 0,-0.1992188 0.1054687,-0.3632813 0.3867188,-0.5507812 0.9375,-0.6328125 1.171875,-0.6328125 0.4570313,0 0.8085938,0.2578125 1.0546875,0.6328125 0.2578125,0.4101563 0.28125,0.984375 0.28125,1.3945313 z m 5.5957031,0.9726562 c 0,-0.1054687 -0.082031,-0.1171875 -0.1289062,-0.1171875 -0.09375,0 -0.1171875,0.058594 -0.1289063,0.140625 -0.3515625,1.01953129 -1.2539062,1.01953129 -1.3476562,1.01953129 -0.5039063,0 -0.9023438,-0.29296875 -1.125,-0.66796875 C 6.921125,-1.2904453 6.921125,-1.9466953 6.921125,-2.2982578 h 2.7890625 c 0.2109375,0 0.2460937,0 0.2460937,-0.2109375 0,-0.984375 -0.5390625,-1.9570313 -1.78125,-1.9570313 -1.1601562,0 -2.0742187,1.03125 -2.0742187,2.2734375 0,1.33593754 1.0429687,2.29687504 2.1914062,2.29687504 1.21875,0 1.6640625,-1.1015625 1.6640625,-1.28906254 z m -0.65625,-1.3242187 H 6.9328437 c 0.058594,-1.4882813 0.9023438,-1.734375 1.2421875,-1.734375 1.0195313,0 1.125,1.3476562 1.125,1.734375 z m 6.1904298,2.50781249 v -0.3046875 c -0.703125,0 -0.773438,-0.0703125 -0.773438,-0.5625 V -6.9154453 l -1.441406,0.1054687 v 0.3164063 c 0.703125,0 0.785156,0.070312 0.785156,0.5507812 v 2.15625 c -0.292968,-0.3632812 -0.726562,-0.6210937 -1.265625,-0.6210937 -1.171875,0 -2.214843,0.984375 -2.214843,2.2617187 0,1.26562504 0.972656,2.25000004 2.109375,2.25000004 0.644531,0 1.089843,-0.33984375 1.335937,-0.65625 v 0.65625 z M 14.025617,-1.1732578 c 0,0.17578124 0,0.19921874 -0.105469,0.36328124 -0.304687,0.48046875 -0.75,0.703125 -1.183593,0.703125 -0.445313,0 -0.796875,-0.2578125 -1.042969,-0.64453125 -0.257813,-0.41015629 -0.292969,-0.97265629 -0.292969,-1.38281249 0,-0.3632813 0.02344,-0.9609375 0.316406,-1.4179688 0.210938,-0.3046875 0.585938,-0.6328125 1.125,-0.6328125 0.351563,0 0.761719,0.1523438 1.078125,0.5976563 0.105469,0.1640625 0.105469,0.1875 0.105469,0.3632812 z m 8.695313,-2.625 c 0,-0.3164063 -0.304688,-0.609375 -0.726563,-0.609375 -0.738281,0 -1.089844,0.6679687 -1.230469,1.1015625 v -1.1015625 l -1.382812,0.1171875 v 0.3046875 c 0.691406,0 0.773437,0.070312 0.773437,0.5625 v 2.66015624 c 0,0.45703125 -0.105468,0.45703125 -0.773437,0.45703125 v 0.3046875 l 1.136719,-0.03515625 c 0.398437,0 0.867187,0 1.265625,0.03515625 v -0.3046875 h -0.210938 c -0.738281,0 -0.761719,-0.1171875 -0.761719,-0.46875 V -2.3099766 c 0,-0.984375 0.421875,-1.875 1.183594,-1.875 0.05859,0 0.08203,0 0.105469,0.011719 -0.03516,0.011719 -0.234375,0.1289062 -0.234375,0.3867187 0,0.28125 0.210937,0.4335938 0.433594,0.4335938 0.175781,0 0.421875,-0.1289063 0.421875,-0.4453127 z m 4.420898,2.6132812 c 0,-0.1054687 -0.08203,-0.1171875 -0.128906,-0.1171875 -0.09375,0 -0.117188,0.058594 -0.128906,0.140625 -0.351563,1.01953129 -1.253907,1.01953129 -1.347657,1.01953129 -0.503906,0 -0.902343,-0.29296875 -1.125,-0.66796875 C 24.106672,-1.2904453 24.106672,-1.9466953 24.106672,-2.2982578 h 2.789062 c 0.210938,0 0.246094,0 0.246094,-0.2109375 0,-0.984375 -0.539062,-1.9570313 -1.78125,-1.9570313 -1.160156,0 -2.074219,1.03125 -2.074219,2.2734375 0,1.33593754 1.042969,2.29687504 2.191407,2.29687504 1.21875,0 1.664062,-1.1015625 1.664062,-1.28906254 z m -0.65625,-1.3242187 h -2.367187 c 0.05859,-1.4882813 0.902343,-1.734375 1.242187,-1.734375 1.019531,0 1.125,1.3476562 1.125,1.734375 z m 4.526367,1.2304687 c 0,-0.5273437 -0.292968,-0.8203125 -0.421875,-0.9492187 -0.328125,-0.3164063 -0.714843,-0.3984375 -1.136718,-0.46875 -0.550782,-0.1171875 -1.21875,-0.2460938 -1.21875,-0.8203125 0,-0.3515625 0.257812,-0.7617188 1.113281,-0.7617188 1.101562,0 1.148437,0.9023438 1.171875,1.2070313 0,0.09375 0.117187,0.09375 0.117187,0.09375 0.128907,0 0.128907,-0.046875 0.128907,-0.2460938 v -0.9960937 c 0,-0.1757813 0,-0.2460938 -0.117188,-0.2460938 -0.04687,0 -0.07031,0 -0.199219,0.1171875 -0.02344,0.046875 -0.128906,0.1289063 -0.164062,0.1640625 -0.375,-0.28125 -0.785156,-0.28125 -0.9375,-0.28125 -1.21875,0 -1.59375,0.6679688 -1.59375,1.2304688 0,0.3398437 0.164062,0.6210937 0.433594,0.84375 0.316406,0.2578125 0.597656,0.3164062 1.3125,0.4570312 0.222656,0.035156 1.03125,0.1992188 1.03125,0.9140625 0,0.51562504 -0.351563,0.91406254 -1.125,0.91406254 -0.832032,0 -1.195313,-0.57421875 -1.382813,-1.41796874 -0.03516,-0.1289063 -0.03516,-0.1757813 -0.140625,-0.1757813 -0.128906,0 -0.128906,0.070312 -0.128906,0.2578125 v 1.31250004 c 0,0.1640625 0,0.234375 0.105469,0.234375 0.05859,0 0.07031,0 0.257812,-0.19921875 0.01172,-0.01171875 0.01172,-0.03515625 0.199219,-0.22265625 0.433594,0.421875 0.878906,0.421875 1.089844,0.421875 1.148437,0 1.605468,-0.66796875 1.605468,-1.38281254 z m 3.644532,0.046875 v -0.5742187 h -0.246094 v 0.5507812 c 0,0.73828129 -0.304688,1.11328129 -0.667969,1.11328129 -0.667969,0 -0.667969,-0.90234379 -0.667969,-1.07812499 v -2.765625 h 1.429688 v -0.3046875 h -1.429688 v -1.8398438 h -0.246093 c -0.01172,0.8203125 -0.316407,1.8867188 -1.289063,1.921875 v 0.2226563 h 0.84375 v 2.7539062 c 0,1.21875004 0.925781,1.33593754 1.289063,1.33593754 0.703125,0 0.984375,-0.703125 0.984375,-1.33593754 z m 0,0"
       style="fill:#000000;fill-opacity:1;fill-rule:nonzero;stroke:none"
       aria-label="bedrest"
       transform="matrix(1.3333333,0,0,1.3333333,157.20933,13.912)" />
    <path
       id="path5"
       d="m -124.64944,-7.74403 h 79.21805 V 7.74404 h -79.21805 z"
       style="fill:none;stroke:#000000;stroke-width:0.3985;stroke-linecap:butt;stroke-linejoin:miter;stroke-miterlimit:10;stroke-dasharray:none;stroke-opacity:1"
       transform="matrix(1.3333333,0,0,-1.3333333,166.46267,122.76133)" />
    <path
       id="path6"
       d="m 4.2524609,-6.0463516 c 0.070312,-0.28125 0.1054688,-0.3398437 0.234375,-0.3632812 0.082031,-0.023437 0.4101563,-0.023437 0.6210938,-0.023437 1.0078125,0 1.453125,0.035156 1.453125,0.8203125 0,0.140625 -0.035156,0.5273437 -0.082031,0.796875 0,0.035156 -0.023437,0.1523437 -0.023437,0.1875 0,0.058594 0.023437,0.1289062 0.1171875,0.1289062 0.1054688,0 0.1289063,-0.082031 0.1523438,-0.234375 l 0.2695312,-1.734375 c 0.011719,-0.035156 0.011719,-0.140625 0.011719,-0.1640625 0,-0.1054687 -0.09375,-0.1054687 -0.2695313,-0.1054687 H 1.2173047 c -0.24609376,0 -0.25781251,0 -0.31640626,0.1992187 l -0.59765625,1.7460938 c -0.0117188,0.023437 -0.0703125,0.1640625 -0.0703125,0.1757812 0,0.070312 0.0585938,0.1171875 0.12890625,0.1171875 0.09375,0 0.10546875,-0.046875 0.1640625,-0.2109375 0.53906246,-1.546875 0.79687496,-1.7226562 2.27343746,-1.7226562 h 0.3867188 c 0.28125,0 0.28125,0.035156 0.28125,0.1171875 0,0.058594 -0.035156,0.1757812 -0.046875,0.2109375 l -1.3242188,5.32031249 c -0.09375,0.36328125 -0.1289062,0.48046875 -1.19531246,0.48046875 -0.3515625,0 -0.41015625,0 -0.41015625,0.1875 0,0.1171874975 0.10546875,0.1171874975 0.1640625,0.1171874975 0.26953125,0 0.55078121,-0.0234374975 0.82031251,-0.0234374975 0.28125,0 0.5625,-0.01171875 0.84375,-0.01171875 0.28125,0 0.5625,0.01171875 0.8320312,0.01171875 0.28125,0 0.5859375,0.0234374975 0.8671875,0.0234374975 0.09375,0 0.2109375,0 0.2109375,-0.1992187475 0,-0.10546875 -0.082031,-0.10546875 -0.3398437,-0.10546875 -0.2460938,0 -0.375,0 -0.6328125,-0.0234375 -0.2929688,-0.0351563 -0.3632813,-0.0585938 -0.3632813,-0.22265625 0,-0.0117188 0,-0.0585938 0.035156,-0.2109375 z m 0,0"
       style="fill:#000000;fill-opacity:1;fill-rule:nonzero;stroke:none"
       aria-label="T"
       transform="matrix(1.3333333,0,0,1.3333333,4.6933333,126.08133)" />
    <path
       id="path7"
       d="m 6.8448906,-3.2572891 c 0.1523438,0 0.3398438,0 0.3398438,-0.1992187 0,-0.1992188 -0.1875,-0.1992188 -0.328125,-0.1992188 H 0.89176562 c -0.140625,0 -0.328125,0 -0.328125,0.1992188 0,0.1992187 0.1875,0.1992187 0.33984375,0.1992187 z m 0.011719,1.9335938 c 0.140625,0 0.328125,0 0.328125,-0.1992188 0,-0.1992187 -0.1875,-0.1992187 -0.3398438,-0.1992187 H 0.90348437 c -0.15234375,0 -0.33984375,0 -0.33984375,0.1992187 0,0.1992188 0.1875,0.1992188 0.328125,0.1992188 z m 0,0"
       style="fill:#000000;fill-opacity:1;fill-rule:nonzero;stroke:none"
       aria-label="="
       transform="matrix(1.3333333,0,0,1.3333333,17.990667,126.08133)" />
    <path
       id="path8"
       d="M 5.3326016,5.234375e-4 V -0.30416406 c -0.515625,0 -0.7734375,0 -0.7851563,-0.3046875 V -2.5072891 c 0,-0.8554687 0,-1.171875 -0.3046875,-1.5234375 -0.140625,-0.1757812 -0.46875,-0.375 -1.0429687,-0.375 -0.84375,0 -1.2773438,0.5976563 -1.4414063,0.9609375 v -3.46875 l -1.44140624,0.1054688 v 0.3164062 c 0.70312504,0 0.78515624,0.070312 0.78515624,0.5507813 v 5.17968749 c 0,0.45703125 -0.11718749,0.45703125 -0.78515624,0.45703125 V 5.234375e-4 L 1.4419766,-0.03463281 2.5552578,5.234375e-4 V -0.30416406 c -0.65625,0 -0.7734375,0 -0.7734375,-0.45703125 V -2.5893203 c 0,-1.03125 0.7148438,-1.59375 1.3476563,-1.59375 0.6210937,0 0.7382812,0.5390625 0.7382812,1.1015625 v 2.32031249 c 0,0.45703125 -0.1171875,0.45703125 -0.7734375,0.45703125 V 5.234375e-4 l 1.125,-0.0351562475 z M 10.228109,-2.1322891 c 0,-1.2773437 -0.9960934,-2.3320312 -2.1914059,-2.3320312 -1.2539062,0 -2.2148437,1.0898437 -2.2148437,2.3320312 0,1.28906254 1.03125,2.23828129 2.203125,2.23828129 1.2070312,0 2.2031246,-0.97265625 2.2031246,-2.23828129 z m -0.8203121,-0.082031 c 0,0.3632812 0,0.9023437 -0.2226563,1.33593749 -0.2226562,0.4453125 -0.65625,0.73828125 -1.1484375,0.73828125 -0.4335937,0 -0.8671875,-0.2109375 -1.1367187,-0.66796875 C 6.6421719,-1.2416641 6.6421719,-1.8510391 6.6421719,-2.2143203 c 0,-0.3867188 0,-0.9257813 0.2460937,-1.359375 0.2695313,-0.4570313 0.7382813,-0.6679688 1.1367188,-0.6679688 0.4335937,0 0.8671875,0.2226563 1.125,0.6445313 0.2578125,0.4335937 0.2578125,1.0078125 0.2578125,1.3828127 z m 4.6992191,0.9375 c 0,-0.5273438 -0.292969,-0.8203125 -0.421875,-0.9492188 -0.328125,-0.3164062 -0.714844,-0.3984375 -1.136719,-0.46875 -0.550781,-0.1171875 -1.21875,-0.2460937 -1.21875,-0.8203125 0,-0.3515625 0.257812,-0.7617187 1.113281,-0.7617187 1.101563,0 1.148438,0.9023437 1.171875,1.2070312 0,0.09375 0.117188,0.09375 0.117188,0.09375 0.128906,0 0.128906,-0.046875 0.128906,-0.2460937 v -0.9960938 c 0,-0.1757812 0,-0.2460937 -0.117188,-0.2460937 -0.04687,0 -0.07031,0 -0.199218,0.1171875 -0.02344,0.046875 -0.128907,0.1289062 -0.164063,0.1640625 -0.375,-0.28125 -0.785156,-0.28125 -0.9375,-0.28125 -1.21875,0 -1.59375,0.6679687 -1.59375,1.2304687 0,0.3398438 0.164063,0.6210938 0.433594,0.84375 0.316406,0.2578125 0.597656,0.3164063 1.3125,0.4570313 0.222656,0.035156 1.03125,0.1992187 1.03125,0.9140625 0,0.51562499 -0.351563,0.91406249 -1.125,0.91406249 -0.832031,0 -1.195313,-0.57421875 -1.382813,-1.41796879 -0.03516,-0.1289062 -0.03516,-0.1757812 -0.140625,-0.1757812 -0.128906,0 -0.128906,0.070312 -0.128906,0.2578125 v 1.31249999 c 0,0.1640625 0,0.234375 0.105469,0.234375 0.05859,0 0.07031,0 0.257812,-0.19921875 0.01172,-0.01171875 0.01172,-0.03515625 0.199219,-0.22265625 0.433594,0.421875 0.878906,0.421875 1.089844,0.421875 1.148437,0 1.605469,-0.66796875 1.605469,-1.38281249 z m 5.53125,-0.8789063 c 0,-1.265625 -0.972657,-2.25 -2.085938,-2.25 -0.773437,0 -1.195312,0.4453125 -1.394531,0.65625 v -0.65625 l -1.429688,0.1171875 v 0.3046875 c 0.703125,0 0.773438,0.058594 0.773438,0.4921875 v 4.6640625 c 0,0.4570313 -0.105469,0.4570313 -0.773438,0.4570313 v 0.3046875 l 1.113282,-0.035156 1.125,0.035156 V 1.6294297 c -0.667969,0 -0.773438,0 -0.773438,-0.4570313 v -1.75781246 c 0.04687,0.15234375 0.46875,0.69140625 1.21875,0.69140625 1.183594,0 2.226563,-0.97265625 2.226563,-2.26171859 z m -0.832032,0 c 0,1.20703129 -0.691406,2.05078129 -1.429687,2.05078129 -0.398438,0 -0.773438,-0.19921875 -1.042969,-0.609375 -0.140625,-0.2109375 -0.140625,-0.22265625 -0.140625,-0.42187499 v -2.2148438 c 0.28125,-0.515625 0.773438,-0.796875 1.277344,-0.796875 0.726562,0 1.335937,0.8671875 1.335937,1.9921875 z M 22.444906,5.234375e-4 V -0.30416406 c -0.65625,0 -0.703125,-0.0585938 -0.703125,-0.4453125 V -4.4057266 l -1.394531,0.1171875 v 0.3046875 c 0.65625,0 0.738281,0.058594 0.738281,0.5507813 v 2.67187499 c 0,0.45703125 -0.105469,0.45703125 -0.773437,0.45703125 V 5.234375e-4 L 21.413656,-0.03463281 c 0.339844,0 0.691406,0.0234375 1.03125,0.0351562475 z M 21.894125,-6.0111953 c 0,-0.2695313 -0.222656,-0.5273438 -0.527344,-0.5273438 -0.339844,0 -0.539062,0.2695313 -0.539062,0.5273438 0,0.2695312 0.234375,0.5273437 0.527343,0.5273437 0.339844,0 0.539063,-0.28125 0.539063,-0.5273437 z m 4.166016,4.78125 v -0.5742188 h -0.246094 v 0.5507813 c 0,0.73828124 -0.304688,1.11328124 -0.667969,1.11328124 -0.667969,0 -0.667969,-0.90234374 -0.667969,-1.07812504 v -2.765625 h 1.429688 v -0.3046875 h -1.429688 v -1.8398437 h -0.246093 c -0.01172,0.8203125 -0.316407,1.8867187 -1.289063,1.921875 v 0.2226562 h 0.84375 v 2.7539063 c 0,1.21874999 0.925781,1.33593749 1.289063,1.33593749 0.703125,0 0.984375,-0.703125 0.984375,-1.33593749 z m 5.387695,0.33984374 V -1.4408828 h -0.257813 v 0.55078124 c 0,0.5859375 -0.246093,0.64453125 -0.351562,0.64453125 -0.328125,0 -0.375,-0.45703125 -0.375,-0.50390625 V -2.7416641 c 0,-0.4101562 0,-0.8085937 -0.351563,-1.171875 -0.386718,-0.3867187 -0.890625,-0.5507812 -1.371093,-0.5507812 -0.808594,0 -1.5,0.46875 -1.5,1.125 0,0.3046875 0.199218,0.46875 0.457031,0.46875 0.28125,0 0.457031,-0.1992188 0.457031,-0.4570313 0,-0.1171875 -0.04687,-0.4453125 -0.503906,-0.4570312 0.269531,-0.3515625 0.75,-0.4570313 1.078125,-0.4570313 0.480469,0 1.054687,0.3867188 1.054687,1.2773438 v 0.3632812 c -0.515625,0.035156 -1.207031,0.058594 -1.839843,0.3632813 -0.75,0.3398437 -0.996094,0.8554687 -0.996094,1.28906249 0,0.80859375 0.972656,1.0546875 1.59375,1.0546875 0.65625,0 1.113281,-0.3984375 1.3125,-0.8671875 0.03516,0.3984375 0.304687,0.8203125 0.773437,0.8203125 0.210938,0 0.820313,-0.140625 0.820313,-0.94921875 z M 29.783773,-1.3940078 c 0,0.94921874 -0.726562,1.28906249 -1.171875,1.28906249 -0.480468,0 -0.890625,-0.3515625 -0.890625,-0.85546875 0,-0.53906254 0.410157,-1.37109374 2.0625,-1.42968754 z M 34.154867,5.234375e-4 V -0.30416406 c -0.667969,0 -0.785156,0 -0.785156,-0.45703125 V -6.9135391 l -1.429688,0.1054688 v 0.3164062 c 0.703125,0 0.773438,0.070312 0.773438,0.5507813 v 5.17968749 c 0,0.45703125 -0.105469,0.45703125 -0.773438,0.45703125 V 5.234375e-4 L 33.041586,-0.03463281 Z m 2.686524,0 V -0.30416406 c -0.65625,0 -0.703125,-0.0585938 -0.703125,-0.4453125 V -4.4057266 l -1.394532,0.1171875 v 0.3046875 c 0.65625,0 0.738282,0.058594 0.738282,0.5507813 v 2.67187499 c 0,0.45703125 -0.105469,0.45703125 -0.773438,0.45703125 V 5.234375e-4 L 35.810141,-0.03463281 c 0.339843,0 0.691406,0.0234375 1.03125,0.0351562475 z M 36.290609,-6.0111953 c 0,-0.2695313 -0.222656,-0.5273438 -0.527343,-0.5273438 -0.339844,0 -0.539063,0.2695313 -0.539063,0.5273438 0,0.2695312 0.234375,0.5273437 0.527344,0.5273437 0.339844,0 0.539062,-0.28125 0.539062,-0.5273437 z m 4.857422,4.1484375 h -0.246094 c -0.09375,1.17187499 -0.304687,1.61718749 -1.453125,1.61718749 h -1.183593 l 2.777343,-3.74999999 c 0.08203,-0.1054688 0.08203,-0.1289063 0.08203,-0.1640625 0,-0.1289063 -0.08203,-0.1289063 -0.257813,-0.1289063 h -3.1875 l -0.105469,1.59375 h 0.246094 c 0.0586,-1.0078125 0.246096,-1.3828125 1.347658,-1.3828125 h 1.136719 l -2.789062,3.76171879 c -0.08203,0.10546875 -0.08203,0.12890625 -0.08203,0.17578125 0,0.1406249975 0.07031,0.1406249975 0.257813,0.1406249975 h 3.28125 z m 4.561524,0.6796875 c 0,-0.1054688 -0.08203,-0.1171875 -0.128907,-0.1171875 -0.09375,0 -0.117187,0.058594 -0.128906,0.140625 -0.351562,1.01953124 -1.253906,1.01953124 -1.347656,1.01953124 -0.503906,0 -0.902344,-0.29296875 -1.125,-0.66796875 C 42.674398,-1.2885391 42.674398,-1.9447891 42.674398,-2.2963516 h 2.789063 c 0.210937,0 0.246094,0 0.246094,-0.2109375 0,-0.984375 -0.539063,-1.9570312 -1.78125,-1.9570312 -1.160157,0 -2.074219,1.03125 -2.074219,2.2734375 0,1.33593749 1.042969,2.29687499 2.191406,2.29687499 1.21875,0 1.664063,-1.1015625 1.664063,-1.28906249 z m -0.65625,-1.3242188 h -2.367188 c 0.05859,-1.4882812 0.902344,-1.734375 1.242188,-1.734375 1.019531,0 1.125,1.3476563 1.125,1.734375 z M 51.246664,5.234375e-4 V -0.30416406 c -0.703125,0 -0.773437,-0.0703125 -0.773437,-0.5625 V -6.9135391 l -1.441407,0.1054688 v 0.3164062 c 0.703125,0 0.785157,0.070312 0.785157,0.5507813 v 2.15625 c -0.292969,-0.3632813 -0.726563,-0.6210938 -1.265625,-0.6210938 -1.171875,0 -2.214844,0.984375 -2.214844,2.2617188 0,1.26562499 0.972656,2.24999999 2.109375,2.24999999 0.644531,0 1.089844,-0.33984375 1.335937,-0.65625 v 0.65625 z M 49.78182,-1.1713516 c 0,0.17578129 0,0.19921879 -0.105468,0.36328129 -0.304688,0.48046875 -0.75,0.703125 -1.183594,0.703125 -0.445313,0 -0.796875,-0.2578125 -1.042969,-0.64453125 C 47.191977,-1.1596328 47.15682,-1.7221328 47.15682,-2.1322891 c 0,-0.3632812 0.02344,-0.9609375 0.316407,-1.4179687 0.210937,-0.3046875 0.585937,-0.6328125 1.125,-0.6328125 0.351562,0 0.761718,0.1523437 1.078125,0.5976562 0.105468,0.1640625 0.105468,0.1875 0.105468,0.3632813 z m 0,0"
       style="fill:#000000;fill-opacity:1;fill-rule:nonzero;stroke:none"
       aria-label="hospitalized"
       transform="matrix(1.3333333,0,0,1.3333333,32.745333,126.08133)" />
    <path
       id="path9"
       d="M 30.78355,-6.88724 H 139.29727 V 6.88724 H 30.78355 Z"
       style="fill:none;stroke:#000000;stroke-width:0.3985;stroke-linecap:butt;stroke-linejoin:miter;stroke-miterlimit:10;stroke-dasharray:none;stroke-opacity:1"
       transform="matrix(1.3333333,0,0,-1.3333333,166.46267,122.76133)" />
    <path
       id="path10"
       d="m 5.9406016,-5.6715547 0.140625,-0.140625 c 0.3046875,-0.2929687 0.6328125,-0.6328125 1.3125,-0.6796875 0.1054687,-0.011719 0.1992187,-0.011719 0.1992187,-0.1875 0,-0.082031 -0.058594,-0.1289062 -0.1289062,-0.1289062 -0.2578125,0 -0.5507813,0.035156 -0.8203125,0.035156 -0.328125,0 -0.6796875,-0.035156 -0.9960938,-0.035156 -0.058594,0 -0.1875,0 -0.1875,0.1992187 0,0.1054688 0.09375,0.1171875 0.1523438,0.1171875 0.070312,0 0.3515625,0.011719 0.3515625,0.2226563 0,0.1757812 -0.2226563,0.4335937 -0.2695313,0.4804687 l -2.3085937,2.6601563 -1.0898438,-2.953125 c -0.070312,-0.140625 -0.070312,-0.1640625 -0.070312,-0.1757813 0,-0.234375 0.4921875,-0.234375 0.5976563,-0.234375 0.1289062,0 0.234375,0 0.234375,-0.1992187 0,-0.1171875 -0.1171875,-0.1171875 -0.1523438,-0.1171875 -0.28125,0 -0.9726562,0.035156 -1.2539062,0.035156 -0.2460938,0 -0.86718754,-0.035156 -1.11328129,-0.035156 -0.0585937,0 -0.1875,0 -0.1875,0.1992187 0,0.1171875 0.09375,0.1171875 0.22265625,0.1171875 0.59765624,0 0.64453124,0.082031 0.72656254,0.3398438 l 1.2304687,3.2695312 c 0.011719,0.035156 0.035156,0.140625 0.035156,0.1757813 0,0.023437 -0.3984375,1.6289062 -0.4453125,1.80468746 -0.1289063,0.55078125 -0.140625,0.5859375 -0.9375,0.59765625 -0.18750004,0 -0.26953129,0 -0.26953129,0.19921875 0,0.1054687525 0.11718749,0.1054687525 0.14062499,0.1054687525 0.28125,0 0.9726563,-0.0351562525 1.2539063,-0.0351562525 0.28125,0 0.9960937,0.0351562525 1.2773437,0.0351562525 0.070312,0 0.1875,0 0.1875,-0.1992187525 0,-0.10546875 -0.082031,-0.10546875 -0.28125,-0.10546875 -0.011719,0 -0.1992187,0 -0.375,-0.0234375 -0.2109375,-0.0234375 -0.2695312,-0.0351563 -0.2695312,-0.1640625 0,-0.0703125 0.09375,-0.41015625 0.140625,-0.62109371 l 0.3515625,-1.40625 c 0.046875,-0.1875 0.058594,-0.2226563 0.140625,-0.3046875 z m 0,0"
       style="fill:#000000;fill-opacity:1;fill-rule:nonzero;stroke:none"
       aria-label="Y"
       transform="matrix(1.3333333,0,0,1.3333333,211.93467,127.37067)" />
    <path
       id="path11"
       d="m 6.8445469,-3.2574922 c 0.1523437,0 0.3398437,0 0.3398437,-0.1992187 0,-0.1992188 -0.1875,-0.1992188 -0.328125,-0.1992188 H 0.89142188 c -0.140625,0 -0.328125,0 -0.328125,0.1992188 0,0.1992187 0.1875,0.1992187 0.33984375,0.1992187 z m 0.011719,1.9335938 c 0.140625,0 0.328125,0 0.328125,-0.1992188 0,-0.1992187 -0.1875,-0.1992187 -0.3398437,-0.1992187 H 0.90314063 c -0.15234375,0 -0.33984375,0 -0.33984375,0.1992187 0,0.1992188 0.1875,0.1992188 0.328125,0.1992188 z m 0,0"
       style="fill:#000000;fill-opacity:1;fill-rule:nonzero;stroke:none"
       aria-label="="
       transform="matrix(1.3333333,0,0,1.3333333,226.288,127.37067)" />
    <path
       id="path12"
       d="m 7.0080391,-3.9840547 v -0.3046875 c -0.2226563,0.011719 -0.515625,0.023437 -0.7265625,0.023437 l -0.9375,-0.023437 v 0.3046875 c 0.3632812,0.011719 0.5859375,0.1875 0.5859375,0.4804688 0,0.058594 0,0.082031 -0.046875,0.2109375 L 4.9689766,-0.74967969 3.9846016,-3.5270234 c -0.035156,-0.1171875 -0.046875,-0.140625 -0.046875,-0.1875 0,-0.2695313 0.3867187,-0.2695313 0.5859375,-0.2695313 v -0.3046875 l -1.03125,0.023437 c -0.3046875,0 -0.5976563,-0.011719 -0.890625,-0.023437 v 0.3046875 c 0.3632812,0 0.5273437,0.023437 0.6210937,0.1523438 0.058594,0.058594 0.1640625,0.3515625 0.234375,0.5390625 L 2.6017891,-0.87858594 1.6525703,-3.5387422 c -0.046875,-0.1171875 -0.046875,-0.140625 -0.046875,-0.1757812 0,-0.2695313 0.3867188,-0.2695313 0.5859375,-0.2695313 v -0.3046875 l -1.0898437,0.023437 -0.92578129,-0.023437 v 0.3046875 c 0.50390625,0 0.62109375,0.035156 0.73828125,0.3515625 l 1.25390624,3.52734376 c 0.058594,0.140625 0.082031,0.2109375 0.2109375,0.2109375 0.1289063,0 0.1523438,-0.05859375 0.1992188,-0.19921875 l 1.0078125,-2.81250001 1.0195312,2.82421876 c 0.035156,0.1171875 0.070312,0.1875 0.1992188,0.1875 0.1289062,0 0.1523437,-0.08203125 0.1992187,-0.1875 L 6.1642891,-3.3512422 c 0.1757812,-0.4921875 0.4921875,-0.6210937 0.84375,-0.6328125 z m 4.7226559,3.09375001 V -1.4410859 h -0.257812 v 0.55078121 c 0,0.5859375 -0.246094,0.64453125 -0.351563,0.64453125 -0.328125,0 -0.375,-0.45703125 -0.375,-0.50390625 V -2.7418672 c 0,-0.4101562 0,-0.8085937 -0.351562,-1.171875 -0.386719,-0.3867187 -0.8906252,-0.5507812 -1.3710939,-0.5507812 -0.8085938,0 -1.5,0.46875 -1.5,1.125 0,0.3046875 0.1992187,0.46875 0.4570312,0.46875 0.28125,0 0.4570313,-0.1992188 0.4570313,-0.4570313 0,-0.1171875 -0.046875,-0.4453125 -0.5039063,-0.4570312 0.2695313,-0.3515625 0.75,-0.4570313 1.078125,-0.4570313 0.4804688,0 1.0546877,0.3867188 1.0546877,1.2773438 v 0.3632812 c -0.5156252,0.035156 -1.2070314,0.058594 -1.8398439,0.3632813 -0.75,0.3398437 -0.9960938,0.8554687 -0.9960938,1.28906246 0,0.80859375 0.9726563,1.0546875 1.59375,1.0546875 0.65625,0 1.1132813,-0.3984375 1.3124997,-0.8671875 0.03516,0.3984375 0.304688,0.8203125 0.773438,0.8203125 0.210937,0 0.820312,-0.140625 0.820312,-0.94921875 z M 10.066633,-1.3942109 c 0,0.94921871 -0.7265627,1.28906246 -1.1718752,1.28906246 -0.4804687,0 -0.890625,-0.3515625 -0.890625,-0.85546875 0,-0.53906251 0.4101563,-1.37109371 2.0625002,-1.42968751 z M 14.437727,3.203125e-4 V -0.30436719 c -0.667969,0 -0.785157,0 -0.785157,-0.45703125 V -6.9137422 l -1.429687,0.1054688 v 0.3164062 c 0.703125,0 0.773437,0.070312 0.773437,0.5507813 v 5.17968746 c 0,0.45703125 -0.105468,0.45703125 -0.773437,0.45703125 V 3.203125e-4 L 13.324445,-0.03483594 Z m 5.314453,0 V -0.30436719 c -0.363282,0 -0.585938,0 -0.960938,-0.52734375 L 17.525617,-2.6246797 c -0.01172,-0.011719 -0.05859,-0.070312 -0.05859,-0.1054687 0,-0.035156 0.703125,-0.6328125 0.808594,-0.7148438 0.621094,-0.5039062 1.042969,-0.5273437 1.253906,-0.5390625 v -0.3046875 c -0.292968,0.023437 -0.421875,0.023437 -0.703125,0.023437 -0.351562,0 -0.972656,-0.023437 -1.113281,-0.023437 v 0.3046875 c 0.1875,0.011719 0.292969,0.1171875 0.292969,0.2460938 0,0.1992187 -0.140625,0.3164062 -0.222656,0.3867187 l -1.40625,1.21875 v -4.78125 l -1.429688,0.1054688 v 0.3164062 c 0.691406,0 0.773438,0.070312 0.773438,0.5507813 v 5.17968746 c 0,0.45703125 -0.105469,0.45703125 -0.773438,0.45703125 V 3.203125e-4 L 16.025617,-0.03483594 17.12718,3.203125e-4 V -0.30436719 c -0.667969,0 -0.773438,0 -0.773438,-0.45703125 V -1.7809297 l 0.632813,-0.5507812 c 0.773437,1.0546875 1.183593,1.61718746 1.183593,1.79296871 0,0.1875 -0.164062,0.234375 -0.351562,0.234375 V 3.203125e-4 L 18.884992,-0.03483594 c 0.292969,0 0.585938,0.01171875 0.867188,0.0351562525 z M 23.510969,-1.2770234 c 0,-0.5273438 -0.292969,-0.8203125 -0.421875,-0.9492188 -0.328125,-0.3164062 -0.714844,-0.3984375 -1.136719,-0.46875 -0.550781,-0.1171875 -1.21875,-0.2460937 -1.21875,-0.8203125 0,-0.3515625 0.257813,-0.7617187 1.113281,-0.7617187 1.101563,0 1.148438,0.9023437 1.171875,1.2070312 0,0.09375 0.117188,0.09375 0.117188,0.09375 0.128906,0 0.128906,-0.046875 0.128906,-0.2460937 v -0.9960938 c 0,-0.1757812 0,-0.2460937 -0.117187,-0.2460937 -0.04687,0 -0.07031,0 -0.199219,0.1171875 -0.02344,0.046875 -0.128906,0.1289062 -0.164063,0.1640625 -0.375,-0.28125 -0.785156,-0.28125 -0.9375,-0.28125 -1.21875,0 -1.59375,0.6679687 -1.59375,1.2304687 0,0.3398438 0.164063,0.6210938 0.433594,0.84375 0.316406,0.2578125 0.597656,0.3164063 1.3125,0.4570313 0.222656,0.035156 1.03125,0.1992187 1.03125,0.9140625 0,0.51562496 -0.351562,0.91406246 -1.125,0.91406246 -0.832031,0 -1.195312,-0.57421875 -1.382812,-1.41796876 -0.03516,-0.1289062 -0.03516,-0.1757812 -0.140625,-0.1757812 -0.128907,0 -0.128907,0.070312 -0.128907,0.2578125 v 1.31249996 c 0,0.1640625 0,0.234375 0.105469,0.234375 0.05859,0 0.07031,0 0.257813,-0.19921875 0.01172,-0.01171875 0.01172,-0.03515625 0.199218,-0.22265625 0.433594,0.421875 0.878907,0.421875 1.089844,0.421875 1.148438,0 1.605469,-0.66796875 1.605469,-1.38281246 z m 8.472656,0.38671871 V -1.4410859 h -0.257812 v 0.55078121 c 0,0.5859375 -0.246094,0.64453125 -0.351563,0.64453125 -0.328125,0 -0.375,-0.45703125 -0.375,-0.50390625 V -2.7418672 c 0,-0.4101562 0,-0.8085937 -0.351562,-1.171875 -0.386719,-0.3867187 -0.890625,-0.5507812 -1.371094,-0.5507812 -0.808594,0 -1.5,0.46875 -1.5,1.125 0,0.3046875 0.199219,0.46875 0.457031,0.46875 0.28125,0 0.457031,-0.1992188 0.457031,-0.4570313 0,-0.1171875 -0.04687,-0.4453125 -0.503906,-0.4570312 0.269531,-0.3515625 0.75,-0.4570313 1.078125,-0.4570313 0.480469,0 1.054688,0.3867188 1.054688,1.2773438 v 0.3632812 c -0.515625,0.035156 -1.207032,0.058594 -1.839844,0.3632813 -0.75,0.3398437 -0.996094,0.8554687 -0.996094,1.28906246 0,0.80859375 0.972656,1.0546875 1.59375,1.0546875 0.65625,0 1.113281,-0.3984375 1.3125,-0.8671875 0.03516,0.3984375 0.304688,0.8203125 0.773438,0.8203125 0.210937,0 0.820312,-0.140625 0.820312,-0.94921875 z M 30.319563,-1.3942109 c 0,0.94921871 -0.726563,1.28906246 -1.171875,1.28906246 -0.480469,0 -0.890625,-0.3515625 -0.890625,-0.85546875 0,-0.53906251 0.410156,-1.37109371 2.0625,-1.42968751 z m 5.381835,-4.9335938 c 0,-0.3632812 -0.363281,-0.6914062 -0.890625,-0.6914062 -0.703125,0 -1.546875,0.5273437 -1.546875,1.5820312 v 1.1484375 h -0.785156 v 0.3046875 h 0.785156 v 3.22265626 c 0,0.45703125 -0.105468,0.45703125 -0.773437,0.45703125 V 3.203125e-4 L 33.62718,-0.03483594 c 0.398437,0 0.867187,0 1.265625,0.0351562525 V -0.30436719 h -0.210938 c -0.738281,0 -0.761719,-0.1171875 -0.761719,-0.46875 V -3.9840547 h 1.136719 v -0.3046875 h -1.160156 v -1.1601562 c 0,-0.8789063 0.480469,-1.359375 0.914062,-1.359375 0.03516,0 0.175782,0 0.328125,0.070312 -0.117187,0.046875 -0.292968,0.1757812 -0.292968,0.421875 0,0.234375 0.152343,0.4335937 0.421875,0.4335937 0.292968,0 0.433593,-0.1992187 0.433593,-0.445312 z m 2.800782,5.0976563 v -0.5742188 h -0.246094 v 0.5507813 c 0,0.73828121 -0.304688,1.11328121 -0.667969,1.11328121 -0.667969,0 -0.667969,-0.90234371 -0.667969,-1.07812501 v -2.765625 h 1.429688 v -0.3046875 h -1.429688 v -1.8398437 h -0.246093 c -0.01172,0.8203125 -0.316407,1.8867187 -1.289063,1.921875 v 0.2226562 h 0.84375 v 2.7539063 c 0,1.21874996 0.925781,1.33593746 1.289063,1.33593746 0.703125,0 0.984375,-0.703125 0.984375,-1.33593746 z m 4.708008,0.046875 c 0,-0.1054688 -0.08203,-0.1171875 -0.128907,-0.1171875 -0.09375,0 -0.117187,0.058594 -0.128906,0.140625 -0.351562,1.01953121 -1.253906,1.01953121 -1.347656,1.01953121 -0.503906,0 -0.902344,-0.29296875 -1.125,-0.66796875 C 40.175031,-1.2887422 40.175031,-1.9449922 40.175031,-2.2965547 h 2.789063 c 0.210937,0 0.246094,0 0.246094,-0.2109375 0,-0.984375 -0.539063,-1.9570312 -1.78125,-1.9570312 -1.160157,0 -2.074219,1.03125 -2.074219,2.2734375 0,1.33593746 1.042969,2.29687496 2.191406,2.29687496 1.21875,0 1.664063,-1.1015625 1.664063,-1.28906246 z m -0.65625,-1.3242188 H 40.18675 c 0.05859,-1.4882812 0.902344,-1.734375 1.242188,-1.734375 1.019531,0 1.125,1.3476563 1.125,1.734375 z m 4.564453,-1.2890625 c 0,-0.3164062 -0.304688,-0.609375 -0.726563,-0.609375 -0.738281,0 -1.089844,0.6679688 -1.230469,1.1015625 v -1.1015625 l -1.382812,0.1171875 v 0.3046875 c 0.691406,0 0.773437,0.070312 0.773437,0.5625 v 2.66015626 c 0,0.45703125 -0.105468,0.45703125 -0.773437,0.45703125 V 3.203125e-4 L 44.915266,-0.03483594 c 0.398437,0 0.867187,0 1.265625,0.0351562525 V -0.30436719 h -0.210938 c -0.738281,0 -0.761719,-0.1171875 -0.761719,-0.46875 V -2.3082734 c 0,-0.984375 0.421875,-1.875 1.183594,-1.875 0.05859,0 0.08203,0 0.105469,0.011719 -0.03516,0.011719 -0.234375,0.1289063 -0.234375,0.3867188 0,0.28125 0.210937,0.4335937 0.433594,0.4335937 0.175781,0 0.421875,-0.1289062 0.421875,-0.4453128 z M 54.890852,3.203125e-4 V -0.30436719 h -0.316407 c -0.902343,0 -0.925781,-0.1171875 -0.925781,-0.48046875 V -6.3746797 c 0,-0.234375 0,-0.2578125 -0.234375,-0.2578125 -0.609375,0.6328125 -1.488281,0.6328125 -1.804687,0.6328125 v 0.3164063 c 0.199218,0 0.785156,0 1.300781,-0.2578125 v 5.15624996 c 0,0.3515625 -0.03516,0.48046875 -0.925781,0.48046875 H 51.668195 V 3.203125e-4 C 52.019758,-0.03483594 52.875227,-0.03483594 53.273664,-0.03483594 c 0.398438,0 1.265625,0 1.617188,0.0351562525 z M 66.026594,-3.9840547 v -0.3046875 c -0.222656,0.011719 -0.515625,0.023437 -0.726563,0.023437 l -0.9375,-0.023437 v 0.3046875 c 0.363282,0.011719 0.585938,0.1875 0.585938,0.4804688 0,0.058594 0,0.082031 -0.04687,0.2109375 l -0.914063,2.54296871 -0.984375,-2.77734371 c -0.03516,-0.1171875 -0.04687,-0.140625 -0.04687,-0.1875 0,-0.2695313 0.386719,-0.2695313 0.585938,-0.2695313 v -0.3046875 l -1.03125,0.023437 c -0.304688,0 -0.597656,-0.011719 -0.890625,-0.023437 v 0.3046875 c 0.363281,0 0.527344,0.023437 0.621094,0.1523438 0.05859,0.058594 0.164062,0.3515625 0.234375,0.5390625 l -0.855469,2.41406246 -0.949219,-2.66015626 c -0.04687,-0.1171875 -0.04687,-0.140625 -0.04687,-0.1757812 0,-0.2695313 0.386719,-0.2695313 0.585938,-0.2695313 v -0.3046875 l -1.089844,0.023437 -0.925781,-0.023437 v 0.3046875 c 0.503906,0 0.621093,0.035156 0.738281,0.3515625 l 1.253906,3.52734376 c 0.05859,0.140625 0.08203,0.2109375 0.210938,0.2109375 0.128906,0 0.152343,-0.05859375 0.199218,-0.19921875 l 1.007813,-2.81250001 1.019531,2.82421876 c 0.03516,0.1171875 0.07031,0.1875 0.199219,0.1875 0.128906,0 0.152344,-0.08203125 0.199219,-0.1875 l 1.160156,-3.26953126 c 0.175781,-0.4921875 0.492187,-0.6210937 0.84375,-0.6328125 z m 4.042969,2.8007813 c 0,-0.1054688 -0.08203,-0.1171875 -0.128907,-0.1171875 -0.09375,0 -0.117187,0.058594 -0.128906,0.140625 -0.351562,1.01953121 -1.253906,1.01953121 -1.347656,1.01953121 -0.503906,0 -0.902344,-0.29296875 -1.125,-0.66796875 C 67.034406,-1.2887422 67.034406,-1.9449922 67.034406,-2.2965547 h 2.789063 c 0.210937,0 0.246094,0 0.246094,-0.2109375 0,-0.984375 -0.539063,-1.9570312 -1.78125,-1.9570312 -1.160157,0 -2.074219,1.03125 -2.074219,2.2734375 0,1.33593746 1.042969,2.29687496 2.191406,2.29687496 1.21875,0 1.664063,-1.1015625 1.664063,-1.28906246 z m -0.65625,-1.3242188 h -2.367188 c 0.05859,-1.4882812 0.902344,-1.734375 1.242188,-1.734375 1.019531,0 1.125,1.3476563 1.125,1.734375 z m 5.080078,1.3242188 c 0,-0.1054688 -0.08203,-0.1171875 -0.128907,-0.1171875 -0.09375,0 -0.117187,0.058594 -0.128906,0.140625 -0.351562,1.01953121 -1.253906,1.01953121 -1.347656,1.01953121 -0.503906,0 -0.902344,-0.29296875 -1.125,-0.66796875 C 71.458234,-1.2887422 71.458234,-1.9449922 71.458234,-2.2965547 h 2.789063 c 0.210937,0 0.246094,0 0.246094,-0.2109375 0,-0.984375 -0.539063,-1.9570312 -1.78125,-1.9570312 -1.160157,0 -2.074219,1.03125 -2.074219,2.2734375 0,1.33593746 1.042969,2.29687496 2.191406,2.29687496 1.21875,0 1.664063,-1.1015625 1.664063,-1.28906246 z m -0.65625,-1.3242188 h -2.367188 c 0.05859,-1.4882812 0.902344,-1.734375 1.242188,-1.734375 1.019531,0 1.125,1.3476563 1.125,1.734375 z M 79.866438,3.203125e-4 V -0.30436719 c -0.363282,0 -0.585938,0 -0.960938,-0.52734375 L 77.639875,-2.6246797 c -0.01172,-0.011719 -0.05859,-0.070312 -0.05859,-0.1054687 0,-0.035156 0.703125,-0.6328125 0.808594,-0.7148438 0.621094,-0.5039062 1.042969,-0.5273437 1.253906,-0.5390625 v -0.3046875 c -0.292968,0.023437 -0.421875,0.023437 -0.703125,0.023437 -0.351562,0 -0.972656,-0.023437 -1.113281,-0.023437 v 0.3046875 c 0.1875,0.011719 0.292969,0.1171875 0.292969,0.2460938 0,0.1992187 -0.140625,0.3164062 -0.222656,0.3867187 l -1.40625,1.21875 v -4.78125 l -1.429688,0.1054688 v 0.3164062 c 0.691406,0 0.773438,0.070312 0.773438,0.5507813 v 5.17968746 c 0,0.45703125 -0.105469,0.45703125 -0.773438,0.45703125 V 3.203125e-4 L 76.139875,-0.03483594 77.241438,3.203125e-4 V -0.30436719 c -0.667969,0 -0.773438,0 -0.773438,-0.45703125 V -1.7809297 l 0.632813,-0.5507812 c 0.773437,1.0546875 1.183593,1.61718746 1.183593,1.79296871 0,0.1875 -0.164062,0.234375 -0.351562,0.234375 V 3.203125e-4 L 78.99925,-0.03483594 c 0.292969,0 0.585938,0.01171875 0.867188,0.0351562525 z m 0,0"
       style="fill:#000000;fill-opacity:1;fill-rule:nonzero;stroke:none"
       aria-label="walksafter1week"
       transform="matrix(1.3333333,0,0,1.3333333,241.04267,127.37067)" />
    <path
       id="path13"
       d="M -7.02502,78.00873 -76.78119,8.26729"
       style="fill:none;stroke:#000000;stroke-width:0.3985;stroke-linecap:butt;stroke-linejoin:miter;stroke-miterlimit:10;stroke-dasharray:none;stroke-opacity:1"
       transform="matrix(1.3333333,0,0,-1.3333333,166.46267,122.76133)" />
    <path
       id="path14"
       d="M -1.19551,1.59401 C -1.09587,0.99626 0,0.09961 0.29886,0 0,-0.09961 -1.09587,-0.99626 -1.19551,-1.59401"
       style="fill:none;stroke:#000000;stroke-width:0.31879;stroke-linecap:round;stroke-linejoin:round;stroke-miterlimit:10;stroke-dasharray:none;stroke-opacity:1"
       transform="matrix(-0.94289333,0.94269333,0.94269333,0.94289333,64.087747,111.73827)" />
    <path
       id="path15"
       d="M 7.02748,78.00873 77.63712,7.4105"
       style="fill:none;stroke:#000000;stroke-width:0.3985;stroke-linecap:butt;stroke-linejoin:miter;stroke-miterlimit:10;stroke-dasharray:none;stroke-opacity:1"
       transform="matrix(1.3333333,0,0,-1.3333333,166.46267,122.76133)" />
    <path
       id="path16"
       d="M -1.19551,1.59401 C -1.09587,0.99626 0,0.09961 0.29886,0 0,-0.09961 -1.09587,-0.99626 -1.19551,-1.59401"
       style="fill:none;stroke:#000000;stroke-width:0.31879;stroke-linecap:round;stroke-linejoin:round;stroke-miterlimit:10;stroke-dasharray:none;stroke-opacity:1"
       transform="matrix(0.94286667,0.94270667,0.94270667,-0.94286667,269.9788,112.88067)" />
    <path
       id="path17"
       d="M -45.23215,0 H 30.12602"
       style="fill:none;stroke:#000000;stroke-width:0.3985;stroke-linecap:butt;stroke-linejoin:miter;stroke-miterlimit:10;stroke-dasharray:none;stroke-opacity:1"
       transform="matrix(1.3333333,0,0,-1.3333333,166.46267,122.76133)" />
    <path
       id="path18"
       d="M -1.19551,1.59401 C -1.09587,0.99626 0,0.09961 0.29886,0 0,-0.09961 -1.09587,-0.99626 -1.19551,-1.59401"
       style="fill:none;stroke:#000000;stroke-width:0.31879;stroke-linecap:round;stroke-linejoin:round;stroke-miterlimit:10;stroke-dasharray:none;stroke-opacity:1"
       transform="matrix(1.3333333,0,0,-1.3333333,206.63069,122.76133)" />
  </g>
</svg>
