<?xml version="1.0" encoding="UTF-8" standalone="no"?>
<!-- Created with Inkscape (http://www.inkscape.org/) -->

<svg
   version="1.1"
   id="svg1"
   width="363.87332"
   height="134.72"
   viewBox="0 0 363.87332 134.72"
   xmlns="http://www.w3.org/2000/svg"
   xmlns:svg="http://www.w3.org/2000/svg">
  <defs
     id="defs1" />
  <g
     id="g1">
    <path
       id="path1"
       d="M -45.8801,77.2366 H 45.8801 V 92.84422 H -45.8801 Z"
       style="fill:none;stroke:#000000;stroke-width:0.3985;stroke-linecap:butt;stroke-linejoin:miter;stroke-miterlimit:10;stroke-dasharray:none;stroke-opacity:1"
       transform="matrix(1.3333333,0,0,-1.3333333,179.952,124.056)" />
    <path
       id="path2"
       d="m 7.1721484,-6.5638828 c 0.011719,-0.046875 0.035156,-0.09375 0.035156,-0.1523438 0,-0.09375 -0.058594,-0.09375 -0.2578125,-0.09375 H 2.7541797 c -0.2460938,0 -0.2578125,0.011719 -0.3164063,0.1992188 l -0.5390625,1.7929687 c -0.023437,0.058594 -0.035156,0.1289063 -0.035156,0.140625 0,0.011719 0,0.1171875 0.1171875,0.1171875 0.09375,0 0.1171875,-0.070312 0.1289062,-0.1054687 0.3867188,-1.171875 0.9023438,-1.828125 2.4492188,-1.828125 h 1.6289062 l -5.56640621,6.22265624 c 0,0.0117188 -0.046875,0.15234375 -0.046875,0.17578125 0,0.09375 0.0703125,0.09375 0.2578125,0.09375 H 5.1565234 c 0.2460938,0 0.2578125,-0.01171875 0.3164063,-0.19921875 l 0.703125,-2.20312504 c 0.011719,-0.035156 0.035156,-0.1054687 0.035156,-0.1523437 0,-0.046875 -0.035156,-0.1054688 -0.1289062,-0.1054688 -0.082031,0 -0.09375,0.035156 -0.1640625,0.2460938 -0.4335938,1.359375 -0.9140625,2.07421874 -2.6132813,2.07421874 H 1.6057422 Z m 0,0"
       style="fill:#000000;fill-opacity:1;fill-rule:nonzero;stroke:none"
       aria-label="Z"
       transform="matrix(1.3333333,0,0,1.3333333,123.20667,13.912)" />
    <path
       id="path3"
       d="m 6.8432969,-3.2591953 c 0.1523437,0 0.3398437,0 0.3398437,-0.1992188 0,-0.1992187 -0.1875,-0.1992187 -0.328125,-0.1992187 H 0.89017187 c -0.140625,0 -0.328125,0 -0.328125,0.1992187 0,0.1992188 0.1875,0.1992188 0.33984375,0.1992188 z m 0.011719,1.9335937 c 0.140625,0 0.328125,0 0.328125,-0.1992187 0,-0.1992188 -0.1875,-0.1992188 -0.3398437,-0.1992188 H 0.90189062 c -0.15234375,0 -0.33984375,0 -0.33984375,0.1992188 0,0.1992187 0.1875,0.1992187 0.328125,0.1992187 z m 0,0"
       style="fill:#000000;fill-opacity:1;fill-rule:nonzero;stroke:none"
       aria-label="="
       transform="matrix(1.3333333,0,0,1.3333333,136.91467,13.912)" />
    <path
       id="path4"
       d="m 5.1903828,-2.1576328 c 0,-1.265625 -0.9726562,-2.25 -2.0859375,-2.25 -0.7734375,0 -1.1953125,0.4453125 -1.3945312,0.65625 v -0.65625 l -1.42968754,0.1171875 v 0.3046875 c 0.703125,0 0.77343754,0.058594 0.77343754,0.4921875 v 4.6640625 c 0,0.4570312 -0.10546879,0.4570312 -0.77343754,0.4570312 v 0.3046875 l 1.11328124,-0.035156 1.125,0.035156 V 1.6275234 c -0.6679687,0 -0.7734375,0 -0.7734375,-0.4570312 v -1.75781251 c 0.046875,0.15234375 0.46875,0.69140625 1.21875,0.69140625 1.1835938,0 2.2265625,-0.97265625 2.2265625,-2.26171874 z m -0.8320312,0 c 0,1.20703124 -0.6914063,2.05078124 -1.4296875,2.05078124 -0.3984375,0 -0.7734375,-0.19921875 -1.0429688,-0.609375 -0.140625,-0.2109375 -0.140625,-0.22265625 -0.140625,-0.42187504 v -2.2148437 c 0.28125,-0.515625 0.7734375,-0.796875 1.2773438,-0.796875 0.7265625,0 1.3359375,0.8671875 1.3359375,1.9921875 z m 4.8017578,-1.640625 c 0,-0.3164063 -0.3046875,-0.609375 -0.7265625,-0.609375 -0.7382813,0 -1.0898438,0.6679687 -1.2304688,1.1015625 v -1.1015625 l -1.3828125,0.1171875 v 0.3046875 c 0.6914063,0 0.7734375,0.070312 0.7734375,0.5625 v 2.66015624 c 0,0.45703125 -0.1054687,0.45703125 -0.7734375,0.45703125 v 0.3046875 l 1.1367188,-0.03515625 c 0.3984375,0 0.8671875,0 1.265625,0.03515625 v -0.3046875 H 8.0116719 c -0.7382813,0 -0.7617188,-0.1171875 -0.7617188,-0.46875 V -2.3099766 c 0,-0.984375 0.421875,-1.875 1.1835938,-1.875 0.058594,0 0.082031,0 0.1054687,0.011719 -0.035156,0.011719 -0.234375,0.1289062 -0.234375,0.3867187 0,0.28125 0.2109375,0.4335938 0.4335938,0.4335938 0.1757812,0 0.421875,-0.1289063 0.421875,-0.4453127 z m 4.4208986,2.6132812 c 0,-0.1054687 -0.08203,-0.1171875 -0.128906,-0.1171875 -0.09375,0 -0.117188,0.058594 -0.128907,0.140625 -0.351562,1.01953129 -1.253906,1.01953129 -1.347656,1.01953129 -0.503906,0 -0.902344,-0.29296875 -1.125,-0.66796875 C 10.545852,-1.2904453 10.545852,-1.9466953 10.545852,-2.2982578 h 2.789062 c 0.210938,0 0.246094,0 0.246094,-0.2109375 0,-0.984375 -0.539063,-1.9570313 -1.78125,-1.9570313 -1.160156,0 -2.0742189,1.03125 -2.0742189,2.2734375 0,1.33593754 1.0429689,2.29687504 2.1914059,2.29687504 1.21875,0 1.664063,-1.1015625 1.664063,-1.28906254 z m -0.65625,-1.3242187 H 10.55757 c 0.05859,-1.4882813 0.902344,-1.734375 1.242188,-1.734375 1.019531,0 1.125,1.3476562 1.125,1.734375 z m 5.771484,-1.5117188 c 0,-0.1757812 -0.117187,-0.4921875 -0.503906,-0.4921875 -0.199219,0 -0.632813,0.058594 -1.054688,0.46875 -0.421875,-0.328125 -0.84375,-0.3632812 -1.054687,-0.3632812 -0.925781,0 -1.617188,0.6914062 -1.617188,1.453125 0,0.4453125 0.222657,0.8203125 0.46875,1.03125 -0.128906,0.1523437 -0.304687,0.4804687 -0.304687,0.8203125 0,0.31640624 0.128906,0.69140624 0.433594,0.89062499 -0.597657,0.17578125 -0.914063,0.59765625 -0.914063,0.99609375 0,0.71484376 0.984375,1.26562496 2.203125,1.26562496 1.171875,0 2.203125,-0.5039062 2.203125,-1.28906246 0,-0.33984375 -0.140625,-0.85546875 -0.644531,-1.125 -0.527344,-0.28125 -1.101563,-0.28125 -1.710938,-0.28125 -0.246093,0 -0.679687,0 -0.75,-0.0117188 -0.316406,-0.046875 -0.527343,-0.35156254 -0.527343,-0.66796884 0,-0.035156 0,-0.2695312 0.175781,-0.46875 0.386719,0.28125 0.796875,0.3046875 0.984375,0.3046875 0.925781,0 1.605469,-0.6796875 1.605469,-1.453125 0,-0.3632812 -0.152344,-0.7382812 -0.398438,-0.9609375 0.351563,-0.3398437 0.714844,-0.3867187 0.890625,-0.3867187 0,0 0.07031,0 0.105469,0 -0.117188,0.046875 -0.164063,0.1523438 -0.164063,0.2695313 0,0.1757812 0.128907,0.2929687 0.292969,0.2929687 0.09375,0 0.28125,-0.070312 0.28125,-0.2929687 z m -1.746094,1.0664063 c 0,0.2695312 -0.01172,0.5976562 -0.164062,0.84375 -0.08203,0.1171875 -0.304688,0.3984375 -0.703125,0.3984375 -0.867188,0 -0.867188,-0.9960938 -0.867188,-1.2304688 0,-0.2695312 0.01172,-0.5859375 0.152344,-0.8320312 0.08203,-0.1171875 0.316406,-0.3984375 0.714844,-0.3984375 0.867187,0 0.867187,0.9960937 0.867187,1.21875 z m 1.089844,3.73828124 c 0,0.53906246 -0.703125,1.04296876 -1.675781,1.04296876 -1.007813,0 -1.699219,-0.515625 -1.699219,-1.04296876 0,-0.45703125 0.375,-0.8203125 0.820313,-0.85546875 h 0.585937 c 0.855469,0 1.96875,0 1.96875,0.85546875 z m 6.140625,-0.78515625 v -0.3046875 c -0.515625,0 -0.773437,0 -0.785156,-0.3046875 V -2.5091953 c 0,-0.8554688 0,-1.171875 -0.304688,-1.5234375 -0.140625,-0.1757813 -0.46875,-0.375 -1.042968,-0.375 -0.726563,0 -1.195313,0.4335937 -1.476563,1.0546875 v -1.0546875 l -1.40625,0.1171875 v 0.3046875 c 0.703125,0 0.785156,0.070312 0.785156,0.5625 v 2.66015624 c 0,0.45703125 -0.117187,0.45703125 -0.785156,0.45703125 v 0.3046875 l 1.125,-0.03515625 1.113281,0.03515625 v -0.3046875 c -0.65625,0 -0.773437,0 -0.773437,-0.45703125 V -2.5912266 c 0,-1.03125 0.714844,-1.59375 1.347656,-1.59375 0.621094,0 0.738281,0.5390625 0.738281,1.1015625 v 2.32031254 c 0,0.45703125 -0.117187,0.45703125 -0.773437,0.45703125 v 0.3046875 l 1.125,-0.03515625 z m 5.024414,-0.890625 V -1.4427891 h -0.257812 v 0.55078129 c 0,0.5859375 -0.246094,0.64453125 -0.351563,0.64453125 -0.328125,0 -0.375,-0.45703125 -0.375,-0.50390625 V -2.7435703 c 0,-0.4101563 0,-0.8085938 -0.351562,-1.171875 -0.386719,-0.3867188 -0.890625,-0.5507813 -1.371094,-0.5507813 -0.808594,0 -1.5,0.46875 -1.5,1.125 0,0.3046875 0.199219,0.46875 0.457031,0.46875 0.28125,0 0.457032,-0.1992187 0.457032,-0.4570312 0,-0.1171875 -0.04687,-0.4453125 -0.503907,-0.4570313 0.269532,-0.3515625 0.75,-0.4570312 1.078125,-0.4570312 0.480469,0 1.054688,0.3867187 1.054688,1.2773437 v 0.3632813 c -0.515625,0.035156 -1.207031,0.058594 -1.839844,0.3632812 -0.75,0.3398438 -0.996094,0.8554688 -0.996094,1.28906254 0,0.80859375 0.972657,1.0546875 1.59375,1.0546875 0.65625,0 1.113282,-0.3984375 1.3125,-0.8671875 0.03516,0.3984375 0.304688,0.8203125 0.773438,0.8203125 0.210937,0 0.820312,-0.140625 0.820312,-0.94921875 z M 27.540969,-1.3959141 c 0,0.94921879 -0.726563,1.28906254 -1.171875,1.28906254 -0.480469,0 -0.890625,-0.3515625 -0.890625,-0.85546875 0,-0.53906249 0.410156,-1.37109379 2.0625,-1.42968749 z m 7.160156,1.39453129 v -0.3046875 c -0.515625,0 -0.773437,0 -0.785156,-0.3046875 V -2.5091953 c 0,-0.8554688 0,-1.171875 -0.304688,-1.5234375 -0.140625,-0.1757813 -0.46875,-0.375 -1.042968,-0.375 -0.726563,0 -1.195313,0.4335937 -1.476563,1.0546875 v -1.0546875 l -1.40625,0.1171875 v 0.3046875 c 0.703125,0 0.785156,0.070312 0.785156,0.5625 v 2.66015624 c 0,0.45703125 -0.117187,0.45703125 -0.785156,0.45703125 v 0.3046875 l 1.125,-0.03515625 1.113281,0.03515625 v -0.3046875 c -0.65625,0 -0.773437,0 -0.773437,-0.45703125 V -2.5912266 c 0,-1.03125 0.714844,-1.59375 1.347656,-1.59375 0.621094,0 0.738281,0.5390625 0.738281,1.1015625 v 2.32031254 c 0,0.45703125 -0.117187,0.45703125 -0.773437,0.45703125 v 0.3046875 l 1.125,-0.03515625 z m 4.344727,-1.18359379 c 0,-0.1054687 -0.105469,-0.1054687 -0.128907,-0.1054687 -0.09375,0 -0.117187,0.046875 -0.128906,0.1054687 -0.292969,0.92578129 -0.9375,1.04296879 -1.3125,1.04296879 -0.527344,0 -1.40625,-0.421875 -1.40625,-2.02734379 0,-1.6289062 0.820313,-2.0507812 1.347656,-2.0507812 0.09375,0 0.714844,0.011719 1.066407,0.375 -0.410157,0.023437 -0.46875,0.328125 -0.46875,0.4570312 0,0.2578125 0.1875,0.4570313 0.457031,0.4570313 0.257812,0 0.457031,-0.1640625 0.457031,-0.46875 0,-0.6796875 -0.75,-1.0664063 -1.523437,-1.0664063 -1.242188,0 -2.15625,1.078125 -2.15625,2.3085938 0,1.27734374 0.984375,2.26171874 2.144531,2.26171874 1.335937,0 1.652344,-1.19531254 1.652344,-1.28906254 z m 5.349609,-2.8007812 v -0.3046875 c -0.234375,0.011719 -0.515625,0.023437 -0.75,0.023437 l -0.867188,-0.023437 v 0.3046875 c 0.304688,0.011719 0.46875,0.1757812 0.46875,0.4335937 0,0.09375 -0.01172,0.1171875 -0.05859,0.234375 L 42.18062,-0.86857031 41.079058,-3.5521641 c -0.04687,-0.09375 -0.05859,-0.140625 -0.05859,-0.1757812 0,-0.2578125 0.363281,-0.2578125 0.550781,-0.2578125 v -0.3046875 l -1.078125,0.023437 c -0.269531,0 -0.667969,-0.011719 -0.972656,-0.023437 v 0.3046875 c 0.480469,0 0.667969,0 0.808594,0.3515625 l 1.5,3.63281249 -0.257813,0.5859375 C 41.360305,1.1353359 41.079055,1.8267422 40.434523,1.8267422 c -0.04687,0 -0.269531,0 -0.46875,-0.1875 0.316407,-0.035156 0.398438,-0.2578125 0.398438,-0.4101563 0,-0.26953121 -0.199219,-0.42187496 -0.421875,-0.42187496 -0.199219,0 -0.421875,0.12890625 -0.421875,0.42187496 0,0.4570313 0.421875,0.8085938 0.914062,0.8085938 0.632813,0 1.042969,-0.5625 1.277344,-1.13671876 L 43.46968,-3.3529453 c 0.257812,-0.6210938 0.761718,-0.6328125 0.925781,-0.6328125 z m 7.136719,0.1875 c 0,-0.3164063 -0.304688,-0.609375 -0.726563,-0.609375 -0.738281,0 -1.089844,0.6679687 -1.230469,1.1015625 v -1.1015625 l -1.382812,0.1171875 v 0.3046875 c 0.691406,0 0.773437,0.070312 0.773437,0.5625 v 2.66015624 c 0,0.45703125 -0.105468,0.45703125 -0.773437,0.45703125 v 0.3046875 l 1.136719,-0.03515625 c 0.398437,0 0.867187,0 1.265625,0.03515625 v -0.3046875 h -0.210938 c -0.738281,0 -0.761719,-0.1171875 -0.761719,-0.46875 V -2.3099766 c 0,-0.984375 0.421875,-1.875 1.183594,-1.875 0.05859,0 0.08203,0 0.105469,0.011719 -0.03516,0.011719 -0.234375,0.1289062 -0.234375,0.3867187 0,0.28125 0.210937,0.4335938 0.433594,0.4335938 0.175781,0 0.421875,-0.1289063 0.421875,-0.4453127 z m 2.745117,3.79687499 v -0.3046875 c -0.65625,0 -0.703125,-0.0585938 -0.703125,-0.4453125 V -4.4076328 l -1.394531,0.1171875 v 0.3046875 c 0.65625,0 0.738281,0.058594 0.738281,0.5507812 v 2.67187504 c 0,0.45703125 -0.105469,0.45703125 -0.773438,0.45703125 v 0.3046875 l 1.101563,-0.03515625 c 0.339844,0 0.691406,0.0234375 1.03125,0.03515625 z M 53.726516,-6.0131016 c 0,-0.2695312 -0.222657,-0.5273437 -0.527344,-0.5273437 -0.339844,0 -0.539063,0.2695312 -0.539063,0.5273437 0,0.2695313 0.234375,0.5273438 0.527344,0.5273438 0.339844,0 0.539063,-0.28125 0.539063,-0.5273438 z m 4.444336,4.734375 c 0,-0.5273437 -0.292969,-0.8203125 -0.421875,-0.9492187 -0.328125,-0.3164063 -0.714844,-0.3984375 -1.136719,-0.46875 -0.550781,-0.1171875 -1.21875,-0.2460938 -1.21875,-0.8203125 0,-0.3515625 0.257812,-0.7617188 1.113281,-0.7617188 1.101563,0 1.148438,0.9023438 1.171875,1.2070313 0,0.09375 0.117188,0.09375 0.117188,0.09375 0.128906,0 0.128906,-0.046875 0.128906,-0.2460938 v -0.9960937 c 0,-0.1757813 0,-0.2460938 -0.117188,-0.2460938 -0.04687,0 -0.07031,0 -0.199218,0.1171875 -0.02344,0.046875 -0.128907,0.1289063 -0.164063,0.1640625 -0.375,-0.28125 -0.785156,-0.28125 -0.9375,-0.28125 -1.21875,0 -1.59375,0.6679688 -1.59375,1.2304688 0,0.3398437 0.164063,0.6210937 0.433594,0.84375 0.316406,0.2578125 0.597656,0.3164062 1.3125,0.4570312 0.222656,0.035156 1.03125,0.1992188 1.03125,0.9140625 0,0.51562504 -0.351563,0.91406254 -1.125,0.91406254 -0.832031,0 -1.195313,-0.57421875 -1.382813,-1.41796874 -0.03516,-0.1289063 -0.03516,-0.1757813 -0.140625,-0.1757813 -0.128906,0 -0.128906,0.070312 -0.128906,0.2578125 v 1.31250004 c 0,0.1640625 0,0.234375 0.105469,0.234375 0.05859,0 0.07031,0 0.257812,-0.19921875 0.01172,-0.01171875 0.01172,-0.03515625 0.199219,-0.22265625 0.433594,0.421875 0.878906,0.421875 1.089844,0.421875 1.148437,0 1.605469,-0.66796875 1.605469,-1.38281254 z m 5.425781,1.27734379 v -0.3046875 c -0.363281,0 -0.585938,0 -0.960938,-0.52734375 L 61.37007,-2.6263828 c -0.01172,-0.011719 -0.05859,-0.070312 -0.05859,-0.1054688 0,-0.035156 0.703125,-0.6328125 0.808593,-0.7148437 0.621094,-0.5039063 1.042969,-0.5273438 1.253907,-0.5390625 v -0.3046875 c -0.292969,0.023437 -0.421875,0.023437 -0.703125,0.023437 -0.351563,0 -0.972657,-0.023437 -1.113282,-0.023437 v 0.3046875 c 0.1875,0.011719 0.292969,0.1171875 0.292969,0.2460937 0,0.1992188 -0.140625,0.3164063 -0.222656,0.3867188 l -1.40625,1.21875 v -4.78125 l -1.429688,0.1054687 v 0.3164063 c 0.691407,0 0.773438,0.070312 0.773438,0.5507812 v 5.17968754 c 0,0.45703125 -0.105469,0.45703125 -0.773438,0.45703125 v 0.3046875 l 1.078125,-0.03515625 1.101563,0.03515625 v -0.3046875 c -0.667969,0 -0.773438,0 -0.773438,-0.45703125 V -1.7826328 l 0.632813,-0.5507813 c 0.773437,1.0546875 1.183594,1.61718754 1.183594,1.79296879 0,0.1875 -0.164063,0.234375 -0.351563,0.234375 v 0.3046875 l 1.066406,-0.03515625 c 0.292969,0 0.585938,0.01171875 0.867188,0.03515625 z m 0,0"
       style="fill:#000000;fill-opacity:1;fill-rule:nonzero;stroke:none"
       aria-label="pregnancyrisk"
       transform="matrix(1.3333333,0,0,1.3333333,151.66933,13.912)" />
    <path
       id="path5"
       d="m -134.76665,-7.79881 h 99.45242 V 7.79883 h -99.45242 z"
       style="fill:none;stroke:#000000;stroke-width:0.3985;stroke-linecap:butt;stroke-linejoin:miter;stroke-miterlimit:10;stroke-dasharray:none;stroke-opacity:1"
       transform="matrix(1.3333333,0,0,-1.3333333,179.952,124.056)" />
    <path
       id="path6"
       d="m 4.2524609,-6.0463594 c 0.070312,-0.28125 0.1054688,-0.3398437 0.234375,-0.3632812 0.082031,-0.023437 0.4101563,-0.023437 0.6210938,-0.023437 1.0078125,0 1.453125,0.035156 1.453125,0.8203125 0,0.140625 -0.035156,0.5273437 -0.082031,0.796875 0,0.035156 -0.023437,0.1523437 -0.023437,0.1875 0,0.058594 0.023437,0.1289062 0.1171875,0.1289062 0.1054688,0 0.1289063,-0.082031 0.1523438,-0.234375 l 0.2695312,-1.734375 c 0.011719,-0.035156 0.011719,-0.140625 0.011719,-0.1640625 0,-0.1054687 -0.09375,-0.1054687 -0.2695313,-0.1054687 H 1.2173047 c -0.24609376,0 -0.25781251,0 -0.31640626,0.1992187 l -0.59765625,1.7460938 c -0.0117188,0.023437 -0.0703125,0.1640625 -0.0703125,0.1757812 0,0.070312 0.0585938,0.1171875 0.12890625,0.1171875 0.09375,0 0.10546875,-0.046875 0.1640625,-0.2109375 0.53906246,-1.546875 0.79687496,-1.7226562 2.27343746,-1.7226562 h 0.3867188 c 0.28125,0 0.28125,0.035156 0.28125,0.1171875 0,0.058594 -0.035156,0.1757812 -0.046875,0.2109375 l -1.3242188,5.32031247 c -0.09375,0.36328125 -0.1289062,0.48046875 -1.19531246,0.48046875 -0.3515625,0 -0.41015625,0 -0.41015625,0.1875 0,0.117187505 0.10546875,0.117187505 0.1640625,0.117187505 0.26953125,0 0.55078121,-0.023437505 0.82031251,-0.023437505 0.28125,0 0.5625,-0.01171875 0.84375,-0.01171875 0.28125,0 0.5625,0.01171875 0.8320312,0.01171875 0.28125,0 0.5859375,0.023437505 0.8671875,0.023437505 0.09375,0 0.2109375,0 0.2109375,-0.199218755 0,-0.10546875 -0.082031,-0.10546875 -0.3398437,-0.10546875 -0.2460938,0 -0.375,0 -0.6328125,-0.0234375 -0.2929688,-0.0351563 -0.3632813,-0.0585938 -0.3632813,-0.22265625 0,-0.0117188 0,-0.0585938 0.035156,-0.2109375 z m 0,0"
       style="fill:#000000;fill-opacity:1;fill-rule:nonzero;stroke:none"
       aria-label="T"
       transform="matrix(1.3333333,0,0,1.3333333,4.6933333,127.304)" />
    <path
       id="path7"
       d="m 6.8448906,-3.2572969 c 0.1523438,0 0.3398438,0 0.3398438,-0.1992187 0,-0.1992188 -0.1875,-0.1992188 -0.328125,-0.1992188 H 0.89176562 c -0.140625,0 -0.328125,0 -0.328125,0.1992188 0,0.1992187 0.1875,0.1992187 0.33984375,0.1992187 z m 0.011719,1.9335938 c 0.140625,0 0.328125,0 0.328125,-0.1992188 0,-0.1992187 -0.1875,-0.1992187 -0.3398438,-0.1992187 H 0.90348437 c -0.15234375,0 -0.33984375,0 -0.33984375,0.1992187 0,0.1992188 0.1875,0.1992188 0.328125,0.1992188 z m 0,0"
       style="fill:#000000;fill-opacity:1;fill-rule:nonzero;stroke:none"
       aria-label="="
       transform="matrix(1.3333333,0,0,1.3333333,17.990667,127.304)" />
    <path
       id="path8"
       d="M 5.3326016,5.15625e-4 V -0.30417188 c -0.515625,0 -0.7734375,0 -0.7851563,-0.3046875 V -2.5072969 c 0,-0.8554687 0,-1.171875 -0.3046875,-1.5234375 -0.140625,-0.1757812 -0.46875,-0.375 -1.0429687,-0.375 -0.84375,0 -1.2773438,0.5976563 -1.4414063,0.9609375 v -3.46875 l -1.44140624,0.1054688 v 0.3164062 c 0.70312504,0 0.78515624,0.070312 0.78515624,0.5507813 v 5.17968747 c 0,0.45703125 -0.11718749,0.45703125 -0.78515624,0.45703125 V 5.15625e-4 L 1.4419766,-0.03464063 2.5552578,5.15625e-4 V -0.30417188 c -0.65625,0 -0.7734375,0 -0.7734375,-0.45703125 V -2.5893281 c 0,-1.03125 0.7148438,-1.59375 1.3476563,-1.59375 0.6210937,0 0.7382812,0.5390625 0.7382812,1.1015625 v 2.32031247 c 0,0.45703125 -0.1171875,0.45703125 -0.7734375,0.45703125 V 5.15625e-4 l 1.125,-0.035156255 z M 10.228109,-2.1322969 c 0,-1.2773437 -0.9960934,-2.3320312 -2.1914059,-2.3320312 -1.2539062,0 -2.2148437,1.0898437 -2.2148437,2.3320312 0,1.28906252 1.03125,2.23828127 2.203125,2.23828127 1.2070312,0 2.2031246,-0.97265625 2.2031246,-2.23828127 z m -0.8203121,-0.082031 c 0,0.3632812 0,0.9023437 -0.2226563,1.33593747 -0.2226562,0.4453125 -0.65625,0.73828125 -1.1484375,0.73828125 -0.4335937,0 -0.8671875,-0.2109375 -1.1367187,-0.66796875 C 6.6421719,-1.2416719 6.6421719,-1.8510469 6.6421719,-2.2143281 c 0,-0.3867188 0,-0.9257813 0.2460937,-1.359375 0.2695313,-0.4570313 0.7382813,-0.6679688 1.1367188,-0.6679688 0.4335937,0 0.8671875,0.2226563 1.125,0.6445313 0.2578125,0.4335937 0.2578125,1.0078125 0.2578125,1.3828127 z m 4.6992191,0.9375 c 0,-0.5273438 -0.292969,-0.8203125 -0.421875,-0.9492188 -0.328125,-0.3164062 -0.714844,-0.3984375 -1.136719,-0.46875 -0.550781,-0.1171875 -1.21875,-0.2460937 -1.21875,-0.8203125 0,-0.3515625 0.257812,-0.7617187 1.113281,-0.7617187 1.101563,0 1.148438,0.9023437 1.171875,1.2070312 0,0.09375 0.117188,0.09375 0.117188,0.09375 0.128906,0 0.128906,-0.046875 0.128906,-0.2460937 v -0.9960938 c 0,-0.1757812 0,-0.2460937 -0.117188,-0.2460937 -0.04687,0 -0.07031,0 -0.199218,0.1171875 -0.02344,0.046875 -0.128907,0.1289062 -0.164063,0.1640625 -0.375,-0.28125 -0.785156,-0.28125 -0.9375,-0.28125 -1.21875,0 -1.59375,0.6679687 -1.59375,1.2304687 0,0.3398438 0.164063,0.6210938 0.433594,0.84375 0.316406,0.2578125 0.597656,0.3164063 1.3125,0.4570313 0.222656,0.035156 1.03125,0.1992187 1.03125,0.9140625 0,0.51562497 -0.351563,0.91406247 -1.125,0.91406247 -0.832031,0 -1.195313,-0.57421875 -1.382813,-1.41796877 -0.03516,-0.1289062 -0.03516,-0.1757812 -0.140625,-0.1757812 -0.128906,0 -0.128906,0.070312 -0.128906,0.2578125 v 1.31249997 c 0,0.1640625 0,0.234375 0.105469,0.234375 0.05859,0 0.07031,0 0.257812,-0.19921875 0.01172,-0.01171875 0.01172,-0.03515625 0.199219,-0.22265625 0.433594,0.421875 0.878906,0.421875 1.089844,0.421875 1.148437,0 1.605469,-0.66796875 1.605469,-1.38281247 z m 5.53125,-0.8789063 c 0,-1.265625 -0.972657,-2.25 -2.085938,-2.25 -0.773437,0 -1.195312,0.4453125 -1.394531,0.65625 v -0.65625 l -1.429688,0.1171875 v 0.3046875 c 0.703125,0 0.773438,0.058594 0.773438,0.4921875 v 4.6640625 c 0,0.4570313 -0.105469,0.4570313 -0.773438,0.4570313 v 0.3046875 l 1.113282,-0.035156 1.125,0.035156 V 1.6294219 c -0.667969,0 -0.773438,0 -0.773438,-0.4570313 v -1.75781248 c 0.04687,0.15234375 0.46875,0.69140625 1.21875,0.69140625 1.183594,0 2.226563,-0.97265625 2.226563,-2.26171857 z m -0.832032,0 c 0,1.20703127 -0.691406,2.05078127 -1.429687,2.05078127 -0.398438,0 -0.773438,-0.19921875 -1.042969,-0.609375 -0.140625,-0.2109375 -0.140625,-0.22265625 -0.140625,-0.42187497 v -2.2148438 c 0.28125,-0.515625 0.773438,-0.796875 1.277344,-0.796875 0.726562,0 1.335937,0.8671875 1.335937,1.9921875 z M 22.444906,5.15625e-4 V -0.30417188 c -0.65625,0 -0.703125,-0.0585938 -0.703125,-0.4453125 V -4.4057344 l -1.394531,0.1171875 v 0.3046875 c 0.65625,0 0.738281,0.058594 0.738281,0.5507813 v 2.67187497 c 0,0.45703125 -0.105469,0.45703125 -0.773437,0.45703125 V 5.15625e-4 l 1.101562,-0.035156255 c 0.339844,0 0.691406,0.0234375 1.03125,0.035156255 z M 21.894125,-6.0112031 c 0,-0.2695313 -0.222656,-0.5273438 -0.527344,-0.5273438 -0.339844,0 -0.539062,0.2695313 -0.539062,0.5273438 0,0.2695312 0.234375,0.5273437 0.527343,0.5273437 0.339844,0 0.539063,-0.28125 0.539063,-0.5273437 z m 4.166016,4.78125 v -0.5742188 h -0.246094 v 0.5507813 c 0,0.73828122 -0.304688,1.11328122 -0.667969,1.11328122 -0.667969,0 -0.667969,-0.90234372 -0.667969,-1.07812502 v -2.765625 h 1.429688 v -0.3046875 h -1.429688 v -1.8398437 h -0.246093 c -0.01172,0.8203125 -0.316407,1.8867187 -1.289063,1.921875 v 0.2226562 h 0.84375 v 2.7539063 c 0,1.21874997 0.925781,1.33593747 1.289063,1.33593747 0.703125,0 0.984375,-0.703125 0.984375,-1.33593747 z m 5.387695,0.33984372 V -1.4408906 h -0.257813 v 0.55078122 c 0,0.5859375 -0.246093,0.64453125 -0.351562,0.64453125 -0.328125,0 -0.375,-0.45703125 -0.375,-0.50390625 V -2.7416719 c 0,-0.4101562 0,-0.8085937 -0.351563,-1.171875 -0.386718,-0.3867187 -0.890625,-0.5507812 -1.371093,-0.5507812 -0.808594,0 -1.5,0.46875 -1.5,1.125 0,0.3046875 0.199218,0.46875 0.457031,0.46875 0.28125,0 0.457031,-0.1992188 0.457031,-0.4570313 0,-0.1171875 -0.04687,-0.4453125 -0.503906,-0.4570312 0.269531,-0.3515625 0.75,-0.4570313 1.078125,-0.4570313 0.480469,0 1.054687,0.3867188 1.054687,1.2773438 v 0.3632812 c -0.515625,0.035156 -1.207031,0.058594 -1.839843,0.3632813 -0.75,0.3398437 -0.996094,0.8554687 -0.996094,1.28906247 0,0.80859375 0.972656,1.0546875 1.59375,1.0546875 0.65625,0 1.113281,-0.3984375 1.3125,-0.8671875 0.03516,0.3984375 0.304687,0.8203125 0.773437,0.8203125 0.210938,0 0.820313,-0.140625 0.820313,-0.94921875 z M 29.783773,-1.3940156 c 0,0.94921872 -0.726562,1.28906247 -1.171875,1.28906247 -0.480468,0 -0.890625,-0.3515625 -0.890625,-0.85546875 0,-0.53906252 0.410157,-1.37109372 2.0625,-1.42968752 z M 34.154867,5.15625e-4 V -0.30417188 c -0.667969,0 -0.785156,0 -0.785156,-0.45703125 V -6.9135469 l -1.429688,0.1054688 v 0.3164062 c 0.703125,0 0.773438,0.070312 0.773438,0.5507813 v 5.17968747 c 0,0.45703125 -0.105469,0.45703125 -0.773438,0.45703125 V 5.15625e-4 l 1.101563,-0.035156255 z m 8.794922,0 V -0.30417188 c -0.703125,0 -0.773437,-0.0703125 -0.773437,-0.5625 V -6.9135469 l -1.441407,0.1054688 v 0.3164062 c 0.703125,0 0.785157,0.070312 0.785157,0.5507813 v 2.15625 c -0.292969,-0.3632813 -0.726563,-0.6210938 -1.265625,-0.6210938 -1.171875,0 -2.214844,0.984375 -2.214844,2.2617188 0,1.26562497 0.972656,2.24999997 2.109375,2.24999997 0.644531,0 1.089844,-0.33984375 1.335937,-0.65625 v 0.65625 z M 41.484945,-1.1713594 c 0,0.17578127 0,0.19921877 -0.105468,0.36328127 -0.304688,0.48046875 -0.75,0.703125 -1.183594,0.703125 -0.445313,0 -0.796875,-0.2578125 -1.042969,-0.64453125 -0.257812,-0.41015622 -0.292969,-0.97265622 -0.292969,-1.38281252 0,-0.3632812 0.02344,-0.9609375 0.316407,-1.4179687 0.210937,-0.3046875 0.585937,-0.6328125 1.125,-0.6328125 0.351562,0 0.761718,0.1523437 1.078125,0.5976562 0.105468,0.1640625 0.105468,0.1875 0.105468,0.3632813 z m 5.888672,-0.011719 c 0,-0.1054688 -0.08203,-0.1171875 -0.128906,-0.1171875 -0.09375,0 -0.117188,0.058594 -0.128906,0.140625 -0.351563,1.01953122 -1.253907,1.01953122 -1.347657,1.01953122 -0.503906,0 -0.902343,-0.29296875 -1.125,-0.66796875 C 44.338461,-1.2885469 44.338461,-1.9447969 44.338461,-2.2963594 h 2.789062 c 0.210938,0 0.246094,0 0.246094,-0.2109375 0,-0.984375 -0.539062,-1.9570312 -1.78125,-1.9570312 -1.160156,0 -2.074219,1.03125 -2.074219,2.2734375 0,1.33593747 1.042969,2.29687497 2.191407,2.29687497 1.21875,0 1.664062,-1.1015625 1.664062,-1.28906277 z m -0.65625,-1.3242188 H 44.35018 c 0.05859,-1.4882812 0.902343,-1.734375 1.242187,-1.734375 1.019531,0 1.125,1.3476563 1.125,1.734375 z M 50.203695,5.15625e-4 V -0.30417188 c -0.667968,0 -0.785156,0 -0.785156,-0.45703125 V -6.9135469 l -1.429687,0.1054688 v 0.3164062 c 0.703125,0 0.773437,0.070312 0.773437,0.5507813 v 5.17968747 c 0,0.45703125 -0.105469,0.45703125 -0.773437,0.45703125 V 5.15625e-4 l 1.101562,-0.035156255 z m 2.689453,0 V -0.30417188 c -0.65625,0 -0.703125,-0.0585938 -0.703125,-0.4453125 V -4.4057344 l -1.394531,0.1171875 v 0.3046875 c 0.65625,0 0.738281,0.058594 0.738281,0.5507813 v 2.67187497 c 0,0.45703125 -0.105468,0.45703125 -0.773437,0.45703125 V 5.15625e-4 l 1.101562,-0.035156255 c 0.339844,0 0.691407,0.0234375 1.03125,0.035156255 z M 52.342367,-6.0112031 c 0,-0.2695313 -0.222656,-0.5273438 -0.527344,-0.5273438 -0.339843,0 -0.539062,0.2695313 -0.539062,0.5273438 0,0.2695312 0.234375,0.5273437 0.527344,0.5273437 0.339843,0 0.539062,-0.28125 0.539062,-0.5273437 z m 5.920899,2.0273437 v -0.3046875 c -0.234375,0.011719 -0.515625,0.023437 -0.75,0.023437 l -0.867188,-0.023437 v 0.3046875 c 0.375,0.011719 0.480469,0.234375 0.480469,0.4335938 0,0.082031 -0.02344,0.1289062 -0.05859,0.234375 l -1.019531,2.54296872 -1.113281,-2.77734372 c -0.05859,-0.140625 -0.05859,-0.1757813 -0.05859,-0.1757813 0,-0.2578125 0.386719,-0.2578125 0.5625,-0.2578125 v -0.3046875 l -1.078125,0.023437 c -0.269531,0 -0.667969,-0.011719 -0.972656,-0.023437 v 0.3046875 c 0.632812,0 0.667968,0.058594 0.796875,0.3632813 l 1.441406,3.53906247 c 0.05859,0.140625 0.07031,0.1875 0.199219,0.1875 0.128906,0 0.175781,-0.08203125 0.210937,-0.1875 l 1.3125,-3.23437497 c 0.08203,-0.234375 0.257813,-0.65625 0.914063,-0.6679688 z m 4.054687,2.8007813 c 0,-0.1054688 -0.08203,-0.1171875 -0.128906,-0.1171875 -0.09375,0 -0.117188,0.058594 -0.128906,0.140625 -0.351563,1.01953122 -1.253907,1.01953122 -1.347657,1.01953122 -0.503906,0 -0.902343,-0.29296875 -1.125,-0.66796875 C 59.282797,-1.2885469 59.282797,-1.9447969 59.282797,-2.2963594 h 2.789062 c 0.210938,0 0.246094,0 0.246094,-0.2109375 0,-0.984375 -0.539062,-1.9570312 -1.78125,-1.9570312 -1.160156,0 -2.074219,1.03125 -2.074219,2.2734375 0,1.33593747 1.042969,2.29687497 2.191407,2.29687497 1.21875,0 1.664062,-1.1015625 1.664062,-1.28906247 z m -0.65625,-1.3242188 h -2.367187 c 0.05859,-1.4882812 0.902343,-1.734375 1.242187,-1.734375 1.019531,0 1.125,1.3476563 1.125,1.734375 z m 4.564453,-1.2890625 c 0,-0.3164062 -0.304687,-0.609375 -0.726562,-0.609375 -0.738282,0 -1.089844,0.6679688 -1.230469,1.1015625 v -1.1015625 l -1.382813,0.1171875 v 0.3046875 c 0.691407,0 0.773438,0.070312 0.773438,0.5625 v 2.66015627 c 0,0.45703125 -0.105469,0.45703125 -0.773438,0.45703125 V 5.15625e-4 l 1.136719,-0.035156255 c 0.398438,0 0.867188,0 1.265625,0.035156255 V -0.30417188 h -0.210937 c -0.738282,0 -0.761719,-0.1171875 -0.761719,-0.46875 V -2.3080781 c 0,-0.984375 0.421875,-1.875 1.183594,-1.875 0.05859,0 0.08203,0 0.105468,0.011719 -0.03516,0.011719 -0.234375,0.1289063 -0.234375,0.3867188 0,0.28125 0.210938,0.4335937 0.433594,0.4335937 0.175781,0 0.421875,-0.1289062 0.421875,-0.4453128 z m 5.34668,-0.1875 v -0.3046875 c -0.234375,0.011719 -0.515625,0.023437 -0.75,0.023437 l -0.867188,-0.023437 v 0.3046875 c 0.304688,0.011719 0.46875,0.1757813 0.46875,0.4335938 0,0.09375 -0.01172,0.1171875 -0.05859,0.234375 L 69.357992,-0.86667188 68.25643,-3.5502656 c -0.04687,-0.09375 -0.05859,-0.140625 -0.05859,-0.1757813 0,-0.2578125 0.363281,-0.2578125 0.550781,-0.2578125 v -0.3046875 l -1.078125,0.023437 c -0.269531,0 -0.667969,-0.011719 -0.972656,-0.023437 v 0.3046875 c 0.480469,0 0.667969,0 0.808594,0.3515625 l 1.5,3.632812525 -0.257813,0.585937495 C 68.53768,1.1372344 68.25643,1.8286406 67.611898,1.8286406 c -0.04687,0 -0.269531,0 -0.46875,-0.1875 0.316407,-0.035156 0.398438,-0.2578125 0.398438,-0.4101562 0,-0.26953128 -0.199219,-0.42187503 -0.421875,-0.42187503 -0.199219,0 -0.421875,0.12890625 -0.421875,0.42187503 0,0.4570312 0.421875,0.8085937 0.914062,0.8085937 0.632813,0 1.042969,-0.5625 1.277344,-1.13671873 l 1.757813,-4.25390627 c 0.257812,-0.6210937 0.761718,-0.6328125 0.925781,-0.6328125 z m 0,0"
       style="fill:#000000;fill-opacity:1;fill-rule:nonzero;stroke:none"
       aria-label="hospitaldelivery"
       transform="matrix(1.3333333,0,0,1.3333333,32.745333,127.304)" />
    <path
       id="path9"
       d="M 32.33775,-6.83243 H 137.74308 V 6.83244 H 32.33775 Z"
       style="fill:none;stroke:#000000;stroke-width:0.3985;stroke-linecap:butt;stroke-linejoin:miter;stroke-miterlimit:10;stroke-dasharray:none;stroke-opacity:1"
       transform="matrix(1.3333333,0,0,-1.3333333,179.952,124.056)" />
    <path
       id="path10"
       d="m 5.9414766,-5.6705625 0.140625,-0.140625 c 0.3046875,-0.2929687 0.6328125,-0.6328125 1.3125,-0.6796875 0.1054687,-0.011719 0.1992187,-0.011719 0.1992187,-0.1875 0,-0.082031 -0.058594,-0.1289062 -0.1289062,-0.1289062 -0.2578125,0 -0.5507813,0.035156 -0.8203125,0.035156 -0.328125,0 -0.6796875,-0.035156 -0.9960938,-0.035156 -0.058594,0 -0.1875,0 -0.1875,0.1992187 0,0.1054688 0.09375,0.1171875 0.1523438,0.1171875 0.070312,0 0.3515625,0.011719 0.3515625,0.2226563 0,0.1757812 -0.2226563,0.4335937 -0.2695313,0.4804687 l -2.3085937,2.6601563 -1.0898438,-2.953125 c -0.070312,-0.140625 -0.070312,-0.1640625 -0.070312,-0.1757813 0,-0.234375 0.4921875,-0.234375 0.5976563,-0.234375 0.1289062,0 0.234375,0 0.234375,-0.1992187 0,-0.1171875 -0.1171875,-0.1171875 -0.1523438,-0.1171875 -0.28125,0 -0.9726562,0.035156 -1.2539062,0.035156 -0.2460938,0 -0.86718754,-0.035156 -1.11328129,-0.035156 -0.0585938,0 -0.1875,0 -0.1875,0.1992187 0,0.1171875 0.09375,0.1171875 0.22265625,0.1171875 0.59765624,0 0.64453124,0.082031 0.72656254,0.3398438 L 2.5313203,-2.8815 c 0.011719,0.035156 0.035156,0.140625 0.035156,0.1757813 0,0.023437 -0.3984375,1.6289062 -0.4453125,1.80468745 -0.1289063,0.55078125 -0.140625,0.5859375 -0.9375,0.59765625 -0.18750004,0 -0.26953129,0 -0.26953129,0.19921875 0,0.10546875 0.11718749,0.10546875 0.14062499,0.10546875 0.28125,0 0.9726563,-0.03515625 1.2539063,-0.03515625 0.28125,0 0.9960937,0.03515625 1.2773437,0.03515625 0.070312,0 0.1875,0 0.1875,-0.19921875 0,-0.10546875 -0.082031,-0.10546875 -0.28125,-0.10546875 -0.011719,0 -0.1992187,0 -0.375,-0.0234375 C 2.9063203,-0.35025 2.8477266,-0.36196875 2.8477266,-0.490875 c 0,-0.0703125 0.09375,-0.41015625 0.140625,-0.6210937 l 0.3515625,-1.40625 c 0.046875,-0.1875 0.058594,-0.2226563 0.140625,-0.3046875 z m 0,0"
       style="fill:#000000;fill-opacity:1;fill-rule:nonzero;stroke:none"
       aria-label="Y"
       transform="matrix(1.3333333,0,0,1.3333333,227.496,128.592)" />
    <path
       id="path11"
       d="m 6.8424922,-3.2565 c 0.1523437,0 0.3398437,0 0.3398437,-0.1992187 0,-0.1992188 -0.1875,-0.1992188 -0.328125,-0.1992188 H 0.88936719 c -0.140625,0 -0.328125,0 -0.328125,0.1992188 0,0.1992187 0.1875,0.1992187 0.33984375,0.1992187 z m 0.011719,1.9335938 c 0.140625,0 0.328125,0 0.328125,-0.1992188 0,-0.1992187 -0.1875,-0.1992187 -0.3398437,-0.1992187 H 0.90108594 c -0.15234375,0 -0.33984375,0 -0.33984375,0.1992187 0,0.1992188 0.1875,0.1992188 0.328125,0.1992188 z m 0,0"
       style="fill:#000000;fill-opacity:1;fill-rule:nonzero;stroke:none"
       aria-label="="
       transform="matrix(1.3333333,0,0,1.3333333,241.84933,128.592)" />
    <path
       id="path12"
       d="M 5.3331328,0.0013125 V -0.303375 c -0.515625,0 -0.7734375,0 -0.7851562,-0.3046875 V -2.5065 c 0,-0.8554687 0,-1.171875 -0.3046875,-1.5234375 -0.140625,-0.1757812 -0.46875,-0.375 -1.0429688,-0.375 -0.7265625,0 -1.1953125,0.4335938 -1.4765625,1.0546875 V -4.4049375 L 0.31750781,-4.28775 v 0.3046875 c 0.70312499,0 0.78515629,0.070312 0.78515629,0.5625 v 2.66015625 c 0,0.45703125 -0.11718754,0.45703125 -0.78515629,0.45703125 V 0.0013125 L 1.4425078,-0.03384375 2.5557891,0.0013125 V -0.303375 c -0.65625,0 -0.7734375,0 -0.7734375,-0.45703125 V -2.5885312 c 0,-1.03125 0.7148437,-1.59375 1.3476562,-1.59375 0.6210938,0 0.7382813,0.5390625 0.7382813,1.1015625 v 2.32031245 c 0,0.45703125 -0.1171875,0.45703125 -0.7734375,0.45703125 v 0.3046875 l 1.125,-0.03515625 z m 4.3417969,-1.1835937 c 0,-0.1054688 -0.082031,-0.1171875 -0.1289063,-0.1171875 -0.09375,0 -0.1171875,0.058594 -0.1289062,0.140625 -0.3515625,1.0195312 -1.2539063,1.0195312 -1.3476563,1.0195312 -0.5039062,0 -0.9023437,-0.29296875 -1.125,-0.66796875 C 6.6397734,-1.28775 6.6397734,-1.944 6.6397734,-2.2955625 h 2.7890625 c 0.2109375,0 0.2460938,0 0.2460938,-0.2109375 0,-0.984375 -0.5390625,-1.9570312 -1.78125,-1.9570312 -1.1601563,0 -2.0742188,1.03125 -2.0742188,2.2734375 0,1.33593745 1.0429688,2.29687495 2.1914063,2.29687495 1.21875,0 1.6640625,-1.1015625 1.6640625,-1.28906245 z M 9.0186797,-2.5065 H 6.6514922 c 0.058594,-1.4882812 0.9023437,-1.734375 1.2421875,-1.734375 1.0195312,0 1.125,1.3476563 1.125,1.734375 z m 5.6308593,0.375 c 0,-1.2773437 -0.996094,-2.3320312 -2.191406,-2.3320312 -1.253906,0 -2.214844,1.0898437 -2.214844,2.3320312 0,1.2890625 1.03125,2.23828125 2.203125,2.23828125 1.207031,0 2.203125,-0.97265625 2.203125,-2.23828125 z m -0.820312,-0.082031 c 0,0.3632812 0,0.9023437 -0.222657,1.33593745 -0.222656,0.4453125 -0.65625,0.73828125 -1.148437,0.73828125 -0.433594,0 -0.867188,-0.2109375 -1.136719,-0.66796875 C 11.063602,-1.240875 11.063602,-1.85025 11.063602,-2.2135312 c 0,-0.3867188 0,-0.9257813 0.246093,-1.359375 0.269532,-0.4570313 0.738282,-0.6679688 1.136719,-0.6679688 0.433594,0 0.867188,0.2226563 1.125,0.6445313 0.257813,0.4335937 0.257813,1.0078125 0.257813,1.3828127 z m 6.445312,2.2148437 V -0.303375 c -0.515625,0 -0.773437,0 -0.785156,-0.3046875 V -2.5065 c 0,-0.8554687 0,-1.171875 -0.304688,-1.5234375 -0.140625,-0.1757812 -0.46875,-0.375 -1.042968,-0.375 -0.726563,0 -1.195313,0.4335938 -1.476563,1.0546875 v -1.0546875 l -1.40625,0.1171875 v 0.3046875 c 0.703125,0 0.785156,0.070312 0.785156,0.5625 v 2.66015625 c 0,0.45703125 -0.117187,0.45703125 -0.785156,0.45703125 v 0.3046875 l 1.125,-0.03515625 1.113281,0.03515625 V -0.303375 c -0.65625,0 -0.773437,0 -0.773437,-0.45703125 V -2.5885312 c 0,-1.03125 0.714844,-1.59375 1.347656,-1.59375 0.621094,0 0.738281,0.5390625 0.738281,1.1015625 v 2.32031245 c 0,0.45703125 -0.117187,0.45703125 -0.773437,0.45703125 v 0.3046875 l 1.125,-0.03515625 z m 5.024414,-0.890625 v -0.5507812 h -0.257812 v 0.5507812 c 0,0.5859375 -0.246094,0.64453125 -0.351563,0.64453125 -0.328125,0 -0.375,-0.45703125 -0.375,-0.50390625 V -2.740875 c 0,-0.4101562 0,-0.8085937 -0.351562,-1.171875 -0.386719,-0.3867187 -0.890625,-0.5507812 -1.371094,-0.5507812 -0.808594,0 -1.5,0.46875 -1.5,1.125 0,0.3046875 0.199219,0.46875 0.457031,0.46875 0.28125,0 0.457031,-0.1992188 0.457031,-0.4570313 0,-0.1171875 -0.04687,-0.4453125 -0.503906,-0.4570312 0.269531,-0.3515625 0.75,-0.4570313 1.078125,-0.4570313 0.480469,0 1.054688,0.3867188 1.054688,1.2773438 V -2.60025 c -0.515625,0.035156 -1.207032,0.058594 -1.839844,0.3632813 -0.75,0.3398437 -0.996094,0.8554687 -0.996094,1.28906245 0,0.80859375 0.972656,1.0546875 1.59375,1.0546875 0.65625,0 1.113281,-0.3984375 1.3125,-0.8671875 0.03516,0.3984375 0.304688,0.8203125 0.773438,0.8203125 0.210937,0 0.820312,-0.140625 0.820312,-0.94921855 z m -1.664062,-0.5039062 c 0,0.9492187 -0.726563,1.28906245 -1.171875,1.28906245 -0.480469,0 -0.890625,-0.3515625 -0.890625,-0.85546875 0,-0.5390625 0.410156,-1.3710937 2.0625,-1.4296875 z m 5.135742,0.1640625 v -0.574219 h -0.246094 v 0.5507813 c 0,0.7382812 -0.304687,1.1132812 -0.667969,1.1132812 -0.667968,0 -0.667968,-0.9023437 -0.667968,-1.078125 v -2.765625 h 1.429687 V -4.28775 h -1.429687 v -1.8398437 h -0.246094 c -0.01172,0.8203125 -0.316406,1.8867187 -1.289063,1.921875 v 0.2226562 h 0.84375 v 2.7539063 c 0,1.21874995 0.925782,1.33593745 1.289063,1.33593745 0.703125,0 0.984375,-0.703125 0.984375,-1.33593725 z m 5.384765,0.3398437 v -0.5507812 h -0.257812 v 0.5507812 c 0,0.5859375 -0.246094,0.64453125 -0.351563,0.64453125 -0.328125,0 -0.375,-0.45703125 -0.375,-0.50390625 V -2.740875 c 0,-0.4101562 0,-0.8085937 -0.351562,-1.171875 -0.386719,-0.3867187 -0.890625,-0.5507812 -1.371094,-0.5507812 -0.808594,0 -1.5,0.46875 -1.5,1.125 0,0.3046875 0.199219,0.46875 0.457031,0.46875 0.28125,0 0.457032,-0.1992188 0.457032,-0.4570313 0,-0.1171875 -0.04687,-0.4453125 -0.503907,-0.4570312 0.269532,-0.3515625 0.75,-0.4570313 1.078125,-0.4570313 0.480469,0 1.054688,0.3867188 1.054688,1.2773438 V -2.60025 c -0.515625,0.035156 -1.207031,0.058594 -1.839844,0.3632813 -0.75,0.3398437 -0.996094,0.8554687 -0.996094,1.28906245 0,0.80859375 0.972657,1.0546875 1.59375,1.0546875 0.65625,0 1.113282,-0.3984375 1.3125,-0.8671875 0.03516,0.3984375 0.304688,0.8203125 0.773438,0.8203125 0.210937,0 0.820312,-0.140625 0.820312,-0.94921855 z m -1.664062,-0.5039062 c 0,0.9492187 -0.726563,1.28906245 -1.171875,1.28906245 -0.480469,0 -0.890625,-0.3515625 -0.890625,-0.85546875 0,-0.5390625 0.410156,-1.3710937 2.0625,-1.4296875 z m 4.374023,1.3945312 V -0.303375 c -0.667968,0 -0.785156,0 -0.785156,-0.45703125 V -6.91275 l -1.429687,0.1054688 v 0.3164062 c 0.703125,0 0.773437,0.070312 0.773437,0.5507813 v 5.17968745 c 0,0.45703125 -0.105469,0.45703125 -0.773437,0.45703125 v 0.3046875 l 1.101562,-0.03515625 z M 45.094852,-2.1315 c 0,-1.2773437 -0.996094,-2.3320312 -2.191407,-2.3320312 -1.253906,0 -2.214843,1.0898437 -2.214843,2.3320312 0,1.2890625 1.03125,2.23828125 2.203125,2.23828125 1.207031,0 2.203125,-0.97265625 2.203125,-2.23828125 z m -0.820313,-0.082031 c 0,0.3632812 0,0.9023437 -0.222656,1.33593745 -0.222656,0.4453125 -0.65625,0.73828125 -1.148438,0.73828125 -0.433593,0 -0.867187,-0.2109375 -1.136718,-0.66796875 C 41.508914,-1.240875 41.508914,-1.85025 41.508914,-2.2135312 c 0,-0.3867188 0,-0.9257813 0.246094,-1.359375 0.269531,-0.4570313 0.738281,-0.6679688 1.136719,-0.6679688 0.433593,0 0.867187,0.2226563 1.125,0.6445313 0.257812,0.4335937 0.257812,1.0078125 0.257812,1.3828127 z m 6.448242,2.2148437 V -0.303375 c -0.703125,0 -0.785156,-0.0703125 -0.785156,-0.5625 V -4.4049375 L 48.4845,-4.28775 v 0.3046875 c 0.691406,0 0.773438,0.070312 0.773438,0.5625 v 1.7695313 c 0,0.86718745 -0.480469,1.54687495 -1.207032,1.54687495 -0.832031,0 -0.878906,-0.46875 -0.878906,-0.99609375 V -4.4049375 L 45.707156,-4.28775 v 0.3046875 c 0.785157,0 0.785157,0.035156 0.785157,0.9140625 v 1.5 c 0,0.7734375 0,1.67578125 1.511718,1.67578125 0.550782,0 0.996094,-0.26953125 1.277344,-0.890625 v 0.890625 z m 3.509766,-1.2304687 v -0.574219 h -0.246094 v 0.5507813 c 0,0.7382812 -0.304687,1.1132812 -0.667969,1.1132812 -0.667968,0 -0.667968,-0.9023437 -0.667968,-1.078125 v -2.765625 h 1.429687 V -4.28775 h -1.429687 v -1.8398437 h -0.246094 c -0.01172,0.8203125 -0.316406,1.8867187 -1.289063,1.921875 v 0.2226562 h 0.84375 v 2.7539063 c 0,1.21874995 0.925782,1.33593745 1.289063,1.33593745 0.703125,0 0.984375,-0.703125 0.984375,-1.33593725 z m 4.708008,0.046875 c 0,-0.1054688 -0.105469,-0.1054688 -0.128907,-0.1054688 -0.09375,0 -0.117187,0.046875 -0.128906,0.1054688 -0.292969,0.9257812 -0.9375,1.0429687 -1.3125,1.0429687 -0.527344,0 -1.40625,-0.421875 -1.40625,-2.0273437 0,-1.6289063 0.820313,-2.0507813 1.347656,-2.0507813 0.09375,0 0.714844,0.011719 1.066407,0.375 -0.410157,0.023437 -0.46875,0.328125 -0.46875,0.4570313 0,0.2578125 0.1875,0.4570312 0.457031,0.4570312 0.257812,0 0.457031,-0.1640625 0.457031,-0.46875 0,-0.6796875 -0.75,-1.0664062 -1.523437,-1.0664062 -1.242188,0 -2.15625,1.078125 -2.15625,2.3085937 0,1.27734375 0.984375,2.26171875 2.144531,2.26171875 1.335937,0 1.652344,-1.19531245 1.652344,-1.28906245 z M 63.915164,-2.1315 c 0,-1.2773437 -0.996094,-2.3320312 -2.191406,-2.3320312 -1.253906,0 -2.214844,1.0898437 -2.214844,2.3320312 0,1.2890625 1.03125,2.23828125 2.203125,2.23828125 1.207031,0 2.203125,-0.97265625 2.203125,-2.23828125 z m -0.820312,-0.082031 c 0,0.3632812 0,0.9023437 -0.222657,1.33593745 -0.222656,0.4453125 -0.65625,0.73828125 -1.148437,0.73828125 -0.433594,0 -0.867188,-0.2109375 -1.136719,-0.66796875 C 60.329227,-1.240875 60.329227,-1.85025 60.329227,-2.2135312 c 0,-0.3867188 0,-0.9257813 0.246093,-1.359375 0.269532,-0.4570313 0.738282,-0.6679688 1.136719,-0.6679688 0.433594,0 0.867188,0.2226563 1.125,0.6445313 0.257813,0.4335937 0.257813,1.0078125 0.257813,1.3828127 z m 9.210937,2.2148437 V -0.303375 c -0.515625,0 -0.761719,0 -0.773437,-0.3046875 V -2.5065 c 0,-0.8554687 0,-1.171875 -0.316407,-1.5234375 -0.128906,-0.1757812 -0.46875,-0.375 -1.042968,-0.375 -0.832032,0 -1.277344,0.5976563 -1.441407,0.984375 -0.140625,-0.8671875 -0.878906,-0.984375 -1.324218,-0.984375 -0.726563,0 -1.195313,0.4335938 -1.476563,1.0546875 v -1.0546875 l -1.40625,0.1171875 v 0.3046875 c 0.703125,0 0.785156,0.070312 0.785156,0.5625 v 2.66015625 c 0,0.45703125 -0.117187,0.45703125 -0.785156,0.45703125 v 0.3046875 l 1.125,-0.03515625 1.113281,0.03515625 V -0.303375 c -0.65625,0 -0.773437,0 -0.773437,-0.45703125 V -2.5885312 c 0,-1.03125 0.714844,-1.59375 1.347656,-1.59375 0.621094,0 0.738281,0.5390625 0.738281,1.1015625 v 2.32031245 c 0,0.45703125 -0.117187,0.45703125 -0.773437,0.45703125 v 0.3046875 l 1.125,-0.03515625 1.113281,0.03515625 V -0.303375 c -0.667969,0 -0.785156,0 -0.785156,-0.45703125 V -2.5885312 c 0,-1.03125 0.714844,-1.59375 1.347656,-1.59375 0.632813,0 0.738281,0.5390625 0.738281,1.1015625 v 2.32031245 c 0,0.45703125 -0.105468,0.45703125 -0.773437,0.45703125 v 0.3046875 l 1.125,-0.03515625 z m 4.338867,-1.1835937 c 0,-0.1054688 -0.08203,-0.1171875 -0.128906,-0.1171875 -0.09375,0 -0.117187,0.058594 -0.128906,0.140625 -0.351563,1.0195312 -1.253906,1.0195312 -1.347656,1.0195312 -0.503907,0 -0.902344,-0.29296875 -1.125,-0.66796875 C 73.6095,-1.28775 73.6095,-1.944 73.6095,-2.2955625 h 2.789063 c 0.210937,0 0.246093,0 0.246093,-0.2109375 0,-0.984375 -0.539062,-1.9570312 -1.78125,-1.9570312 -1.160156,0 -2.074218,1.03125 -2.074218,2.2734375 0,1.33593745 1.042968,2.29687495 2.191406,2.29687495 1.21875,0 1.664062,-1.1015625 1.664062,-1.28906225 z M 75.988406,-2.5065 h -2.367187 c 0.05859,-1.4882812 0.902344,-1.734375 1.242187,-1.734375 1.019532,0 1.125,1.3476563 1.125,1.734375 z m 0,0"
       style="fill:#000000;fill-opacity:1;fill-rule:nonzero;stroke:none"
       aria-label="neonataloutcome"
       transform="matrix(1.3333333,0,0,1.3333333,256.604,128.592)" />
    <path
       id="path13"
       d="M -7.99925,77.03735 -76.72646,8.32208"
       style="fill:none;stroke:#000000;stroke-width:0.3985;stroke-linecap:butt;stroke-linejoin:miter;stroke-miterlimit:10;stroke-dasharray:none;stroke-opacity:1"
       transform="matrix(1.3333333,0,0,-1.3333333,179.952,124.056)" />
    <path
       id="path14"
       d="M -1.19551,1.59401 C -1.09587,0.99626 0,0.09961 0.29886,0 0,-0.09961 -1.09587,-0.99626 -1.19551,-1.59401"
       style="fill:none;stroke:#000000;stroke-width:0.31879;stroke-linecap:round;stroke-linejoin:round;stroke-miterlimit:10;stroke-dasharray:none;stroke-opacity:1"
       transform="matrix(-0.94286667,0.94270667,0.94270667,0.94286667,77.65008,112.95989)" />
    <path
       id="path15"
       d="M 7.99438,77.03735 77.69185,7.35568"
       style="fill:none;stroke:#000000;stroke-width:0.3985;stroke-linecap:butt;stroke-linejoin:miter;stroke-miterlimit:10;stroke-dasharray:none;stroke-opacity:1"
       transform="matrix(1.3333333,0,0,-1.3333333,179.952,124.056)" />
    <path
       id="path16"
       d="M -1.19551,1.59401 C -1.09587,0.99626 0,0.09961 0.29886,0 0,-0.09961 -1.09587,-0.99626 -1.19551,-1.59401"
       style="fill:none;stroke:#000000;stroke-width:0.31879;stroke-linecap:round;stroke-linejoin:round;stroke-miterlimit:10;stroke-dasharray:none;stroke-opacity:1"
       transform="matrix(0.94289333,0.94266667,0.94266667,-0.94289333,283.54113,114.24843)" />
    <path
       id="path17"
       d="M -35.11494,0 H 31.68022"
       style="fill:none;stroke:#000000;stroke-width:0.3985;stroke-linecap:butt;stroke-linejoin:miter;stroke-miterlimit:10;stroke-dasharray:none;stroke-opacity:1"
       transform="matrix(1.3333333,0,0,-1.3333333,179.952,124.056)" />
    <path
       id="path18"
       d="M -1.19551,1.59401 C -1.09587,0.99626 0,0.09961 0.29886,0 0,-0.09961 -1.09587,-0.99626 -1.19551,-1.59401"
       style="fill:none;stroke:#000000;stroke-width:0.31879;stroke-linecap:round;stroke-linejoin:round;stroke-miterlimit:10;stroke-dasharray:none;stroke-opacity:1"
       transform="matrix(1.3333333,0,0,-1.3333333,222.19229,124.056)" />
  </g>
</svg>
