<?xml version="1.0" encoding="UTF-8" standalone="no"?>
<!-- Created with Inkscape (http://www.inkscape.org/) -->

<svg
   version="1.1"
   id="svg1"
   width="604.75598"
   height="141.83467"
   viewBox="0 0 604.75598 141.83467"
   xmlns="http://www.w3.org/2000/svg"
   xmlns:svg="http://www.w3.org/2000/svg">
  <defs
     id="defs1" />
  <g
     id="g1">
    <path
       id="path1"
       d="M -27.79587,78.15318 H 27.79587 V 91.92766 H -27.79587 Z"
       style="fill:none;stroke:#000000;stroke-width:0.3985;stroke-linecap:butt;stroke-linejoin:miter;stroke-miterlimit:10;stroke-dasharray:none;stroke-opacity:1"
       transform="matrix(1.4037467,0,0,-1.4037467,343.55717,130.60048)" />
    <path
       id="path2"
       d="m 6.3214739,-5.7560397 c 0.1001784,-0.4118442 0.2782732,-0.7123792 1.0796998,-0.745772 0.044524,0 0.1669639,0 0.1669639,-0.1892258 0,-0.011131 0,-0.1113092 -0.1224401,-0.1113092 -0.3339278,0 -0.6789865,0.022262 -1.0240452,0.022262 -0.3339278,0 -0.7012484,-0.022262 -1.0351761,-0.022262 -0.055655,0 -0.1780948,0 -0.1780948,0.2003566 0,0.1001784 0.1001783,0.1001784 0.1780948,0.1001784 0.5676772,0.011131 0.6789864,0.2226185 0.6789864,0.445237 0,0.033393 -0.022262,0.1780948 -0.033393,0.2114876 l -0.8904741,3.5507653 c -0.3450587,1.33571113 -1.4915441,2.20392334 -2.4821964,2.20392334 -0.6789865,0 -1.213271,-0.4341061 -1.213271,-1.29118744 0,-0.022262 0,-0.3450587 0.1113093,-0.7791648 L 2.514697,-6.0343128 c 0.089047,-0.3673206 0.1113093,-0.4674989 0.8459504,-0.4674989 0.2560113,0 0.3339278,0 0.3339278,-0.1892258 0,-0.1113092 -0.1113093,-0.1113092 -0.1335712,-0.1113092 -0.289404,0 -1.0017833,0.022262 -1.2800564,0.022262 -0.2894041,0 -1.0017833,-0.022262 -1.2800565,-0.022262 -0.0890474,0 -0.20035666,0 -0.20035666,0.2003566 0,0.1001784 0.10017834,0.1001784 0.28940406,0.1001784 0.011131,0 0.2003567,0 0.3784515,0.022262 0.1780948,0.022262 0.2671422,0.033393 0.2671422,0.1669639 0,0.055655 -0.1113092,0.4786298 -0.1669639,0.7012483 l -0.2226185,0.8793432 c -0.089047,0.3895824 -0.56767721,2.2707088 -0.61220091,2.4599346 -0.0667856,0.2782731 -0.0667856,0.4229752 -0.0667856,0.5788081 0,1.21327094 0.90160501,1.91451927 1.94791201,1.91451927 1.2577947,0 2.4933274,-1.12422351 2.8272552,-2.44880367 z m 0,0"
       style="fill:#000000;fill-opacity:1;fill-rule:nonzero;stroke:none"
       aria-label="U"
       transform="matrix(1.4037467,0,0,1.4037467,309.20047,16.080022)" />
    <path
       id="path3"
       d="m 6.8464889,-3.2627123 c 0.1447021,0 0.3339278,0 0.3339278,-0.2003567 0,-0.1892257 -0.1892257,-0.1892257 -0.3227969,-0.1892257 H 0.89144361 c -0.14470204,0 -0.33392777,0 -0.33392777,0.1892257 0,0.2003567 0.18922573,0.2003567 0.3450587,0.2003567 z m 0.011131,1.9367811 c 0.1335712,0 0.3227969,0 0.3227969,-0.2003567 0,-0.2003567 -0.1892257,-0.2003567 -0.3339278,-0.2003567 H 0.90257454 c -0.15583297,0 -0.3450587,0 -0.3450587,0.2003567 0,0.2003567 0.18922573,0.2003567 0.33392777,0.2003567 z m 0,0"
       style="fill:#000000;fill-opacity:1;fill-rule:nonzero;stroke:none"
       aria-label="="
       transform="matrix(1.4037467,0,0,1.4037467,324.1588,16.080022)" />
    <path
       id="path4"
       d="m 5.2529068,-0.00135105 v -0.31166592 c -0.6678556,0 -0.7791648,0 -0.7791648,-0.44523704 V -4.4091977 l -1.2577946,0.089047 c -0.155833,0 -0.1780949,0.011131 -0.1780949,0.011131 -0.022262,0.011131 -0.044524,0.011131 -0.1780948,0.011131 H 1.6798796 v -1.1242235 c 0,-0.9795215 0.8570813,-1.3802348 1.4804131,-1.3802348 0.300535,0 0.6567247,0.1001783 0.8570813,0.3227968 -0.4118442,0.022262 -0.4674989,0.300535 -0.4674989,0.456368 0,0.3339278 0.2560113,0.4674989 0.4452371,0.4674989 0.2226185,0 0.4563679,-0.1669639 0.4563679,-0.4674989 0,-0.5788082 -0.5454153,-1.0017833 -1.2800564,-1.0017833 -0.9349978,0 -2.1148759,0.5120226 -2.1148759,1.5917224 v 1.1353544 H 0.26625202 v 0.3116659 H 1.0565478 v 3.22796849 c 0,0.44523704 -0.11130931,0.44523704 -0.77916486,0.44523704 v 0.31166592 l 1.10196166,-0.03339278 1.1130926,0.03339278 v -0.31166592 c -0.6678556,0 -0.7791648,0 -0.7791648,-0.44523704 V -3.9862225 h 1.5694605 c 0.4674989,0 0.5342845,0.1335711 0.5342845,0.5342844 v 2.69368409 c 0,0.44523704 -0.1113093,0.44523704 -0.7791649,0.44523704 v 0.31166592 L 4.1398142,-0.03474383 Z M 8.8454131,-1.2368838 V -1.804561 H 8.6005327 v 0.5454153 c 0,0.73464114 -0.300535,1.11309261 -0.6678555,1.11309261 -0.6678556,0 -0.6678556,-0.90160501 -0.6678556,-1.06856891 V -3.9862225 H 8.6895801 V -4.2978884 H 7.2648216 V -6.1233602 H 7.0088103 c 0,0.8125575 -0.300535,1.8811264 -1.2800564,1.9145192 v 0.2226185 h 0.8459503 v 2.7493387 c 0,1.22440182 0.9238669,1.34684201 1.2911874,1.34684201 0.7012483,0 0.9795215,-0.71237925 0.9795215,-1.34684201 z m 5.9021729,1.23553275 v -0.31166592 c -0.523153,0 -0.768033,0 -0.779164,-0.300535 V -2.5169403 c 0,-0.8570813 0,-1.1576163 -0.311666,-1.5138059 -0.133571,-0.1780948 -0.467499,-0.3784515 -1.046307,-0.3784515 -0.72351,0 -1.191009,0.4341061 -1.469282,1.0463071 v -1.0463071 l -1.4024971,0.1113093 v 0.3116659 c 0.6901171,0 0.7680341,0.066786 0.7680341,0.5565463 v 2.67142219 c 0,0.44523704 -0.100179,0.44523704 -0.7680341,0.44523704 v 0.31166592 l 1.1242231,-0.03339278 1.113093,0.03339278 v -0.31166592 c -0.667856,0 -0.779165,0 -0.779165,-0.44523704 V -2.5948568 c 0,-1.0351761 0.712379,-1.5917224 1.346842,-1.5917224 0.623332,0 0.734641,0.5342845 0.734641,1.1019617 v 2.32636349 c 0,0.44523704 -0.111309,0.44523704 -0.779165,0.44523704 v 0.31166592 l 1.135355,-0.03339278 z m 4.335496,-1.19100905 c 0,-0.089047 -0.07792,-0.1113093 -0.12244,-0.1113093 -0.08905,0 -0.111309,0.055655 -0.133571,0.1335711 -0.345059,1.02404521 -1.246664,1.02404521 -1.346842,1.02404521 -0.489761,0 -0.890474,-0.28940407 -1.124224,-0.65672462 C 16.05547,-1.2814075 16.05547,-1.9492631 16.05547,-2.3054527 h 2.782732 c 0.222618,0 0.24488,0 0.24488,-0.2114876 0,-0.9795215 -0.534284,-1.947912 -1.780948,-1.947912 -1.157616,0 -2.070352,1.0240452 -2.070352,2.2707089 0,1.33571106 1.046307,2.30410161 2.192792,2.30410161 1.213271,0 1.658508,-1.11309261 1.658508,-1.30231831 z m -0.656725,-1.3245802 h -2.359756 c 0.06679,-1.4804131 0.901605,-1.7252935 1.235533,-1.7252935 1.024045,0 1.124223,1.346842 1.124223,1.7252935 z m 4.535853,1.2355328 c 0,-0.5231535 -0.300535,-0.8236885 -0.411845,-0.9461287 -0.333927,-0.3116659 -0.72351,-0.3895824 -1.135354,-0.4786298 -0.567677,-0.1001784 -1.235533,-0.2337495 -1.235533,-0.8125576 0,-0.3450587 0.267143,-0.756903 1.124224,-0.756903 1.090831,0 1.146485,0.901605 1.157616,1.20214 0.01113,0.089047 0.12244,0.089047 0.12244,0.089047 0.133571,0 0.133571,-0.044524 0.133571,-0.2337494 v -1.0017833 c 0,-0.1780948 0,-0.2448804 -0.111309,-0.2448804 -0.04452,0 -0.06678,0 -0.200357,0.1224402 -0.03339,0.033393 -0.133571,0.1224402 -0.166963,0.1558329 -0.378452,-0.2782731 -0.790296,-0.2782731 -0.934998,-0.2782731 -1.213271,0 -1.591723,0.6678555 -1.591723,1.2244018 0,0.3450587 0.155833,0.6344628 0.422976,0.8459504 0.322796,0.2560113 0.60107,0.3227968 1.313449,0.456368 0.222618,0.044524 1.035176,0.2003566 1.035176,0.9238668 0,0.50089166 -0.345059,0.90160499 -1.124224,0.90160499 -0.834819,0 -1.191009,-0.56767722 -1.380234,-1.41362759 -0.03339,-0.1335711 -0.04452,-0.1669639 -0.144702,-0.1669639 -0.122441,0 -0.122441,0.066786 -0.122441,0.2448804 v 1.31344924 c 0,0.17809481 0,0.24488037 0.100179,0.24488037 0.05565,0 0.06678,-0.01113093 0.256011,-0.20035667 0.02226,-0.02226185 0.02226,-0.0445237 0.200357,-0.23374944 0.434106,0.42297518 0.879343,0.43410611 1.09083,0.43410611 1.146486,0 1.602854,-0.66785555 1.602854,-1.39136531 z m 3.923651,0 c 0,-0.5231535 -0.300535,-0.8236885 -0.411844,-0.9461287 -0.333928,-0.3116659 -0.72351,-0.3895824 -1.135355,-0.4786298 -0.567677,-0.1001784 -1.235532,-0.2337495 -1.235532,-0.8125576 0,-0.3450587 0.267142,-0.756903 1.124223,-0.756903 1.090831,0 1.146486,0.901605 1.157616,1.20214 0.01113,0.089047 0.122441,0.089047 0.122441,0.089047 0.133571,0 0.133571,-0.044524 0.133571,-0.2337494 v -1.0017833 c 0,-0.1780948 0,-0.2448804 -0.11131,-0.2448804 -0.04452,0 -0.06678,0 -0.200356,0.1224402 -0.03339,0.033393 -0.133571,0.1224402 -0.166964,0.1558329 -0.378452,-0.2782731 -0.790296,-0.2782731 -0.934998,-0.2782731 -1.213271,0 -1.591722,0.6678555 -1.591722,1.2244018 0,0.3450587 0.155833,0.6344628 0.422975,0.8459504 0.322797,0.2560113 0.60107,0.3227968 1.313449,0.456368 0.222619,0.044524 1.035176,0.2003566 1.035176,0.9238668 0,0.50089166 -0.345058,0.90160499 -1.124223,0.90160499 -0.83482,0 -1.191009,-0.56767722 -1.380235,-1.41362759 -0.03339,-0.1335711 -0.04452,-0.1669639 -0.144702,-0.1669639 -0.12244,0 -0.12244,0.066786 -0.12244,0.2448804 v 1.31344924 c 0,0.17809481 0,0.24488037 0.100178,0.24488037 0.05566,0 0.06679,-0.01113093 0.256011,-0.20035667 0.02226,-0.02226185 0.02226,-0.0445237 0.200357,-0.23374944 0.434106,0.42297518 0.879343,0.43410611 1.090831,0.43410611 1.146485,0 1.602853,-0.66785555 1.602853,-1.39136531 z m 0,0"
       style="fill:#000000;fill-opacity:1;fill-rule:nonzero;stroke:none"
       aria-label="ftness"
       transform="matrix(1.4037467,0,0,1.4037467,339.69266,16.080022)" />
    <path
       id="path5"
       d="M -150.47295,-7.8038 H -19.60791 V 7.80382 h -130.86504 z"
       style="fill:none;stroke:#000000;stroke-width:0.3985;stroke-linecap:butt;stroke-linejoin:miter;stroke-miterlimit:10;stroke-dasharray:none;stroke-opacity:1"
       transform="matrix(1.4037467,0,0,-1.4037467,343.55717,130.60048)" />
    <path
       id="path6"
       d="m 4.2521884,-6.0449985 c 0.066786,-0.2782731 0.1113093,-0.3450587 0.2337495,-0.3673205 0.089047,-0.022262 0.4118442,-0.022262 0.6233318,-0.022262 1.0129142,0 1.4581513,0.033393 1.4581513,0.8125576 0,0.1558329 -0.044524,0.5454153 -0.077917,0.8014266 -0.011131,0.033393 -0.033393,0.155833 -0.033393,0.1892258 0,0.055655 0.033393,0.1224402 0.1224402,0.1224402 0.1113093,0 0.1224402,-0.077917 0.144702,-0.2226186 l 0.2671423,-1.7364244 c 0.011131,-0.033393 0.022262,-0.1335711 0.022262,-0.1669639 0,-0.1113092 -0.1001783,-0.1113092 -0.2671422,-0.1113092 H 1.2134457 c -0.23374948,0 -0.2448804,0.011131 -0.31166596,0.2003566 L 0.30070975,-4.787204 c -0.0111309,0.011131 -0.0667856,0.155833 -0.0667856,0.1780948 0,0.055655 0.0556546,0.1001784 0.12244018,0.1001784 0.10017833,0 0.11130926,-0.044524 0.16696389,-0.2003567 C 1.0687436,-6.2564861 1.3247549,-6.4345809 2.7940371,-6.4345809 h 0.3895824 c 0.2782732,0 0.2782732,0.033393 0.2782732,0.1224402 0,0.055655 -0.022262,0.1780948 -0.033393,0.2003566 l -1.3357111,5.32058258 c -0.089047,0.36732056 -0.1224402,0.47862981 -1.19100906,0.47862981 -0.35618962,0 -0.41184425,0 -0.41184425,0.18922574 0,0.12244018691 0.11130926,0.12244018691 0.16696389,0.12244018691 0.26714222,0 0.54541532,-0.0222618469 0.81255762,-0.0222618469 0.289404,0 0.5676772,-0.01113093 0.8570812,-0.01113093 0.2782732,0 0.5565463,0.01113093 0.8236886,0.01113093 0.289404,0 0.589939,0.0222618469 0.8682122,0.0222618469 0.1001783,0 0.2114876,0 0.2114876,-0.20035666691 0,-0.11130926 -0.077916,-0.11130926 -0.3339278,-0.11130926 -0.2448804,0 -0.3784515,0 -0.6344628,-0.0222618 -0.2894041,-0.0222619 -0.3673205,-0.0556546 -0.3673205,-0.21148759 0,-0.0111309 0,-0.0667855 0.033393,-0.21148759 z m 0,0"
       style="fill:#000000;fill-opacity:1;fill-rule:nonzero;stroke:none"
       aria-label="T"
       transform="matrix(1.4037467,0,0,1.4037467,136.99585,134.01299)" />
    <path
       id="path7"
       d="m 6.8460036,-3.262267 c 0.1447021,0 0.3339278,0 0.3339278,-0.2003567 0,-0.1892257 -0.1892257,-0.1892257 -0.3227968,-0.1892257 H 0.89095834 c -0.14470203,0 -0.33392777,0 -0.33392777,0.1892257 0,0.2003567 0.18922574,0.2003567 0.3450587,0.2003567 z m 0.011131,1.936781 c 0.1335711,0 0.3227968,0 0.3227968,-0.2003566 0,-0.2003567 -0.1892257,-0.2003567 -0.3339278,-0.2003567 H 0.90208927 c -0.15583296,0 -0.3450587,0 -0.3450587,0.2003567 0,0.2003566 0.18922574,0.2003566 0.33392777,0.2003566 z m 0,0"
       style="fill:#000000;fill-opacity:1;fill-rule:nonzero;stroke:none"
       aria-label="="
       transform="matrix(1.4037467,0,0,1.4037467,150.99541,134.01299)" />
    <path
       id="path8"
       d="m 3.5827826,-1.2809623 c 0,-0.5231535 -0.300535,-0.8236885 -0.4118442,-0.9461286 C 2.8370106,-2.5387569 2.4474282,-2.6166733 2.035584,-2.7057208 1.4679067,-2.8058991 0.80005119,-2.9394702 0.80005119,-3.5182783 c 0,-0.3450587 0.26714221,-0.756903 1.12422351,-0.756903 1.0908307,0 1.1464854,0.901605 1.1576163,1.20214 0.011131,0.089047 0.1224402,0.089047 0.1224402,0.089047 0.1335711,0 0.1335711,-0.044524 0.1335711,-0.2337494 v -1.0017834 c 0,-0.1780948 0,-0.2448803 -0.1113093,-0.2448803 -0.044524,0 -0.066785,0 -0.2003566,0.1224402 -0.033393,0.033393 -0.1335712,0.1224401 -0.1669639,0.1558329 C 2.480821,-4.464407 2.0689767,-4.464407 1.9242747,-4.464407 c -1.21327092,0 -1.59172239,0.6678555 -1.59172239,1.2244018 0,0.3450587 0.15583296,0.6344628 0.42297518,0.8459504 0.32279681,0.2560113 0.60107001,0.3227968 1.31344921,0.4563679 0.2226185,0.044524 1.0351761,0.2003567 1.0351761,0.9238669 0,0.50089163 -0.3450587,0.90160496 -1.1242235,0.90160496 -0.8348194,0 -1.19100904,-0.56767722 -1.38023478,-1.41362756 -0.0333928,-0.1335711 -0.0445237,-0.1669639 -0.14470203,-0.1669639 -0.12244018,0 -0.12244018,0.066786 -0.12244018,0.2448804 v 1.31344921 c 0,0.17809481 0,0.24488036 0.10017833,0.24488036 0.0556546,0 0.0667856,-0.01113092 0.25601129,-0.20035666 0.0222619,-0.02226185 0.0222619,-0.0445237 0.20035667,-0.23374944 0.4341061,0.42297518 0.8793431,0.4341061 1.0908307,0.4341061 1.1464854,0 1.6028533,-0.66785554 1.6028533,-1.39136577 z M 9.2567721,-9.0578309e-4 V -0.31257171 c -0.7012484,0 -0.7791648,-0.0667855 -0.7791648,-0.55654629 v -3.5396344 l -1.4692822,0.1113093 v 0.3116659 c 0.7012483,0 0.7791648,0.066785 0.7791648,0.5565463 v 1.7698172 c 0,0.86821218 -0.4786298,1.54719866 -1.20214,1.54719866 -0.8348195,0 -0.8793432,-0.46749889 -0.8793432,-0.97952146 v -3.3170159 l -1.4581512,0.1113093 v 0.3116659 c 0.7680338,0 0.7680338,0.033393 0.7680338,0.9127359 v 1.502675 c 0,0.76803386 0,1.68076977 1.5138059,1.68076977 0.5676773,0 1.0017834,-0.27827314 1.2911874,-0.90160499 V 0.11040347 Z M 13.094159,-3.7965515 c 0,-0.3227968 -0.311666,-0.6122009 -0.734641,-0.6122009 -0.734641,0 -1.090831,0.6678555 -1.235533,1.1019617 v -1.1019617 l -1.3802349,0.1113093 v 0.3116659 c 0.7012479,0 0.7791649,0.066785 0.7791649,0.5565463 v 2.67142216 c 0,0.44523703 -0.111309,0.44523703 -0.7791649,0.44523703 V -9.0578309e-4 L 10.879105,-0.03429856 c 0.400713,0 0.868212,0 1.268925,0.0333927769 V -0.31257171 h -0.211488 c -0.734641,0 -0.756902,-0.11130925 -0.756902,-0.46749888 V -2.3161384 c 0,-0.9795214 0.422975,-1.8699955 1.179878,-1.8699955 0.06679,0 0.08905,0 0.100178,0.011131 -0.02226,0.011131 -0.222619,0.1335711 -0.222619,0.3895824 0,0.2782732 0.211488,0.4229752 0.422976,0.4229752 0.178094,0 0.434106,-0.1113092 0.434106,-0.4341062 z m 5.106312,-0.2337494 c 0,-0.1669639 -0.12244,-0.4786298 -0.512023,-0.4786298 -0.189225,0 -0.634462,0.055655 -1.046307,0.4674988 -0.422975,-0.3339277 -0.84595,-0.3673205 -1.057438,-0.3673205 -0.934997,0 -1.613984,0.6901174 -1.613984,1.4581513 0,0.4341061 0.211488,0.8125576 0.467499,1.0240452 -0.133571,0.1558329 -0.311666,0.4786298 -0.311666,0.8348194 0,0.30053498 0.133571,0.67898646 0.434106,0.87934313 -0.589939,0.16696388 -0.912736,0.60106999 -0.912736,1.00178332 0,0.71237925 0.990653,1.25779465 2.203924,1.25779465 1.168747,0 2.215054,-0.5008917 2.215054,-1.2800565 0,-0.3450587 -0.144702,-0.85708129 -0.656725,-1.13535443 -0.523153,-0.27827315 -1.101961,-0.27827315 -1.714162,-0.27827315 -0.244881,0 -0.667856,0 -0.745772,-0.0111309 -0.311666,-0.0445237 -0.523154,-0.34505872 -0.523154,-0.66785562 0,-0.044524 0,-0.2671422 0.166964,-0.4674988 0.389582,0.2782731 0.801427,0.3116659 0.990652,0.3116659 0.923867,0 1.613985,-0.6901174 1.613985,-1.4581513 0,-0.3673205 -0.166964,-0.7346411 -0.411845,-0.9683905 0.35619,-0.3339278 0.71238,-0.3895824 0.901605,-0.3895824 0,0 0.06679,0 0.08905,0.011131 -0.100179,0.044524 -0.155833,0.1558329 -0.155833,0.2671422 0,0.1780948 0.133571,0.2894041 0.289404,0.2894041 0.100178,0 0.289404,-0.066786 0.289404,-0.300535 z m -1.747555,1.0796998 c 0,0.2671422 -0.01113,0.589939 -0.166964,0.8348194 -0.07792,0.1224402 -0.311666,0.4007133 -0.701249,0.4007133 -0.868212,0 -0.868212,-0.9906524 -0.868212,-1.2244018 0,-0.2671422 0.01113,-0.5899391 0.155833,-0.8348194 0.07792,-0.1224402 0.311666,-0.4007134 0.712379,-0.4007134 0.868213,0 0.868213,0.9906524 0.868213,1.2244019 z m 1.09083,3.73999105 c 0,0.53428445 -0.712379,1.03517605 -1.680769,1.03517605 -1.012915,0 -1.691901,-0.5120225 -1.691901,-1.03517605 0,-0.45636796 0.378451,-0.83481944 0.812557,-0.85708129 h 0.589939 c 0.857082,0 1.970174,0 1.970174,0.85708129 z m 4.936566,-1.98130475 c 0,-0.089048 -0.07792,-0.1113093 -0.12244,-0.1113093 -0.08905,0 -0.11131,0.055655 -0.133571,0.1335711 -0.345059,1.02404518 -1.246664,1.02404518 -1.346842,1.02404518 -0.489761,0 -0.890474,-0.28940407 -1.124224,-0.65672462 C 19.4527,-1.2809623 19.4527,-1.9488178 19.4527,-2.3050074 h 2.782732 c 0.222618,0 0.24488,0 0.24488,-0.2114876 0,-0.9795215 -0.534285,-1.947912 -1.780948,-1.947912 -1.157616,0 -2.070352,1.0240451 -2.070352,2.2707088 0,1.33571113 1.046307,2.30410167 2.192792,2.30410167 1.213271,0 1.658508,-1.11309257 1.658508,-1.30231827 z M 21.823587,-2.516495 h -2.359756 c 0.06679,-1.4804131 0.901605,-1.7252935 1.235533,-1.7252935 1.024045,0 1.124223,1.346842 1.124223,1.7252935 z m 4.580376,-1.2800565 c 0,-0.3227968 -0.311666,-0.6122009 -0.734641,-0.6122009 -0.734641,0 -1.090831,0.6678555 -1.235533,1.1019617 v -1.1019617 l -1.380234,0.1113093 v 0.3116659 c 0.701248,0 0.779164,0.066785 0.779164,0.5565463 v 2.67142216 c 0,0.44523703 -0.111309,0.44523703 -0.779164,0.44523703 V -9.0578309e-4 L 24.188909,-0.03429856 c 0.400713,0 0.868212,0 1.268926,0.0333927769 V -0.31257171 h -0.211488 c -0.734641,0 -0.756903,-0.11130925 -0.756903,-0.46749888 V -2.3161384 c 0,-0.9795214 0.422975,-1.8699955 1.179878,-1.8699955 0.06679,0 0.08905,0 0.100179,0.011131 -0.02226,0.011131 -0.222619,0.1335711 -0.222619,0.3895824 0,0.2782732 0.211488,0.4229752 0.422975,0.4229752 0.178095,0 0.434106,-0.1113092 0.434106,-0.4341062 z m 5.340062,-0.1892257 v -0.3116659 c -0.23375,0.022262 -0.523154,0.033393 -0.745772,0.033393 l -0.868212,-0.033393 v 0.3116659 c 0.300535,0.011131 0.467499,0.1780948 0.467499,0.4229752 0,0.1001783 -0.01113,0.1224401 -0.06679,0.2448803 l -1.001783,2.4488037 -1.101962,-2.6825531 c -0.04452,-0.1001783 -0.06679,-0.1335711 -0.06679,-0.1780948 0,-0.2560113 0.367321,-0.2560113 0.556547,-0.2560113 v -0.3116659 l -1.0797,0.033393 c -0.267142,0 -0.667856,-0.011131 -0.968391,-0.033393 v 0.3116659 c 0.47863,0 0.667856,0 0.812558,0.3450587 L 29.172781,-9.0578309e-4 28.91677,0.58903328 C 28.705282,1.1344486 28.427009,1.824566 27.781415,1.824566 c -0.04452,0 -0.278273,0 -0.467499,-0.1780948 0.311666,-0.044524 0.389583,-0.2671422 0.389583,-0.4229751 0,-0.25601134 -0.189226,-0.42297522 -0.411844,-0.42297522 -0.200357,0 -0.422976,0.1335711 -0.422976,0.43410612 0,0.445237 0.422976,0.8014266 0.912736,0.8014266 0.634463,0 1.035176,-0.5676772 1.280057,-1.13535439 l 1.747555,-4.25201371 c 0.267142,-0.6233318 0.768034,-0.6344627 0.934998,-0.6344627 z m 8.579161,0 v -0.3116659 c -0.233749,0.022262 -0.523154,0.033393 -0.745772,0.033393 l -0.868212,-0.033393 v 0.3116659 c 0.36732,0.011131 0.47863,0.2337494 0.47863,0.4229752 0,0.1001783 -0.02226,0.1335711 -0.06679,0.2448803 l -1.01291,2.53785111 -1.113093,-2.78273141 c -0.06678,-0.1224402 -0.06678,-0.1669639 -0.06678,-0.1669639 0,-0.2560113 0.389582,-0.2560113 0.567677,-0.2560113 v -0.3116659 l -1.0797,0.033393 c -0.267142,0 -0.667856,-0.011131 -0.968391,-0.033393 v 0.3116659 c 0.623332,0 0.667856,0.055655 0.801427,0.3673205 l 1.424759,3.53963444 c 0.06679,0.13357111 0.08905,0.18922573 0.211487,0.18922573 0.133571,0 0.166964,-0.0890474 0.211488,-0.18922573 l 1.302318,-3.23909944 c 0.08905,-0.2337494 0.267142,-0.6567246 0.923867,-0.6678555 z m 3.778949,2.7048149 c 0,-0.5231535 -0.300535,-0.8236885 -0.411844,-0.9461286 -0.333928,-0.311666 -0.72351,-0.3895824 -1.135354,-0.4786299 -0.567678,-0.1001783 -1.235533,-0.2337494 -1.235533,-0.8125575 0,-0.3450587 0.267142,-0.756903 1.124223,-0.756903 1.090831,0 1.146486,0.901605 1.157617,1.20214 0.01113,0.089047 0.12244,0.089047 0.12244,0.089047 0.133571,0 0.133571,-0.044524 0.133571,-0.2337494 v -1.0017834 c 0,-0.1780948 0,-0.2448803 -0.111309,-0.2448803 -0.04452,0 -0.06679,0 -0.200357,0.1224402 -0.03339,0.033393 -0.133571,0.1224401 -0.166964,0.1558329 -0.378451,-0.2782731 -0.790296,-0.2782731 -0.934998,-0.2782731 -1.213271,0 -1.591722,0.6678555 -1.591722,1.2244018 0,0.3450587 0.155833,0.6344628 0.422975,0.8459504 0.322797,0.2560113 0.60107,0.3227968 1.313449,0.4563679 0.222619,0.044524 1.035177,0.2003567 1.035177,0.9238669 0,0.50089163 -0.345059,0.90160496 -1.124224,0.90160496 -0.834819,0 -1.191009,-0.56767722 -1.380235,-1.41362756 -0.03339,-0.1335711 -0.04452,-0.1669639 -0.144702,-0.1669639 -0.12244,0 -0.12244,0.066786 -0.12244,0.2448804 v 1.31344921 c 0,0.17809481 0,0.24488036 0.100178,0.24488036 0.05566,0 0.06679,-0.01113092 0.256012,-0.20035666 0.02226,-0.02226185 0.02226,-0.0445237 0.200356,-0.23374944 0.434106,0.42297518 0.879343,0.4341061 1.090831,0.4341061 1.146485,0 1.602853,-0.66785554 1.602853,-1.39136537 z m 7.287974,-2.5155892 c 0,-0.3227968 -0.311666,-0.6122009 -0.734641,-0.6122009 -0.734641,0 -1.090831,0.6678555 -1.235533,1.1019617 V -4.4087524 L 48.0397,-4.2974431 v 0.3116659 c 0.701249,0 0.779165,0.066785 0.779165,0.5565463 v 2.67142216 c 0,0.44523703 -0.111309,0.44523703 -0.779165,0.44523703 V -9.0578309e-4 L 49.175055,-0.03429856 c 0.400713,0 0.868212,0 1.268925,0.0333927769 V -0.31257171 h -0.211487 c -0.734641,0 -0.756903,-0.11130925 -0.756903,-0.46749888 V -2.3161384 c 0,-0.9795214 0.422975,-1.8699955 1.179878,-1.8699955 0.06679,0 0.08905,0 0.100178,0.011131 -0.02226,0.011131 -0.222618,0.1335711 -0.222618,0.3895824 0,0.2782732 0.211487,0.4229752 0.422975,0.4229752 0.178095,0 0.434106,-0.1113092 0.434106,-0.4341062 z m 5.08405,2.90517165 V -1.4479261 h -0.24488 v 0.55654625 c 0,0.57880814 -0.24488,0.6455937 -0.35619,0.6455937 -0.333927,0 -0.36732,-0.45636796 -0.36732,-0.50089166 V -2.7391135 c 0,-0.4229752 0,-0.8125576 -0.367321,-1.1798782 -0.389582,-0.3895824 -0.879343,-0.5454153 -1.357973,-0.5454153 -0.823688,0 -1.502675,0.4674989 -1.502675,1.1242235 0,0.300535 0.189226,0.4674989 0.456368,0.4674989 0.278273,0 0.456368,-0.2003567 0.456368,-0.456368 0,-0.1224402 -0.05565,-0.445237 -0.512022,-0.456368 0.267142,-0.3450587 0.756903,-0.4563679 1.079699,-0.4563679 0.489761,0 1.057438,0.3895824 1.057438,1.2689255 v 0.3673206 c -0.512022,0.033393 -1.20214,0.066785 -1.836602,0.3673205 -0.745772,0.3339278 -0.990653,0.8570813 -0.990653,1.29118742 0,0.80142666 0.95726,1.05743795 1.591723,1.05743795 0.656724,0 1.113092,-0.40071332 1.302318,-0.86821221 0.04452,0.40071333 0.311666,0.81255759 0.779165,0.81255759 0.211487,0 0.812557,-0.13357111 0.812557,-0.9461287 z M 54.815651,-1.3922715 c 0,0.94612868 -0.72351,1.28005646 -1.168747,1.28005646 -0.489761,0 -0.890474,-0.3450587 -0.890474,-0.84595036 0,-0.5454154 0.411844,-1.3691039 2.059221,-1.4358894 z m 7.084835,1.39136571691 V -0.31257171 c -0.701249,0 -0.779165,-0.0667855 -0.779165,-0.55654629 v -6.0440927 l -1.43589,0.1113092 v 0.300535 c 0.701249,0 0.779165,0.077916 0.779165,0.5676773 v 2.1482686 c -0.289404,-0.3561896 -0.72351,-0.6233318 -1.257794,-0.6233318 -1.179879,0 -2.226186,0.9795215 -2.226186,2.2707089 0,1.25779458 0.979522,2.24844697 2.114876,2.24844697 0.634463,0 1.090831,-0.3450587 1.335711,-0.65672462 V 0.11040347 Z M 60.431203,-1.1807839 c 0,0.1780948 0,0.20035665 -0.111309,0.37845146 -0.300535,0.46749888 -0.745772,0.6901174 -1.168747,0.6901174 -0.456368,0 -0.812558,-0.25601129 -1.046307,-0.63446277 -0.267142,-0.41184429 -0.289404,-0.97952149 -0.289404,-1.39136569 0,-0.3673206 0.02226,-0.9572597 0.300535,-1.4136276 0.211487,-0.300535 0.589939,-0.6344628 1.135354,-0.6344628 0.345059,0 0.768034,0.155833 1.068569,0.60107 0.111309,0.1669639 0.111309,0.1892257 0.111309,0.3673206 z m 4.215839,1.17987811691 V -0.31257171 c -0.656725,0 -0.701249,-0.0445237 -0.701249,-0.4341061 V -4.4087524 l -1.391365,0.1113093 v 0.3116659 c 0.645593,0 0.734641,0.055655 0.734641,0.5454153 v 2.68255316 c 0,0.44523703 -0.100179,0.44523703 -0.768034,0.44523703 V -9.0578309e-4 L 63.611866,-0.03429856 c 0.345058,0 0.701248,0.02226185 1.035176,0.0333927769 z M 64.101626,-6.0227366 c 0,-0.2671423 -0.233749,-0.5231536 -0.534284,-0.5231536 -0.333928,0 -0.534285,0.2782732 -0.534285,0.5231536 0,0.2782731 0.23375,0.5342844 0.534285,0.5342844 0.333928,0 0.534284,-0.2782732 0.534284,-0.5342844 z m 5.55155,3.8846931 c 0,-1.2689256 -1.001784,-2.3263635 -2.203924,-2.3263635 -1.246663,0 -2.215054,1.0908307 -2.215054,2.3263635 0,1.29118736 1.035176,2.24844697 2.203923,2.24844697 1.20214,0 2.215055,-0.97952147 2.215055,-2.24844697 z m -0.83482,-0.077916 c 0,0.3673205 0,0.901605 -0.211488,1.33571108 -0.222618,0.45636796 -0.656724,0.7346411 -1.157616,0.7346411 -0.434106,0 -0.868212,-0.20035666 -1.135354,-0.65672462 C 66.057886,-1.2475695 66.057886,-1.8486395 66.057886,-2.21596 c 0,-0.3895824 0,-0.9238669 0.244881,-1.357973 0.267142,-0.4563679 0.734641,-0.6678555 1.135354,-0.6678555 0.434106,0 0.868212,0.2114876 1.124224,0.6455937 0.256011,0.4229752 0.256011,1.0017833 0.256011,1.3802353 z m 4.424543,0.9795215 v -0.5676773 h -0.24488 v 0.5454154 c 0,0.7346411 -0.300535,1.11309258 -0.667856,1.11309258 -0.667855,0 -0.667855,-0.90160498 -0.667855,-1.06856888 v -2.7716005 h 1.424758 V -4.2974431 H 71.662308 V -6.122915 h -0.256012 c 0,0.8125576 -0.300535,1.8811265 -1.280056,1.9145193 v 0.2226185 h 0.84595 v 2.7493387 c 0,1.22440179 0.923867,1.34684197 1.291188,1.34684197 0.701248,0 0.979521,-0.71237925 0.979521,-1.34684147 z m 5.902173,1.23553271691 V -0.31257171 c -0.523153,0 -0.768033,0 -0.779164,-0.30053499 V -2.516495 c 0,-0.8570813 0,-1.1576163 -0.311666,-1.5138059 -0.133571,-0.1780948 -0.467499,-0.3784515 -1.046307,-0.3784515 -0.83482,0 -1.268926,0.60107 -1.43589,0.9572596 v -3.4617179 l -1.435889,0.1113092 v 0.300535 c 0.690117,0 0.768034,0.077916 0.768034,0.5676773 v 5.17588046 c 0,0.44523703 -0.100179,0.44523703 -0.768034,0.44523703 v 0.31166592691 l 1.124223,-0.0333927769 1.113093,0.0333927769 V -0.31257171 c -0.667856,0 -0.779165,0 -0.779165,-0.44523703 V -2.5944115 c 0,-1.0351761 0.712379,-1.5917224 1.346842,-1.5917224 0.623332,0 0.734641,0.5342845 0.734641,1.1019617 v 2.32636346 c 0,0.44523703 -0.111309,0.44523703 -0.779165,0.44523703 V -9.0578309e-4 L 78.03198,-0.03429856 Z M 83.483351,-1.1919148 c 0,-0.089048 -0.07792,-0.1113093 -0.12244,-0.1113093 -0.08905,0 -0.11131,0.055655 -0.133571,0.1335711 -0.345059,1.02404518 -1.246664,1.02404518 -1.346842,1.02404518 -0.489761,0 -0.890475,-0.28940407 -1.124224,-0.65672462 C 80.455739,-1.2809623 80.455739,-1.9488178 80.455739,-2.3050074 h 2.782731 c 0.222619,0 0.244881,0 0.244881,-0.2114876 0,-0.9795215 -0.534285,-1.947912 -1.780948,-1.947912 -1.157617,0 -2.070353,1.0240451 -2.070353,2.2707088 0,1.33571113 1.046308,2.30410167 2.192793,2.30410167 1.213271,0 1.658508,-1.11309257 1.658508,-1.30231827 z M 82.826626,-2.516495 H 80.46687 c 0.06678,-1.4804131 0.901605,-1.7252935 1.235533,-1.7252935 1.024045,0 1.124223,1.346842 1.124223,1.7252935 z m 4.577593,-1.2800565 c 0,-0.3227968 -0.311665,-0.6122009 -0.734641,-0.6122009 -0.734641,0 -1.09083,0.6678555 -1.235532,1.1019617 v -1.1019617 l -1.380235,0.1113093 v 0.3116659 c 0.701248,0 0.779165,0.066785 0.779165,0.5565463 v 2.67142216 c 0,0.44523703 -0.11131,0.44523703 -0.779165,0.44523703 V -9.0578309e-4 L 85.189165,-0.03429856 c 0.400714,0 0.868212,0 1.268926,0.0333927769 V -0.31257171 h -0.211488 c -0.734641,0 -0.756903,-0.11130925 -0.756903,-0.46749888 V -2.3161384 c 0,-0.9795214 0.422975,-1.8699955 1.179878,-1.8699955 0.06679,0 0.08905,0 0.100179,0.011131 -0.02226,0.011131 -0.222619,0.1335711 -0.222619,0.3895824 0,0.2782732 0.211488,0.4229752 0.422975,0.4229752 0.178095,0 0.434106,-0.1113092 0.434106,-0.4341062 z m 5.086834,2.90517165 V -1.4479261 h -0.244881 v 0.55654625 c 0,0.57880814 -0.24488,0.6455937 -0.356189,0.6455937 -0.333928,0 -0.367321,-0.45636796 -0.367321,-0.50089166 V -2.7391135 c 0,-0.4229752 0,-0.8125576 -0.367321,-1.1798782 -0.389582,-0.3895824 -0.879343,-0.5454153 -1.357973,-0.5454153 -0.823688,0 -1.502674,0.4674989 -1.502674,1.1242235 0,0.300535 0.189225,0.4674989 0.456367,0.4674989 0.278274,0 0.456368,-0.2003567 0.456368,-0.456368 0,-0.1224402 -0.05565,-0.445237 -0.512022,-0.456368 0.267142,-0.3450587 0.756903,-0.4563679 1.0797,-0.4563679 0.48976,0 1.057438,0.3895824 1.057438,1.2689255 v 0.3673206 c -0.512023,0.033393 -1.20214,0.066785 -1.836603,0.3673205 -0.745772,0.3339278 -0.990653,0.8570813 -0.990653,1.29118742 0,0.80142666 0.95726,1.05743795 1.591723,1.05743795 0.656724,0 1.113092,-0.40071332 1.302318,-0.86821221 0.04452,0.40071333 0.311666,0.81255759 0.779165,0.81255759 0.211488,0 0.812558,-0.13357111 0.812558,-0.9461287 z M 90.832545,-1.3922715 c 0,0.94612868 -0.723511,1.28005646 -1.168748,1.28005646 -0.48976,0 -0.890474,-0.3450587 -0.890474,-0.84595036 0,-0.5454154 0.411845,-1.3691039 2.059222,-1.4358894 z m 7.018048,-0.756903 c 0,-1.2689255 -0.96839,-2.2595779 -2.081483,-2.2595779 -0.779165,0 -1.191009,0.445237 -1.391366,0.6567246 v -0.6567246 l -1.435889,0.1113093 v 0.3116659 c 0.712379,0 0.779165,0.055655 0.779165,0.5008916 v 4.663858 c 0,0.445237 -0.111309,0.445237 -0.779165,0.445237 v 0.3116659 l 1.113093,-0.033393 1.124223,0.033393 V 1.6242094 c -0.667855,0 -0.768034,0 -0.768034,-0.445237 v -1.76981725 c 0.04452,0.16696389 0.467499,0.70124832 1.224402,0.70124832 1.179878,0 2.215054,-0.97952147 2.215054,-2.25957797 z m -0.823688,0 c 0,1.20214002 -0.701249,2.03695946 -1.43589,2.03695946 -0.400713,0 -0.779164,-0.20035667 -1.046307,-0.60106999 -0.133571,-0.2114876 -0.133571,-0.22261852 -0.133571,-0.42297517 v -2.2261852 c 0.289404,-0.5008916 0.768034,-0.7902957 1.280057,-0.7902957 0.72351,0 1.335711,0.8793431 1.335711,2.0035666 z m 5.960615,-1.8366027 v -0.3116659 c -0.23375,0.022262 -0.52316,0.033393 -0.74578,0.033393 l -0.86821,-0.033393 v 0.3116659 c 0.30054,0.011131 0.4675,0.1780948 0.4675,0.4229752 0,0.1001783 -0.0111,0.1224401 -0.0668,0.2448803 l -1.00178,2.4488037 -1.10196,-2.6825531 c -0.04452,-0.1001783 -0.06679,-0.1335711 -0.06679,-0.1780948 0,-0.2560113 0.367321,-0.2560113 0.55655,-0.2560113 v -0.3116659 l -1.079703,0.033393 c -0.267143,0 -0.667856,-0.011131 -0.968391,-0.033393 v 0.3116659 c 0.47863,0 0.667856,0 0.812558,0.3450587 L 100.41627,-9.0578309e-4 100.16026,0.58903328 C 99.948773,1.1344486 99.6705,1.824566 99.024906,1.824566 c -0.04452,0 -0.278273,0 -0.467499,-0.1780948 0.311666,-0.044524 0.389583,-0.2671422 0.389583,-0.4229751 0,-0.25601134 -0.189226,-0.42297522 -0.411845,-0.42297522 -0.200356,0 -0.422975,0.1335711 -0.422975,0.43410612 0,0.445237 0.422975,0.8014266 0.912736,0.8014266 0.634463,0 1.035174,-0.5676772 1.280054,-1.13535439 l 1.74756,-4.25201371 c 0.26714,-0.6233318 0.76803,-0.6344627 0.935,-0.6344627 z m 0,0"
       style="fill:#000000;fill-opacity:1;fill-rule:nonzero;stroke:none"
       aria-label="surgeryvsradiotherapy"
       transform="matrix(1.4037467,0,0,1.4037467,166.52927,134.01299)" />
    <path
       id="path9"
       d="M 38.92314,-7.79881 H 131.1577 V 7.79883 H 38.92314 Z"
       style="fill:none;stroke:#000000;stroke-width:0.3985;stroke-linecap:butt;stroke-linejoin:miter;stroke-miterlimit:10;stroke-dasharray:none;stroke-opacity:1"
       transform="matrix(1.4037467,0,0,-1.4037467,343.55717,130.60048)" />
    <path
       id="path10"
       d="m 5.9437918,-5.6659816 0.144702,-0.144702 c 0.300535,-0.300535 0.6233318,-0.6344628 1.3023183,-0.6901174 0.1113093,0 0.2003567,0 0.2003567,-0.1892257 0,-0.077917 -0.044524,-0.1113093 -0.1335711,-0.1113093 -0.2560113,0 -0.5454154,0.022262 -0.8125576,0.022262 -0.3339278,0 -0.6789865,-0.022262 -1.0017833,-0.022262 -0.055655,0 -0.1892258,0 -0.1892258,0.1892257 0,0.1113093 0.1001784,0.1113093 0.155833,0.1113093 0.066785,0 0.3561896,0.022262 0.3561896,0.2337494 0,0.1669639 -0.2226185,0.4341062 -0.2671422,0.4786299 L 3.3836788,-3.1281305 2.2928481,-6.0889567 c -0.066786,-0.1335711 -0.066786,-0.155833 -0.066786,-0.1669639 0,-0.2448804 0.4897608,-0.2448804 0.5899391,-0.2448804 0.144702,0 0.2448804,0 0.2448804,-0.1892257 0,-0.1113093 -0.1224402,-0.1113093 -0.155833,-0.1113093 -0.2782731,0 -0.9683905,0.022262 -1.2466637,0.022262 -0.2560113,0 -0.86821219,-0.022262 -1.12422348,-0.022262 -0.0556546,0 -0.18922574,0 -0.18922574,0.2003567 0,0.1001783 0.10017833,0.1001783 0.23374944,0.1001783 0.60106998,0 0.63446278,0.1001783 0.72351018,0.3450587 l 1.2244018,3.2724922 c 0.011131,0.033393 0.044524,0.144702 0.044524,0.1780948 0,0.022262 -0.4007133,1.6251152 -0.445237,1.80320999 -0.1335711,0.55654629 -0.144702,0.57880814 -0.9349978,0.58993907 -0.1892257,0 -0.27827311,0 -0.27827311,0.20035666 0,0.11130925981 0.12244021,0.11130925981 0.14470201,0.11130925981 0.2782732,0 0.9795215,-0.0333927798 1.2577946,-0.0333927798 0.2782732,0 0.9906524,0.0333927798 1.2689256,0.0333927798 0.066785,0 0.1892257,0 0.1892257,-0.20035665981 0,-0.11130926 -0.089047,-0.11130926 -0.2782731,-0.11130926 -0.022262,0 -0.2114876,0 -0.3784515,-0.0222619 -0.2114876,-0.0111309 -0.2671422,-0.0333928 -0.2671422,-0.15583297 0,-0.0667855 0.089047,-0.41184425 0.144702,-0.62333179 L 3.339155,-2.5159296 C 3.383679,-2.7051553 3.39481,-2.7385481 3.4727261,-2.8275955 Z m 0,0"
       style="fill:#000000;fill-opacity:1;fill-rule:nonzero;stroke:none"
       aria-label="Y"
       transform="matrix(1.4037467,0,0,1.4037467,402.85564,134.02001)" />
    <path
       id="path11"
       d="m 6.8457847,-3.2617016 c 0.1447021,0 0.3339278,0 0.3339278,-0.2003566 0,-0.1892258 -0.1892257,-0.1892258 -0.3227968,-0.1892258 H 0.89073943 c -0.14470203,0 -0.33392777,0 -0.33392777,0.1892258 0,0.2003566 0.18922574,0.2003566 0.3450587,0.2003566 z m 0.011131,1.9367811 c 0.1335711,0 0.3227968,0 0.3227968,-0.2003567 0,-0.2003566 -0.1892257,-0.2003566 -0.3339278,-0.2003566 H 0.90187036 c -0.15583296,0 -0.3450587,0 -0.3450587,0.2003566 0,0.2003567 0.18922574,0.2003567 0.33392777,0.2003567 z m 0,0"
       style="fill:#000000;fill-opacity:1;fill-rule:nonzero;stroke:none"
       aria-label="="
       transform="matrix(1.4037467,0,0,1.4037467,417.96838,134.02001)" />
    <path
       id="path12"
       d="M 4.1752855,-3.4032019e-4 V -0.31200624 H 3.8524887 c -0.8904741,0 -0.9238669,-0.11130926 -0.9238669,-0.47862981 V -6.3783608 c 0,-0.2337495 0,-0.2560113 -0.2226185,-0.2560113 -0.6233318,0.6344628 -1.502675,0.6344628 -1.81434088,0.6344628 v 0.3116659 c 0.20035668,0 0.77916478,0 1.30231828,-0.2560113 v 5.15361865 c 0,0.36732055 -0.033393,0.47862981 -0.9238668,0.47862981 H 0.94731704 V -3.4032019e-4 C 1.2923757,-0.0337331 2.160588,-0.0337331 2.5613013,-0.0337331 c 0.4007133,0 1.2689255,0 1.6139842,0.0333927798 z M 7.7316163,-1.8592049 V -2.4380131 H 5.0935869 v 0.5788082 z m 5.6322487,-2.1260069 v -0.3116659 c -0.23375,0.022262 -0.523154,0.033393 -0.745772,0.033393 l -0.868212,-0.033393 v 0.3116659 c 0.300535,0.011131 0.467498,0.1780949 0.467498,0.4229752 0,0.1001784 -0.01113,0.1224402 -0.06678,0.2448804 l -1.001783,2.44880367 -1.101962,-2.68255317 c -0.04452,-0.1001783 -0.066786,-0.1335711 -0.066786,-0.1780948 0,-0.2560113 0.367321,-0.2560113 0.556547,-0.2560113 v -0.3116659 l -1.0797005,0.033393 c -0.2671422,0 -0.6678555,-0.011131 -0.9683905,-0.033393 v 0.3116659 c 0.4786298,0 0.6678555,0 0.8125576,0.3450587 L 10.792621,-3.4032019e-4 10.53661,0.58959875 C 10.325122,1.1350141 10.046849,1.8251315 9.4012552,1.8251315 c -0.044524,0 -0.2782731,0 -0.4674989,-0.1780948 0.3116659,-0.044524 0.3895824,-0.2671422 0.3895824,-0.4229752 0,-0.25601127 -0.1892257,-0.42297516 -0.4118442,-0.42297516 -0.2003567,0 -0.4229752,0.13357111 -0.4229752,0.43410606 0,0.4452371 0.4229752,0.8014267 0.9127359,0.8014267 0.6344628,0 1.0351758,-0.5676772 1.2800568,-1.13535443 L 12.428867,-3.350749 c 0.267142,-0.6233318 0.768034,-0.6344628 0.934998,-0.6344628 z m 4.046091,2.7938624 c 0,-0.089047 -0.07792,-0.1113092 -0.12244,-0.1113092 -0.08905,0 -0.111309,0.055655 -0.133571,0.1335711 -0.345059,1.02404514 -1.246664,1.02404514 -1.346842,1.02404514 -0.489761,0 -0.890474,-0.28940407 -1.124224,-0.65672462 C 14.382344,-1.2803968 14.382344,-1.9482523 14.382344,-2.304442 h 2.782732 c 0.222618,0 0.24488,0 0.24488,-0.2114876 0,-0.9795214 -0.534284,-1.947912 -1.780948,-1.947912 -1.157616,0 -2.070352,1.0240452 -2.070352,2.2707089 0,1.33571109 1.046307,2.30410164 2.192792,2.30410164 1.213271,0 1.658508,-1.11309254 1.658508,-1.30231834 z m -0.656724,-1.3245802 h -2.359757 c 0.06679,-1.4804131 0.901605,-1.7252935 1.235533,-1.7252935 1.024045,0 1.124224,1.3468421 1.124224,1.7252935 z m 5.760254,1.62511522 V -1.4473607 h -0.244881 v 0.55654632 c 0,0.57880814 -0.24488,0.64559369 -0.356189,0.64559369 -0.333928,0 -0.367321,-0.45636796 -0.367321,-0.50089166 V -2.7385481 c 0,-0.4229751 0,-0.8125576 -0.36732,-1.1798781 -0.389583,-0.3895824 -0.879343,-0.5454154 -1.357973,-0.5454154 -0.823689,0 -1.502675,0.4674989 -1.502675,1.1242235 0,0.300535 0.189226,0.4674989 0.456368,0.4674989 0.278273,0 0.456368,-0.2003566 0.456368,-0.4563679 0,-0.1224402 -0.05566,-0.4452371 -0.512023,-0.456368 0.267142,-0.3450587 0.756903,-0.456368 1.0797,-0.456368 0.489761,0 1.057438,0.3895825 1.057438,1.2689256 v 0.3673205 c -0.512023,0.033393 -1.20214,0.066786 -1.836603,0.3673206 -0.745772,0.3339278 -0.990652,0.8570813 -0.990652,1.29118739 0,0.80142665 0.957259,1.05743795 1.591722,1.05743795 0.656725,0 1.113093,-0.40071333 1.302318,-0.86821222 0.04452,0.40071333 0.311666,0.81255759 0.779165,0.81255759 0.211488,0 0.812558,-0.13357111 0.812558,-0.94612869 z M 20.854978,-1.391706 c 0,0.94612865 -0.72351,1.28005642 -1.168747,1.28005642 -0.489761,0 -0.890474,-0.3450587 -0.890474,-0.84595036 0,-0.54541536 0.411844,-1.36910386 2.059221,-1.43588946 z m 5.459719,-2.40428 c 0,-0.3227969 -0.311666,-0.6122009 -0.734641,-0.6122009 -0.734641,0 -1.090831,0.6678555 -1.235533,1.1019616 v -1.1019616 l -1.380235,0.1113092 v 0.3116659 c 0.701249,0 0.779165,0.066786 0.779165,0.5565463 v 2.67142222 c 0,0.44523704 -0.111309,0.44523704 -0.779165,0.44523704 V -3.4032019e-4 L 24.099643,-0.0337331 c 0.400713,0 0.868212,0 1.268925,0.0333927798 V -0.31200624 h -0.211487 c -0.734641,0 -0.756903,-0.11130926 -0.756903,-0.46749889 V -2.3155729 c 0,-0.9795215 0.422975,-1.8699955 1.179878,-1.8699955 0.06678,0 0.08905,0 0.100178,0.011131 -0.02226,0.011131 -0.222618,0.1335711 -0.222618,0.3895824 0,0.2782732 0.211487,0.4229752 0.422975,0.4229752 0.178095,0 0.434106,-0.1113093 0.434106,-0.4341062 z m 7.176664,2.5155892 c 0,-0.5231535 -0.300535,-0.8236885 -0.411844,-0.9461287 -0.333928,-0.3116659 -0.72351,-0.3895824 -1.135354,-0.4786298 -0.567678,-0.1001783 -1.235533,-0.2337494 -1.235533,-0.8125576 0,-0.3450587 0.267142,-0.7569029 1.124223,-0.7569029 1.090831,0 1.146486,0.901605 1.157617,1.20214 0.01113,0.089047 0.12244,0.089047 0.12244,0.089047 0.133571,0 0.133571,-0.044524 0.133571,-0.2337495 v -1.0017833 c 0,-0.1780948 0,-0.2448804 -0.111309,-0.2448804 -0.04452,0 -0.06679,0 -0.200357,0.1224402 -0.03339,0.033393 -0.133571,0.1224402 -0.166964,0.155833 C 32.3894,-4.463842 31.977555,-4.463842 31.832853,-4.463842 c -1.21327,0 -1.591722,0.6678556 -1.591722,1.2244019 0,0.3450587 0.155833,0.6344627 0.422975,0.8459503 0.322797,0.2560113 0.60107,0.3227969 1.313449,0.456368 0.222619,0.044524 1.035177,0.2003567 1.035177,0.9238668 0,0.50089169 -0.345059,0.90160502 -1.124224,0.90160502 -0.834819,0 -1.191009,-0.56767721 -1.380235,-1.41362762 -0.03339,-0.1335711 -0.04452,-0.1669638 -0.144702,-0.1669638 -0.12244,0 -0.12244,0.066786 -0.12244,0.2448803 v 1.31344927 c 0,0.17809481 0,0.24488037 0.100178,0.24488037 0.05566,0 0.06679,-0.01113093 0.256012,-0.20035667 0.02226,-0.02226185 0.02226,-0.0445237 0.200356,-0.23374944 0.434106,0.42297518 0.879343,0.43410611 1.090831,0.43410611 1.146485,0 1.602853,-0.66785555 1.602853,-1.39136534 z m 5.67399,1.28005647981 V -0.31200624 c -0.701249,0 -0.779165,-0.0667856 -0.779165,-0.55654629 V -4.4081869 l -1.469282,0.1113092 v 0.3116659 c 0.701248,0 0.779165,0.066786 0.779165,0.5565463 v 1.7698172 c 0,0.86821225 -0.47863,1.54719872 -1.20214,1.54719872 -0.83482,0 -0.879344,-0.46749888 -0.879344,-0.97952142 v -3.3170159 l -1.458151,0.1113092 v 0.3116659 c 0.768034,0 0.768034,0.033393 0.768034,0.912736 v 1.5026749 c 0,0.76803392 0,1.68076984 1.513806,1.68076984 0.567677,0 1.001783,-0.27827315 1.291187,-0.90160499 V 0.11096894 Z M 42.999955,-3.795986 c 0,-0.3227969 -0.311666,-0.6122009 -0.734641,-0.6122009 -0.734641,0 -1.090831,0.6678555 -1.235533,1.1019616 v -1.1019616 l -1.380235,0.1113092 v 0.3116659 c 0.701248,0 0.779165,0.066786 0.779165,0.5565463 v 2.67142222 c 0,0.44523704 -0.111309,0.44523704 -0.779165,0.44523704 V -3.4032019e-4 L 40.784901,-0.0337331 c 0.400713,0 0.868212,0 1.268925,0.0333927798 V -0.31200624 h -0.211488 c -0.734641,0 -0.756902,-0.11130926 -0.756902,-0.46749889 V -2.3155729 c 0,-0.9795215 0.422975,-1.8699955 1.179878,-1.8699955 0.06679,0 0.08905,0 0.100178,0.011131 -0.02226,0.011131 -0.222619,0.1335711 -0.222619,0.3895824 0,0.2782732 0.211488,0.4229752 0.422976,0.4229752 0.178094,0 0.434106,-0.1113093 0.434106,-0.4341062 z m 5.342844,-0.1892258 v -0.3116659 c -0.233749,0.022262 -0.523153,0.033393 -0.745772,0.033393 l -0.868212,-0.033393 v 0.3116659 c 0.36732,0.011131 0.47863,0.2337495 0.47863,0.4229752 0,0.1001784 -0.02226,0.1335711 -0.06679,0.2448804 l -1.012914,2.53785107 -1.113093,-2.78273147 c -0.06678,-0.1224402 -0.06678,-0.1669639 -0.06678,-0.1669639 0,-0.2560113 0.389582,-0.2560113 0.567677,-0.2560113 v -0.3116659 l -1.0797,0.033393 c -0.267142,0 -0.667855,-0.011131 -0.96839,-0.033393 v 0.3116659 c 0.623331,0 0.667855,0.055655 0.801426,0.3673206 l 1.424759,3.5396344 c 0.06679,0.13357111 0.08905,0.18922574 0.211487,0.18922574 0.133571,0 0.166964,-0.08904741 0.211488,-0.18922574 l 1.302318,-3.2390994 c 0.08905,-0.2337495 0.267143,-0.6567246 0.923867,-0.6678556 z m 2.654726,3.98487147981 V -0.31200624 c -0.656725,0 -0.701248,-0.0445237 -0.701248,-0.43410611 V -4.4081869 l -1.391366,0.1113092 v 0.3116659 c 0.645594,0 0.734641,0.055655 0.734641,0.5454154 v 2.68255312 c 0,0.44523704 -0.100178,0.44523704 -0.768034,0.44523704 V -3.4032019e-4 L 49.962349,-0.0337331 c 0.345059,0 0.701248,0.02226185 1.035176,0.0333927798 z M 50.45211,-6.0221712 c 0,-0.2671422 -0.23375,-0.5231535 -0.534285,-0.5231535 -0.333928,0 -0.534284,0.2782731 -0.534284,0.5231535 0,0.2782732 0.233749,0.5342845 0.534284,0.5342845 0.333928,0 0.534285,-0.2782732 0.534285,-0.5342845 z m 5.918869,2.0369594 v -0.3116659 c -0.233749,0.022262 -0.523153,0.033393 -0.745772,0.033393 l -0.868212,-0.033393 v 0.3116659 c 0.367321,0.011131 0.47863,0.2337495 0.47863,0.4229752 0,0.1001784 -0.02226,0.1335711 -0.06679,0.2448804 l -1.012914,2.53785107 -1.113092,-2.78273147 c -0.06679,-0.1224402 -0.06679,-0.1669639 -0.06679,-0.1669639 0,-0.2560113 0.389582,-0.2560113 0.567677,-0.2560113 v -0.3116659 l -1.0797,0.033393 c -0.267142,0 -0.667855,-0.011131 -0.96839,-0.033393 v 0.3116659 c 0.623332,0 0.667855,0.055655 0.801427,0.3673206 l 1.424758,3.5396344 c 0.06679,0.13357111 0.08905,0.18922574 0.211488,0.18922574 0.133571,0 0.166964,-0.08904741 0.211487,-0.18922574 l 1.302319,-3.2390994 c 0.08905,-0.2337495 0.267142,-0.6567246 0.923866,-0.6678556 z m 4.446805,3.09439742 V -1.4473607 h -0.24488 v 0.55654632 c 0,0.57880814 -0.244881,0.64559369 -0.35619,0.64559369 -0.333928,0 -0.36732,-0.45636796 -0.36732,-0.50089166 V -2.7385481 c 0,-0.4229751 0,-0.8125576 -0.367321,-1.1798781 -0.389582,-0.3895824 -0.879343,-0.5454154 -1.357973,-0.5454154 -0.823688,0 -1.502675,0.4674989 -1.502675,1.1242235 0,0.300535 0.189226,0.4674989 0.456368,0.4674989 0.278273,0 0.456368,-0.2003566 0.456368,-0.4563679 0,-0.1224402 -0.05565,-0.4452371 -0.512022,-0.456368 0.267142,-0.3450587 0.756902,-0.456368 1.079699,-0.456368 0.489761,0 1.057438,0.3895825 1.057438,1.2689256 v 0.3673205 c -0.512022,0.033393 -1.20214,0.066786 -1.836602,0.3673206 -0.745772,0.3339278 -0.990653,0.8570813 -0.990653,1.29118739 0,0.80142665 0.95726,1.05743795 1.591723,1.05743795 0.656724,0 1.113092,-0.40071333 1.302318,-0.86821222 0.04452,0.40071333 0.311666,0.81255759 0.779165,0.81255759 0.211487,0 0.812557,-0.13357111 0.812557,-0.94612869 z M 59.159276,-1.391706 c 0,0.94612865 -0.72351,1.28005642 -1.168747,1.28005642 -0.489761,0 -0.890474,-0.3450587 -0.890474,-0.84595036 0,-0.54541536 0.411844,-1.36910386 2.059221,-1.43588946 z m 4.368889,1.39136567981 V -0.31200624 c -0.667856,0 -0.779165,0 -0.779165,-0.44523704 V -6.9126452 l -1.424759,0.1113092 v 0.300535 c 0.690118,0 0.768034,0.077916 0.768034,0.5676772 v 5.17588052 c 0,0.44523704 -0.100178,0.44523704 -0.768034,0.44523704 V -3.4032019e-4 L 62.426203,-0.0337331 Z m 0,0"
       style="fill:#000000;fill-opacity:1;fill-rule:nonzero;stroke:none"
       aria-label="1-yearsurvival"
       transform="matrix(1.4037467,0,0,1.4037467,433.50224,134.02001)" />
    <path
       id="path13"
       d="M -244.54712,-7.74403 H -180.655 V 7.74404 h -63.89212 z"
       style="fill:none;stroke:#000000;stroke-width:0.3985;stroke-linecap:butt;stroke-linejoin:miter;stroke-miterlimit:10;stroke-dasharray:none;stroke-opacity:1"
       transform="matrix(1.4037467,0,0,-1.4037467,343.55717,130.60048)" />
    <path
       id="path14"
       d="M 4.8309771,-4.0958664 3.9961577,-6.0771712 c -0.033393,-0.077916 -0.055655,-0.1224402 -0.055655,-0.1335711 0,-0.055655 0.1780948,-0.2448804 0.5899391,-0.2894041 0.1001783,0 0.2003567,-0.011131 0.2003567,-0.1892257 0,-0.1113093 -0.1224402,-0.1113093 -0.1447021,-0.1113093 -0.4118442,0 -0.8348194,0.022262 -1.2577946,0.022262 -0.2448804,0 -0.8682122,-0.022262 -1.1130926,-0.022262 -0.066785,0 -0.1780948,0 -0.1780948,0.2003567 0,0.1001783 0.1001783,0.1001783 0.2226185,0.1001783 0.60107,0 0.6567246,0.1001784 0.7457721,0.3227969 l 1.1798781,2.7827314 -2.103745,2.259578 -0.1335711,0.1113092 c -0.4786298,0.52315355 -0.9461287,0.69011743 -1.45815128,0.71237929 -0.13357111,0.0111309 -0.22261851,0.0111309 -0.22261851,0.20035666 0,0.01113093 0,0.11130925885 0.13357111,0.11130925885 0.30053499,0 0.62333188,-0.0333927788 0.93499778,-0.0333927788 0.3673205,0 0.7569029,0.0333927788 1.1130926,0.0333927788 0.066785,0 0.1780948,0 0.1780948,-0.20035666885 0,-0.10017833 -0.1001784,-0.11130925 -0.1113093,-0.11130925 -0.1001783,-0.0111309 -0.4007133,-0.0222619 -0.4007133,-0.300535 0,-0.16696389 0.144702,-0.32279685 0.2671422,-0.45636799 l 1.0129143,-1.0685688 0.9016049,-0.9795215 1.0017834,2.38201811 c 0.044524,0.11130925 0.055655,0.12244018 0.055655,0.13357111 0,0.0779165 -0.1892257,0.25601129 -0.5788081,0.28940407 -0.1113093,0.0111309 -0.2003567,0.0222619 -0.2003567,0.18922573 0,0.12244018885 0.1113093,0.12244018885 0.144702,0.12244018885 0.2782732,0 0.9795215,-0.0333927788 1.2577946,-0.0333927788 0.2448804,0 0.8570813,0.0333927788 1.1019617,0.0333927788 0.077917,0 0.1892257,0 0.1892257,-0.18922573885 0,-0.12244018 -0.1001783,-0.12244018 -0.1780948,-0.12244018 C 6.4226995,-0.32248254 6.4004376,-0.34474439 6.2334737,-0.74545772 5.8438913,-1.6693246 5.1760358,-3.2276542 4.9534173,-3.8287242 c 0.6789864,-0.6901174 1.7252935,-1.8811264 2.0369594,-2.1593996 0.2894041,-0.2337494 0.6678555,-0.4786298 1.2689255,-0.5120226 0.1335711,0 0.2226186,0 0.2226186,-0.1892257 0,-0.011131 0,-0.1113093 -0.1335712,-0.1113093 -0.300535,0 -0.6233318,0.022262 -0.9349977,0.022262 -0.3673206,0 -0.7457721,-0.022262 -1.1019617,-0.022262 -0.066785,0 -0.1892257,0 -0.1892257,0.2003567 0,0.066786 0.044524,0.1001783 0.1113092,0.1001783 0.089047,0.011131 0.4007134,0.033393 0.4007134,0.311666 0,0.144702 -0.1113093,0.2671422 -0.1892258,0.3561896 z m 0,0"
       style="fill:#000000;fill-opacity:1;fill-rule:nonzero;stroke:none"
       aria-label="X"
       transform="matrix(1.4037467,0,0,1.4037467,4.9411883,134.09722)" />
    <path
       id="path15"
       d="m 6.8442387,-3.261047 c 0.1447021,0 0.3339278,0 0.3339278,-0.2003566 0,-0.1892258 -0.1892257,-0.1892258 -0.3227968,-0.1892258 H 0.88919344 c -0.14470204,0 -0.33392777,0 -0.33392777,0.1892258 0,0.2003566 0.18922573,0.2003566 0.3450587,0.2003566 z m 0.011131,1.9367811 c 0.1335711,0 0.3227968,0 0.3227968,-0.2003566 0,-0.2003567 -0.1892257,-0.2003567 -0.3339278,-0.2003567 H 0.90032437 c -0.15583297,0 -0.3450587,0 -0.3450587,0.2003567 0,0.2003566 0.18922573,0.2003566 0.33392777,0.2003566 z m 0,0"
       style="fill:#000000;fill-opacity:1;fill-rule:nonzero;stroke:none"
       aria-label="="
       transform="matrix(1.4037467,0,0,1.4037467,21.50961,134.09722)" />
    <path
       id="path16"
       d="M 5.3313558,3.1430885e-4 V -0.31135161 c -0.5231535,0 -0.7680339,0 -0.7791648,-0.300535 V -2.5152749 c 0,-0.8570813 0,-1.1576163 -0.3116659,-1.5138059 -0.1335711,-0.1780948 -0.4674989,-0.3784515 -1.046307,-0.3784515 -0.8348195,0 -1.2689256,0.60107 -1.4358895,0.9572596 v -3.4617179 l -1.43588939,0.1113092 v 0.300535 c 0.69011739,0 0.76803389,0.077917 0.76803389,0.5676773 v 5.17588045 c 0,0.44523704 -0.10017834,0.44523704 -0.76803389,0.44523704 V 3.1430885e-4 L 1.4466627,-0.03307847 2.5597553,3.1430885e-4 V -0.31135161 c -0.6678556,0 -0.7791648,0 -0.7791648,-0.44523704 V -2.5931914 c 0,-1.0351761 0.7123792,-1.5917224 1.346842,-1.5917224 0.6233319,0 0.7346411,0.5342844 0.7346411,1.1019617 v 2.32636345 c 0,0.44523704 -0.1113092,0.44523704 -0.7791648,0.44523704 V 3.1430885e-4 L 4.2182632,-0.03307847 Z M 10.237311,-2.1368234 c 0,-1.2689256 -1.001783,-2.3263635 -2.2039229,-2.3263635 -1.2466637,0 -2.2150543,1.0908307 -2.2150543,2.3263635 0,1.29118735 1.0351761,2.24844697 2.2039233,2.24844697 1.20214,0 2.2150539,-0.97952147 2.2150539,-2.24844697 z m -0.8348191,-0.077917 c 0,0.3673205 0,0.901605 -0.2114876,1.33571107 -0.2226185,0.45636796 -0.6567246,0.7346411 -1.1576162,0.7346411 -0.4341061,0 -0.8682123,-0.20035666 -1.1353545,-0.65672462 C 6.6420223,-1.2463494 6.6420223,-1.8474194 6.6420223,-2.2147399 c 0,-0.3895824 0,-0.9238669 0.2448804,-1.357973 0.2671422,-0.4563679 0.7346411,-0.6678555 1.1353544,-0.6678555 0.4341061,0 0.8682122,0.2114876 1.1242235,0.6455937 0.2560113,0.4229752 0.2560113,1.0017833 0.2560113,1.3802343 z m 4.7028161,0.9349977 c 0,-0.5231535 -0.300535,-0.8236885 -0.411844,-0.9461287 -0.333928,-0.3116659 -0.72351,-0.3895824 -1.135355,-0.4786298 -0.567677,-0.1001783 -1.235532,-0.2337494 -1.235532,-0.8125575 0,-0.3450587 0.267142,-0.756903 1.124223,-0.756903 1.090831,0 1.146486,0.901605 1.157616,1.20214 0.01113,0.089047 0.122441,0.089047 0.122441,0.089047 0.133571,0 0.133571,-0.044524 0.133571,-0.2337494 v -1.0017834 c 0,-0.1780948 0,-0.2448803 -0.11131,-0.2448803 -0.04452,0 -0.06678,0 -0.200356,0.1224401 -0.03339,0.033393 -0.133571,0.1224402 -0.166964,0.155833 -0.378452,-0.2782731 -0.790296,-0.2782731 -0.934998,-0.2782731 -1.213271,0 -1.591722,0.6678555 -1.591722,1.2244018 0,0.3450587 0.155833,0.6344628 0.422975,0.8459504 0.322797,0.2560113 0.60107,0.3227968 1.313449,0.4563679 0.222619,0.044524 1.035176,0.2003567 1.035176,0.9238669 0,0.50089162 -0.345058,0.90160495 -1.124223,0.90160495 -0.83482,0 -1.191009,-0.56767722 -1.380235,-1.41362755 -0.03339,-0.1335711 -0.04452,-0.1669639 -0.144702,-0.1669639 -0.12244,0 -0.12244,0.066785 -0.12244,0.2448804 v 1.3134492 c 0,0.17809481 0,0.24488037 0.100178,0.24488037 0.05565,0 0.06679,-0.0111309 0.256011,-0.20035667 0.02226,-0.02226185 0.02226,-0.0445237 0.200357,-0.23374944 0.434106,0.42297518 0.879343,0.43410611 1.090831,0.43410611 1.146485,0 1.602853,-0.66785555 1.602853,-1.39136537 z m 5.526505,-0.8682122 c 0,-1.2689255 -0.968391,-2.2595779 -2.081483,-2.2595779 -0.779165,0 -1.191009,0.445237 -1.391366,0.6567246 v -0.6567246 l -1.43589,0.1113092 v 0.311666 c 0.71238,0 0.779165,0.055655 0.779165,0.5008916 v 4.6638579 c 0,0.4452371 -0.111309,0.4452371 -0.779165,0.4452371 v 0.3116659 l 1.113093,-0.033393 1.124224,0.033393 V 1.6254295 c -0.667856,0 -0.768034,0 -0.768034,-0.4452371 v -1.76981716 c 0.04452,0.16696389 0.467499,0.70124833 1.224402,0.70124833 1.179878,0 2.215054,-0.97952147 2.215054,-2.25957847 z m -0.823689,0 c 0,1.20214002 -0.701248,2.03695945 -1.435889,2.03695945 -0.400714,0 -0.779165,-0.20035666 -1.046307,-0.60106999 -0.133571,-0.21148759 -0.133571,-0.22261852 -0.133571,-0.42297516 v -2.2261852 c 0.289404,-0.5008916 0.768034,-0.7902957 1.280056,-0.7902957 0.72351,0 1.335711,0.8793431 1.335711,2.0035666 z m 3.63703,2.14826870885 V -0.31135161 c -0.656724,0 -0.701248,-0.0445237 -0.701248,-0.43410611 V -4.4075323 l -1.391366,0.1113092 v 0.311666 c 0.645594,0 0.734641,0.055655 0.734641,0.5454153 v 2.68255315 c 0,0.44523704 -0.100178,0.44523704 -0.768034,0.44523704 V 3.1430885e-4 L 21.409978,-0.03307847 c 0.345059,0 0.701248,0.02226185 1.035176,0.0333922788 z M 21.899739,-6.0215166 c 0,-0.2671422 -0.23375,-0.5231535 -0.534285,-0.5231535 -0.333927,0 -0.534284,0.2782732 -0.534284,0.5231535 0,0.2782732 0.233749,0.5342845 0.534284,0.5342845 0.333928,0 0.534285,-0.2782732 0.534285,-0.5342845 z m 4.160183,4.7862981 v -0.5676772 h -0.24488 v 0.5454154 c 0,0.7346411 -0.300535,1.11309257 -0.667856,1.11309257 -0.667855,0 -0.667855,-0.90160497 -0.667855,-1.06856887 v -2.7716005 h 1.424758 v -0.311666 H 24.479331 V -6.1216949 H 24.22332 c 0,0.8125576 -0.300535,1.8811265 -1.280057,1.9145193 v 0.2226185 h 0.845951 v 2.7493386 c 0,1.22440188 0.923866,1.34684207 1.291187,1.34684207 0.701248,0 0.979521,-0.71237925 0.979521,-1.34684207 z m 5.37902,0.34505874 V -1.446706 h -0.24488 v 0.55654624 c 0,0.57880815 -0.24488,0.6455937 -0.35619,0.6455937 -0.333927,0 -0.36732,-0.45636796 -0.36732,-0.50089166 V -2.7378934 c 0,-0.4229752 0,-0.8125576 -0.367321,-1.1798782 -0.389582,-0.3895824 -0.879343,-0.5454153 -1.357973,-0.5454153 -0.823688,0 -1.502675,0.4674988 -1.502675,1.1242235 0,0.300535 0.189226,0.4674989 0.456368,0.4674989 0.278273,0 0.456368,-0.2003567 0.456368,-0.456368 0,-0.1224402 -0.05565,-0.445237 -0.512022,-0.456368 0.267142,-0.3450587 0.756903,-0.4563679 1.079699,-0.4563679 0.489761,0 1.057438,0.3895824 1.057438,1.2689255 v 0.3673206 c -0.512022,0.033393 -1.20214,0.066786 -1.836602,0.3673205 -0.745772,0.3339278 -0.990653,0.8570813 -0.990653,1.29118742 0,0.80142665 0.95726,1.05743795 1.591723,1.05743795 0.656724,0 1.113092,-0.40071333 1.302318,-0.86821222 0.04452,0.40071333 0.311666,0.81255759 0.779165,0.81255759 0.211487,0 0.812557,-0.13357111 0.812557,-0.9461287 z M 29.780434,-1.3910514 c 0,0.94612868 -0.72351,1.28005645 -1.168747,1.28005645 -0.489761,0 -0.890474,-0.3450587 -0.890474,-0.84595036 0,-0.54541539 0.411844,-1.36910389 2.059221,-1.43588939 z M 34.149323,3.1430885e-4 V -0.31135161 c -0.667856,0 -0.779165,0 -0.779165,-0.44523704 V -6.9119906 l -1.424759,0.1113092 v 0.300535 c 0.690118,0 0.768034,0.077917 0.768034,0.5676773 v 5.17588045 c 0,0.44523704 -0.100178,0.44523704 -0.768034,0.44523704 V 3.1430885e-4 L 33.047361,-0.03307847 Z m 0,0"
       style="fill:#000000;fill-opacity:1;fill-rule:nonzero;stroke:none"
       aria-label="hospital"
       transform="matrix(1.4037467,0,0,1.4037467,37.043471,134.09722)" />
    <path
       id="path17"
       d="M 72.56375,77.2416 H 182.55751 V 92.83924 H 72.56375 Z"
       style="fill:none;stroke:#000000;stroke-width:0.3985;stroke-linecap:butt;stroke-linejoin:miter;stroke-miterlimit:10;stroke-dasharray:none;stroke-opacity:1"
       transform="matrix(1.4037467,0,0,-1.4037467,343.55717,130.60048)" />
    <path
       id="path18"
       d="m 9.137808,-5.6426836 c 0.2448804,-0.4452371 0.4897607,-0.8014267 1.113093,-0.8570813 0.08905,0 0.189225,0 0.189225,-0.1892257 0,-0.044524 -0.04452,-0.1113093 -0.12244,-0.1113093 -0.233749,0 -0.5120225,0.022262 -0.7680338,0.022262 -0.3339277,0 -0.7012483,-0.022262 -1.0351761,-0.022262 -0.055655,0 -0.1892257,0 -0.1892257,0.1892257 0,0.1113093 0.089047,0.1113093 0.155833,0.1113093 0.2337494,0.011131 0.5788081,0.1001783 0.5788081,0.3895824 0,0.1113093 -0.044524,0.1892257 -0.1224402,0.3339278 L 6.2437673,-1.090135 5.8764467,-6.0211351 c -0.011131,-0.2003567 -0.033393,-0.4674989 0.7012484,-0.4786298 0.1669638,0 0.2671422,0 0.2671422,-0.1892257 0,-0.1001784 -0.1113093,-0.1113093 -0.155833,-0.1113093 -0.3895824,0 -0.8125576,0.022262 -1.2132709,0.022262 -0.2226185,0 -0.8125576,-0.022262 -1.046307,-0.022262 -0.055655,0 -0.1892258,0 -0.1892258,0.2003567 0,0.1001783 0.1001784,0.1001783 0.2448804,0.1001783 0.4341061,0 0.5008917,0.066785 0.5231535,0.2560113 l 0.066786,0.7680339 -2.5267202,4.3855847 -0.3784515,-5.0423094 c 0,-0.1224401 0,-0.3561896 0.756903,-0.3673205 0.1001783,0 0.2114876,0 0.2114876,-0.1892257 0,-0.1113093 -0.1224402,-0.1113093 -0.1447021,-0.1113093 -0.3895824,0 -0.8125575,0.022262 -1.2244018,0.022262 -0.3450587,0 -0.7012483,-0.022262 -1.04630702,-0.022262 -0.0445237,0 -0.17809481,0 -0.17809481,0.1892257 0,0.1113093 0.0890474,0.1113093 0.25601129,0.1113093 0.48976074,0 0.50089164,0.1001783 0.52315354,0.3784515 l 0.445237,6.07748546 c 0.011131,0.18922574 0.022262,0.26714222 0.1669639,0.26714222 0.1113093,0 0.144702,-0.0667856 0.2337494,-0.21148759 l 2.9274335,-5.08683309 0.3673206,5.03117846 c 0.022262,0.21148759 0.044524,0.26714222 0.1669639,0.26714222 0.1224401,0 0.1892257,-0.10017833 0.2337494,-0.18922574 z m 0,0"
       style="fill:#000000;fill-opacity:1;fill-rule:nonzero;stroke:none"
       aria-label="W"
       transform="matrix(1.4037467,0,0,1.4037467,450.07908,14.799805)" />
    <path
       id="path19"
       d="m 6.8450876,-3.2606655 c 0.1447021,0 0.3339278,0 0.3339278,-0.2003567 0,-0.1892257 -0.1892257,-0.1892257 -0.3227968,-0.1892257 H 0.89004233 c -0.14470203,0 -0.33392777,0 -0.33392777,0.1892257 0,0.2003567 0.18922574,0.2003567 0.3450587,0.2003567 z m 0.011131,1.9367811 c 0.1335711,0 0.3227968,0 0.3227968,-0.2003567 0,-0.2003566 -0.1892257,-0.2003566 -0.3339278,-0.2003566 H 0.90117326 c -0.15583296,0 -0.3450587,0 -0.3450587,0.2003566 0,0.2003567 0.18922574,0.2003567 0.33392777,0.2003567 z m 0,0"
       style="fill:#000000;fill-opacity:1;fill-rule:nonzero;stroke:none"
       aria-label="="
       transform="matrix(1.4037467,0,0,1.4037467,469.11389,14.799805)" />
    <path
       id="path20"
       d="m 5.1875027,-2.1475729 c 0,-1.2689256 -0.9683906,-2.259578 -2.0814831,-2.259578 -0.7791649,0 -1.1910091,0.4452371 -1.3913658,0.6567247 v -0.6567247 l -1.4358894,0.1113093 v 0.3116659 c 0.71237925,0 0.7791648,0.055655 0.7791648,0.5008917 v 4.6638579 c 0,0.445237 -0.11130925,0.445237 -0.7791648,0.445237 v 0.311666 l 1.1130926,-0.033393 1.1242235,0.033393 v -0.311666 c -0.6678556,0 -0.7680339,0 -0.7680339,-0.445237 v -1.7698172 c 0.044524,0.16696388 0.4674989,0.70124832 1.2244018,0.70124832 1.1798782,0 2.2150543,-0.97952147 2.2150543,-2.25957792 z m -0.8236885,0 c 0,1.20213997 -0.7012484,2.03695941 -1.4358895,2.03695941 -0.4007133,0 -0.7791648,-0.20035667 -1.046307,-0.60107 C 1.7480466,-0.92317108 1.7480466,-0.934302 1.7480466,-1.1346587 v -2.2261851 c 0.2894041,-0.5008917 0.7680339,-0.7902958 1.2800565,-0.7902958 0.7235101,0 1.3357111,0.8793432 1.3357111,2.0035667 z m 5.584942,0.9572596 c 0,-0.089047 -0.077917,-0.1113093 -0.1224402,-0.1113093 -0.089047,0 -0.1113092,0.055655 -0.1335711,0.1335712 -0.3450587,1.02404513 -1.2466637,1.02404513 -1.346842,1.02404513 -0.4897608,0 -0.8904741,-0.28940407 -1.1242235,-0.65672462 C 6.9211444,-1.2793607 6.9211444,-1.9472163 6.9211444,-2.3034059 h 2.7827314 c 0.2226185,0 0.2448804,0 0.2448804,-0.2114876 0,-0.9795214 -0.5342844,-1.947912 -1.7809481,-1.947912 -1.1576163,0 -2.0703522,1.0240452 -2.0703522,2.2707089 0,1.33571108 1.046307,2.30410162 2.1927923,2.30410162 1.213271,0 1.658508,-1.11309262 1.658508,-1.30231832 z M 9.2920316,-2.5148935 H 6.9322753 c 0.066786,-1.4804131 0.901605,-1.7252935 1.2355328,-1.7252935 1.0240451,0 1.1242235,1.3468421 1.1242235,1.7252935 z m 4.5775934,-1.2800564 c 0,-0.3227969 -0.311666,-0.612201 -0.734641,-0.612201 -0.734641,0 -1.090831,0.6678556 -1.235533,1.1019617 v -1.1019617 l -1.380235,0.1113093 v 0.3116659 c 0.701248,0 0.779165,0.066786 0.779165,0.5565463 v 2.67142221 c 0,0.44523703 -0.111309,0.44523703 -0.779165,0.44523703 V 6.9576419e-4 L 11.654571,-0.03269701 c 0.400713,0 0.868212,0 1.268925,0.0333927742 V -0.31097016 h -0.211487 c -0.734642,0 -0.756903,-0.11130926 -0.756903,-0.46749888 V -2.3145368 c 0,-0.9795215 0.422975,-1.8699955 1.179878,-1.8699955 0.06679,0 0.08905,0 0.100178,0.011131 -0.02226,0.011131 -0.222618,0.1335711 -0.222618,0.3895824 0,0.2782731 0.211487,0.4229752 0.422975,0.4229752 0.178095,0 0.434106,-0.1113093 0.434106,-0.4341062 z m 3.840169,-2.5267202 c 0,-0.3673205 -0.378451,-0.7012483 -0.901605,-0.7012483 -0.701248,0 -1.547198,0.5231535 -1.547198,1.5805914 v 1.1464854 h -0.779165 v 0.3116659 h 0.779165 v 3.22796851 c 0,0.44523703 -0.11131,0.44523703 -0.779165,0.44523703 V 6.9576419e-4 L 15.61718,-0.03269701 c 0.400713,0 0.868212,0 1.268926,0.0333927742 V -0.31097016 h -0.211488 c -0.734641,0 -0.756903,-0.11130926 -0.756903,-0.46749888 V -3.9841757 h 1.135355 v -0.3116659 h -1.157617 v -1.1576163 c 0,-0.8682122 0.47863,-1.346842 0.912736,-1.346842 0.03339,0 0.178095,0 0.333928,0.066786 -0.12244,0.044524 -0.300535,0.1669638 -0.300535,0.4229751 0,0.2226185 0.155833,0.4229752 0.422975,0.4229752 0.289404,0 0.445237,-0.2003567 0.445237,-0.4341065 z m 4.182446,4.1852281 c 0,-1.2689255 -1.001784,-2.3263635 -2.203924,-2.3263635 -1.246663,0 -2.215054,1.0908307 -2.215054,2.3263635 0,1.2911874 1.035176,2.24844702 2.203923,2.24844702 1.20214,0 2.215055,-0.97952147 2.215055,-2.24844702 z m -0.83482,-0.077916 c 0,0.3673206 0,0.901605 -0.211487,1.33571113 -0.222619,0.45636795 -0.656725,0.7346411 -1.157617,0.7346411 -0.434106,0 -0.868212,-0.20035667 -1.135354,-0.65672462 -0.256011,-0.44523701 -0.256011,-1.04630701 -0.256011,-1.41362761 0,-0.3895824 0,-0.9238668 0.24488,-1.3579729 0.267142,-0.456368 0.734641,-0.6678556 1.135354,-0.6678556 0.434106,0 0.868213,0.2114876 1.124224,0.6455937 0.256011,0.4229752 0.256011,1.0017834 0.256011,1.3802348 z m 4.74734,-1.5805914 c 0,-0.3227969 -0.311666,-0.612201 -0.734641,-0.612201 -0.734641,0 -1.090831,0.6678556 -1.235533,1.1019617 v -1.1019617 l -1.380235,0.1113093 v 0.3116659 c 0.701249,0 0.779165,0.066786 0.779165,0.5565463 v 2.67142221 c 0,0.44523703 -0.111309,0.44523703 -0.779165,0.44523703 V 6.9576419e-4 L 23.589706,-0.03269701 c 0.400713,0 0.868212,0 1.268925,0.0333927742 V -0.31097016 h -0.211487 c -0.734641,0 -0.756903,-0.11130926 -0.756903,-0.46749888 V -2.3145368 c 0,-0.9795215 0.422975,-1.8699955 1.179878,-1.8699955 0.06679,0 0.08905,0 0.100178,0.011131 -0.02226,0.011131 -0.222618,0.1335711 -0.222618,0.3895824 0,0.2782731 0.211487,0.4229752 0.422975,0.4229752 0.178095,0 0.434106,-0.1113093 0.434106,-0.4341057 z M 34.186347,6.9576419e-4 V -0.31097016 c -0.523153,0 -0.768034,0 -0.779165,-0.300535 V -2.5148935 c 0,-0.8570813 0,-1.1576163 -0.311666,-1.5138059 -0.133571,-0.1780948 -0.467498,-0.3784515 -1.046307,-0.3784515 -0.834819,0 -1.268925,0.60107 -1.44702,0.9795215 -0.133571,-0.8682122 -0.868212,-0.9795215 -1.32458,-0.9795215 -0.72351,0 -1.191009,0.4341062 -1.469282,1.0463071 v -1.0463071 l -1.402497,0.1113093 v 0.3116659 c 0.690117,0 0.768034,0.066786 0.768034,0.5565463 v 2.67142221 c 0,0.44523703 -0.100178,0.44523703 -0.768034,0.44523703 V 6.9576419e-4 L 27.530054,-0.03269701 28.643146,6.9576419e-4 V -0.31097016 c -0.667855,0 -0.779165,0 -0.779165,-0.44523703 V -2.5928099 c 0,-1.0351761 0.71238,-1.5917224 1.346842,-1.5917224 0.623332,0 0.734641,0.5342844 0.734641,1.1019616 v 2.32636351 c 0,0.44523703 -0.111309,0.44523703 -0.779164,0.44523703 V 6.9576419e-4 L 30.301654,-0.03269701 31.414747,6.9576419e-4 V -0.31097016 c -0.667856,0 -0.779165,0 -0.779165,-0.44523703 V -2.5928099 c 0,-1.0351761 0.712379,-1.5917224 1.346842,-1.5917224 0.623332,0 0.734641,0.5342844 0.734641,1.1019616 v 2.32636351 c 0,0.44523703 -0.111309,0.44523703 -0.779165,0.44523703 V 6.9576419e-4 L 33.062124,-0.03269701 Z M 39.189698,-0.8897783 v -0.5565463 h -0.24488 v 0.5565463 c 0,0.57880814 -0.24488,0.6455937 -0.35619,0.6455937 -0.333927,0 -0.36732,-0.45636796 -0.36732,-0.50089166 V -2.737512 c 0,-0.4229752 0,-0.8125576 -0.367321,-1.1798781 -0.389582,-0.3895824 -0.879343,-0.5454154 -1.357973,-0.5454154 -0.823688,0 -1.502675,0.4674989 -1.502675,1.1242235 0,0.300535 0.189226,0.4674989 0.456368,0.4674989 0.278273,0 0.456368,-0.2003567 0.456368,-0.456368 0,-0.1224401 -0.05565,-0.445237 -0.512022,-0.4563679 0.267142,-0.3450587 0.756903,-0.456368 1.079699,-0.456368 0.489761,0 1.057438,0.3895824 1.057438,1.2689256 v 0.3673205 c -0.512022,0.033393 -1.20214,0.066786 -1.836602,0.3673206 -0.745772,0.3339278 -0.990653,0.8570813 -0.990653,1.29118737 0,0.80142666 0.95726,1.05743795 1.591723,1.05743795 0.656724,0 1.113092,-0.40071333 1.302318,-0.86821221 0.04452,0.40071333 0.311666,0.81255758 0.779165,0.81255758 0.211487,0 0.812557,-0.13357111 0.812557,-0.94612869 z M 37.53119,-1.39067 c 0,0.94612873 -0.72351,1.28005651 -1.168747,1.28005651 -0.489761,0 -0.890474,-0.3450587 -0.890474,-0.84595037 0,-0.54541534 0.411844,-1.36910384 2.059221,-1.43588944 z M 44.693941,6.9576419e-4 V -0.31097016 c -0.523153,0 -0.768034,0 -0.779165,-0.300535 V -2.5148935 c 0,-0.8570813 0,-1.1576163 -0.311666,-1.5138059 -0.133571,-0.1780948 -0.467499,-0.3784515 -1.046307,-0.3784515 -0.72351,0 -1.191009,0.4341062 -1.469282,1.0463071 v -1.0463071 l -1.402497,0.1113093 v 0.3116659 c 0.690118,0 0.768034,0.066786 0.768034,0.5565463 v 2.67142221 c 0,0.44523703 -0.100178,0.44523703 -0.768034,0.44523703 V 6.9576419e-4 L 40.809248,-0.03269701 41.922341,6.9576419e-4 V -0.31097016 c -0.667856,0 -0.779165,0 -0.779165,-0.44523703 V -2.5928099 c 0,-1.0351761 0.712379,-1.5917224 1.346842,-1.5917224 0.623332,0 0.734641,0.5342844 0.734641,1.1019616 v 2.32636351 c 0,0.44523703 -0.111309,0.44523703 -0.779165,0.44523703 V 6.9576419e-4 L 43.580849,-0.03269701 Z M 49.032219,-1.1903133 c 0,-0.089047 -0.100178,-0.089047 -0.12244,-0.089047 -0.08905,0 -0.111309,0.033393 -0.133571,0.089047 -0.289404,0.93499777 -0.934998,1.04630703 -1.302318,1.04630703 -0.534285,0 -1.402497,-0.42297518 -1.402497,-2.02582853 0,-1.6251151 0.812558,-2.0480903 1.346842,-2.0480903 0.08905,0 0.712379,0.011131 1.057438,0.3784515 -0.400713,0.022262 -0.467499,0.3227968 -0.467499,0.4563679 0,0.2560113 0.178095,0.456368 0.456368,0.456368 0.267142,0 0.467499,-0.1669639 0.467499,-0.4674989 0,-0.6789865 -0.756903,-1.0685689 -1.524937,-1.0685689 -1.246663,0 -2.17053,1.0796998 -2.17053,2.3152326 0,1.26892553 0.990652,2.25957792 2.148268,2.25957792 1.335712,0 1.647377,-1.20214002 1.647377,-1.30231832 z m 4.421761,0 c 0,-0.089047 -0.07792,-0.1113093 -0.12244,-0.1113093 -0.08905,0 -0.11131,0.055655 -0.133572,0.1335712 -0.345058,1.02404513 -1.246663,1.02404513 -1.346842,1.02404513 -0.48976,0 -0.890474,-0.28940407 -1.124223,-0.65672462 C 50.426368,-1.2793607 50.426368,-1.9472163 50.426368,-2.3034059 h 2.782731 c 0.222619,0 0.244881,0 0.244881,-0.2114876 0,-0.9795214 -0.534285,-1.947912 -1.780948,-1.947912 -1.157617,0 -2.070353,1.0240452 -2.070353,2.2707089 0,1.33571108 1.046307,2.30410162 2.192793,2.30410162 1.213271,0 1.658508,-1.11309262 1.658508,-1.30231832 z m -0.656725,-1.3245802 h -2.359756 c 0.06678,-1.4804131 0.901605,-1.7252935 1.235533,-1.7252935 1.024045,0 1.124223,1.3468421 1.124223,1.7252935 z m 7.852868,1.2355328 c 0,-0.5231535 -0.300535,-0.8236885 -0.411844,-0.9461287 -0.333928,-0.3116659 -0.72351,-0.3895824 -1.135354,-0.4786298 -0.567678,-0.1001783 -1.235533,-0.2337494 -1.235533,-0.8125576 0,-0.3450587 0.267142,-0.7569029 1.124223,-0.7569029 1.090831,0 1.146486,0.9016049 1.157617,1.2021399 0.01113,0.089047 0.12244,0.089047 0.12244,0.089047 0.133571,0 0.133571,-0.044524 0.133571,-0.2337494 v -1.0017833 c 0,-0.1780948 0,-0.2448804 -0.111309,-0.2448804 -0.04452,0 -0.06679,0 -0.200357,0.1224402 -0.03339,0.033393 -0.133571,0.1224402 -0.166964,0.155833 -0.378451,-0.2782732 -0.790296,-0.2782732 -0.934998,-0.2782732 -1.213271,0 -1.591722,0.6678556 -1.591722,1.2244019 0,0.3450587 0.155833,0.6344627 0.422975,0.8459503 0.322797,0.2560113 0.60107,0.3227969 1.313449,0.456368 0.222619,0.044524 1.035176,0.2003566 1.035176,0.9238668 0,0.50089168 -0.345058,0.90160501 -1.124223,0.90160501 -0.83482,0 -1.191009,-0.56767722 -1.380235,-1.41362761 -0.03339,-0.1335711 -0.04452,-0.1669639 -0.144702,-0.1669639 -0.12244,0 -0.12244,0.066786 -0.12244,0.2448804 v 1.31344925 c 0,0.17809482 0,0.24488037 0.100178,0.24488037 0.05566,0 0.06679,-0.0111309 0.256012,-0.20035666 0.02226,-0.02226185 0.02226,-0.04452371 0.200356,-0.23374944 0.434106,0.42297518 0.879343,0.4341061 1.090831,0.4341061 1.146485,0 1.602853,-0.66785555 1.602853,-1.39136532 z m 4.47185,0.089047 c 0,-0.089047 -0.100179,-0.089047 -0.12244,-0.089047 -0.08905,0 -0.11131,0.033393 -0.133572,0.089047 -0.289404,0.93499777 -0.934997,1.04630703 -1.302318,1.04630703 -0.534284,0 -1.402497,-0.42297518 -1.402497,-2.02582853 0,-1.6251151 0.812558,-2.0480903 1.346842,-2.0480903 0.08905,0 0.71238,0.011131 1.057438,0.3784515 -0.400713,0.022262 -0.467498,0.3227968 -0.467498,0.4563679 0,0.2560113 0.178094,0.456368 0.456367,0.456368 0.267143,0 0.467499,-0.1669639 0.467499,-0.4674989 0,-0.6789865 -0.756903,-1.0685689 -1.524936,-1.0685689 -1.246664,0 -2.170531,1.0796998 -2.170531,2.3152326 0,1.26892553 0.990652,2.25957792 2.148269,2.25957792 1.335711,0 1.647377,-1.20214002 1.647377,-1.30231832 z M 70.11141,-2.136442 c 0,-1.2689255 -1.001783,-2.3263635 -2.203923,-2.3263635 -1.246664,0 -2.215054,1.0908307 -2.215054,2.3263635 0,1.2911874 1.035176,2.24844702 2.203923,2.24844702 1.20214,0 2.215054,-0.97952147 2.215054,-2.24844702 z m -0.834819,-0.077916 c 0,0.3673206 0,0.901605 -0.211488,1.33571113 -0.222618,0.45636795 -0.656724,0.7346411 -1.157616,0.7346411 -0.434106,0 -0.868212,-0.20035667 -1.135355,-0.65672462 -0.256011,-0.44523701 -0.256011,-1.04630701 -0.256011,-1.41362761 0,-0.3895824 0,-0.9238668 0.244881,-1.3579729 0.267142,-0.456368 0.734641,-0.6678556 1.135354,-0.6678556 0.434106,0 0.868212,0.2114876 1.124223,0.6455937 0.256012,0.4229752 0.256012,1.0017834 0.256012,1.3802348 z m 4.74734,-1.5805914 c 0,-0.3227969 -0.311666,-0.612201 -0.734641,-0.612201 -0.734642,0 -1.090831,0.6678556 -1.235533,1.1019617 v -1.1019617 l -1.380235,0.1113093 v 0.3116659 c 0.701248,0 0.779165,0.066786 0.779165,0.5565463 v 2.67142221 c 0,0.44523703 -0.11131,0.44523703 -0.779165,0.44523703 V 6.9576419e-4 L 71.808876,-0.03269701 c 0.400714,0 0.868213,0 1.268926,0.0333927742 V -0.31097016 h -0.211488 c -0.734641,0 -0.756903,-0.11130926 -0.756903,-0.46749888 V -2.3145368 c 0,-0.9795215 0.422976,-1.8699955 1.179879,-1.8699955 0.06679,0 0.08905,0 0.100178,0.011131 -0.02226,0.011131 -0.222619,0.1335711 -0.222619,0.3895824 0,0.2782731 0.211488,0.4229752 0.422976,0.4229752 0.178094,0 0.434106,-0.1113093 0.434106,-0.4341057 z m 4.407846,2.6046366 c 0,-0.089047 -0.07792,-0.1113093 -0.12244,-0.1113093 -0.08905,0 -0.111309,0.055655 -0.133571,0.1335712 -0.345059,1.02404513 -1.246664,1.02404513 -1.346842,1.02404513 -0.489761,0 -0.890474,-0.28940407 -1.124224,-0.65672462 C 75.404165,-1.2793607 75.404165,-1.9472163 75.404165,-2.3034059 h 2.782732 c 0.222618,0 0.24488,0 0.24488,-0.2114876 0,-0.9795214 -0.534284,-1.947912 -1.780948,-1.947912 -1.157616,0 -2.070352,1.0240452 -2.070352,2.2707089 0,1.33571108 1.046307,2.30410162 2.192792,2.30410162 1.213271,0 1.658508,-1.11309262 1.658508,-1.30231782 z M 77.775053,-2.514893 h -2.359757 c 0.06679,-1.4804131 0.901605,-1.7252935 1.235533,-1.7252935 1.024045,0 1.124224,1.3468421 1.124224,1.7252935 z m 0,0"
       style="fill:#000000;fill-opacity:1;fill-rule:nonzero;stroke:none"
       aria-label="performancescore"
       transform="matrix(1.4037467,0,0,1.4037467,484.64775,14.799805)" />
    <path
       id="path21"
       d="M -7.0827,77.95393 -76.72148,8.32707"
       style="fill:none;stroke:#000000;stroke-width:0.3985;stroke-linecap:butt;stroke-linejoin:miter;stroke-miterlimit:10;stroke-dasharray:none;stroke-opacity:1"
       transform="matrix(1.4037467,0,0,-1.4037467,343.55717,130.60048)" />
    <path
       id="path22"
       d="M -1.19551,1.59401 C -1.09587,0.99626 0,0.09961 0.29886,0 0,-0.09961 -1.09587,-0.99626 -1.19551,-1.59401"
       style="fill:none;stroke:#000000;stroke-width:0.31879;stroke-linecap:round;stroke-linejoin:round;stroke-miterlimit:10;stroke-dasharray:none;stroke-opacity:1"
       transform="matrix(-0.99265946,0.99249101,0.99249101,0.99265946,235.85965,118.91139)" />
    <path
       id="path23"
       d="M 7.08313,77.95393 76.72646,8.32208"
       style="fill:none;stroke:#000000;stroke-width:0.3985;stroke-linecap:butt;stroke-linejoin:miter;stroke-miterlimit:10;stroke-dasharray:none;stroke-opacity:1"
       transform="matrix(1.4037467,0,0,-1.4037467,343.55717,130.60048)" />
    <path
       id="path24"
       d="M -1.19551,1.59401 C -1.09587,0.99626 0,0.09961 0.29886,0 0,-0.09961 -1.09587,-0.99626 -1.19551,-1.59401"
       style="fill:none;stroke:#000000;stroke-width:0.31879;stroke-linecap:round;stroke-linejoin:round;stroke-miterlimit:10;stroke-dasharray:none;stroke-opacity:1"
       transform="matrix(0.99265946,0.99249101,0.99249101,-0.99265946,451.26165,118.91839)" />
    <path
       id="path25"
       d="M -19.40865,0 H 38.26561"
       style="fill:none;stroke:#000000;stroke-width:0.3985;stroke-linecap:butt;stroke-linejoin:miter;stroke-miterlimit:10;stroke-dasharray:none;stroke-opacity:1"
       transform="matrix(1.4037467,0,0,-1.4037467,343.55717,130.60048)" />
    <path
       id="path26"
       d="M -1.19551,1.59401 C -1.09587,0.99626 0,0.09961 0.29886,0 0,-0.09961 -1.09587,-0.99626 -1.19551,-1.59401"
       style="fill:none;stroke:#000000;stroke-width:0.31879;stroke-linecap:round;stroke-linejoin:round;stroke-miterlimit:10;stroke-dasharray:none;stroke-opacity:1"
       transform="matrix(1.4037467,0,0,-1.4037467,397.27239,130.60048)" />
    <path
       id="path27"
       d="m 27.99512,85.04042 h 43.9111"
       style="fill:none;stroke:#000000;stroke-width:0.3985;stroke-linecap:butt;stroke-linejoin:miter;stroke-miterlimit:10;stroke-dasharray:none;stroke-opacity:1"
       transform="matrix(1.4037467,0,0,-1.4037467,343.55717,130.60048)" />
    <path
       id="path28"
       d="M -1.19551,1.59401 C -1.09587,0.99626 0,0.09961 0.29886,0 0,-0.09961 -1.09587,-0.99626 -1.19551,-1.59401"
       style="fill:none;stroke:#000000;stroke-width:0.31879;stroke-linecap:round;stroke-linejoin:round;stroke-miterlimit:10;stroke-dasharray:none;stroke-opacity:1"
       transform="matrix(1.4037467,0,0,-1.4037467,444.49529,11.225276)" />
    <path
       id="path29"
       d="m -180.45575,0 h 29.32527"
       style="fill:none;stroke:#000000;stroke-width:0.3985;stroke-linecap:butt;stroke-linejoin:miter;stroke-miterlimit:10;stroke-dasharray:none;stroke-opacity:1"
       transform="matrix(1.4037467,0,0,-1.4037467,343.55717,130.60048)" />
    <path
       id="path30"
       d="M -1.19551,1.59401 C -1.09587,0.99626 0,0.09961 0.29886,0 0,-0.09961 -1.09587,-0.99626 -1.19551,-1.59401"
       style="fill:none;stroke:#000000;stroke-width:0.31879;stroke-linecap:round;stroke-linejoin:round;stroke-miterlimit:10;stroke-dasharray:none;stroke-opacity:1"
       transform="matrix(1.4037467,0,0,-1.4037467,131.40826,130.60048)" />
  </g>
</svg>
